/* XPM */
static char *_577641445924[] = {
/* columns rows colors chars-per-pixel */
"75 143 31 1 ",
"  c #8080FF",
". c #C08000",
"X c #F0B010",
"o c #804000",
"O c black",
"+ c #F0F070",
"@ c #F0D030",
"# c #E0A060",
"$ c #501000",
"% c #F0D0A0",
"& c #C08040",
"* c #905010",
"= c #F0E0C0",
"- c gray94",
"; c #505050",
": c gray44",
"> c gray19",
", c #B0F0B0",
"< c #60A060",
"1 c #90D090",
"2 c #F0C030",
"3 c #206020",
"4 c #408040",
"5 c #904000",
"6 c #F0E060",
"7 c #C07000",
"8 c #F0A010",
"9 c #70B070",
"0 c #F0F0B0",
"q c #601000",
"w c white",
/* pixels */
"                                                                           ",
"                                                                           ",
"                                                                           ",
"                                                                           ",
"                                                                           ",
"                                                                           ",
"                                                                           ",
"                                                                           ",
"                                                                           ",
"                                                                           ",
"                                                                           ",
"                                                                           ",
"                                                    . .                    ",
"                                                    X oX .                 ",
"                                                   O+Oo+XX. X .            ",
"                                                   O+@O+@.@O@OX            ",
"                                                   O@.@@+@o@+O@O           ",
"                                                   O@@.oo@.o+@.O           ",
"                                                 Oo@.@.X@@.@@.o@O          ",
"                                               Oo@@@.OX##$$#%%O@O          ",
"                                             Oo@@@.OO%O###$%%&%O           ",
"                                            O@@@OO%%O%O##%*$%*%O           ",
"                                            OOXO%%%%%*%==%&-$$O            ",
"                                           O;;O:%%%%&O%%%%%#%O             ",
"                                          O;;::::%%%&O%%$%%%%O             ",
"                                        OO;OOOO:;;%&#O%%&$$$OO             ",
"                                       OO*&===;O;;;O##O%%**O               ",
"                                     OO&%%%====O;;O>>OOO%%O                ",
"                                    O&%%%%=====;O;O>O   OOO                ",
"                                   O%%%%%%=====%O;OO                       ",
"                                  O%%%%%%%==::::;OO                        ",
"                                 O%%%%%%%::::;****O                        ",
"                                O%%%%%%::;***&#===%*                       ",
"                                *%%%%%;;*&%===&====%&O                     ",
"                               O%%%%%%OO%%%%===#===%%*O                    ",
"                               *%%%%%&;O%%%%%==%===%%*#O                   ",
"                              O&%%%#&%;O#%%%%%====%%%&%O                   ",
"                              O#%%%%%%;;O##%%%%%%%%%%#%O                   ",
"                              O#%%#%%%%;>O####%%%%%%%%#O                   ",
"                              O#%%&%%%#>>>O*##########O>O                  ",
"                               O%%%*####>OO#***######OO>O                  ",
"                              OO&%%%*OOOO>O#%%%***##*%%O                   ",
"                              O#O%%%######O#*%%%%%**%%%*                   ",
"                              O##O%%######O#$%%%%%%&#%%#O                  ",
"                              *$#&O#######O##$%%%%%%#%%#O                  ",
"                             O&$#&&O######O###*%%%%%%#%#O                  ",
"                             *$##&&&O######O##%*%%%%%&#&O                  ",
"                            O&$##&&$&O######O#%%&%&%%%O&O                  ",
"                            *$###&&$&&O####>>O%%%&$%%%OO>O                 ",
"                           O&$##&&&$&&&OO>>>>>O%%%%$%%%O>;O                ",
"                           O*###**&$&&O OOO>>>OO=%%$%%%%O;;OO              ",
"                           O*#####*&&O   O>>>>>O=%%$%%%%%OOO,O             ",
"                           O######&*O&O   O>>>>OO=%%$%%%%%O<O1O            ",
"                           O######&*&&&O   O>>>O#O=%$%%%%%%O<OO            ",
"                           O######&*&&&O   O>>>OO#OOO*%%%%%%O2O            ",
"                           O######&&&&&O   3OO44O#$%%%*&%%%%%OO            ",
"                           O#####&&*&&&O   34<<<O#$%%%%*&#%%%&O            ",
"                           O&###&&&*&&&O   34<<4O##*%%%%*%#%%#O            ",
"                           O*&&&&&*&&&O    OOOO2O###*%%%%&%%%%O            ",
"                           O&&&&**&&&O     O22222O##&%%%%%#%%%O            ",
"                           .OO&&&&&&OO     5222226O##&%%%%%%%%O            ",
"                           OX@OOOOOOoO    O72222622O##&%%%%%%%O.           ",
"                           .O.@X...XO    OO222222622OO##%%%%OOXO           ",
"                           OX@.oooOOo   O3O2222222822OOOOOOO+@OX           ",
"                            O.@X...XO  O3OO222227766O<O...++XoX.           ",
"                            .@.oooOOoOO3O  O22552224<<<OOo..+@.O.          ",
"                            O.@X...XOO33O   O5222O499OOO..@+.XoX.          ",
"                            .@.oooOOoO3O    O22O4119O622OOo.+++OO.         ",
"                            OO@X...XOO3O    OO4991<O0222O..@.XoXXO         ",
"                           O&#OOOOOOO4OO   O4<994O006222OOo.++@OOO         ",
"                           O####&O&&O44<OO4<<<4O22062222O..XOOO%%O         ",
"                           O####&O&&&OO4<<<<4O222062222O#OOO%%%%%O         ",
"                           O####&O*&&&&OOOOO2222062222O###%%%%%%%O         ",
"                           O&&&*O*O*&*&O  O22220622222O##%%%%%%%%O         ",
"                           *OOOOOO*O*&&O O2222662222222*%%%%%%%%%O         ",
"                           *#O*#*#O#*&O O22222622222222*%%%%%%%#%O         ",
"                           O&O*&O&O#OO  722226222222225O*%=%%=%&=O         ",
"                           OO OOOOO&&O O22222222222227O&O##*****#O         ",
"                                   OOOO522222222222272O##OO#O#O#O          ",
"                                    O225222222222227262OOOOOOO&O           ",
"                                   O26272222222227826222O77585O            ",
"                                   O2062222222228266222O77588885           ",
"                                   O826662222288662222O77578887O           ",
"                                    52222222882222222O77777777O            ",
"                                    O82222222288222OO77777777O             ",
"                                     O22222277222OO77777777OO              ",
"                                    OOO2285522OO344O77777OO4O              ",
"                                    O22OOOOOOO43999O77OOO4<9O              ",
"                                    O222O4<<<<3111<OOO33O49O               ",
"                                  OO72228O44<3999<O3333O3<4O               ",
"                               OO722272288O443<<4OOO333O3<O                ",
"                             O7222222722888O3444O777OOO333O                ",
"                           O7222222227228888O44O777777O33O                 ",
"                         O7222222222288288888OO777777q7OO                  ",
"                        O222222222222882888OO7777777q7O                    ",
"                       O222222222222888288O77777777q77O                    ",
"                       O22222222222888885O77777777577O                     ",
"                       O2222222228888885O777777775777O                     ",
"                       5222228888888855O577777775777O                      ",
"                      O888888888888758O7577777757777O                      ",
"                      588888888887788O7757777757777O                       ",
"                     O8888888888888OOO7757775577777q                       ",
"                   O522222888888OOO  O77775577777758O                      ",
"               OOO7222288888OOOO     O777777777777588O                     ",
"             <<888888888888O          O77777777775777O                     ",
"               <<8888888888O           O777777775777O                      ",
"          OOOOO.o<<<<<<<<<<             O7777777577O                       ",
"        OX@@@O..o...ooO                  O77777577O                        ",
"       O@@@@oO...ooOO                    O7777577O                         ",
"       O@@@oXO...OO                       O777777O                         ",
"       O@XoXXXOOO                         O7777774O                        ",
"       Oo.XXXXXO                          5777777O                         ",
"      OXXXXXXXO                          57777744                          ",
"      OoooXXXO                          5777744oO                          ",
"     OXXX.oXO                          577744.oO                           ",
"    OXXXXXOO                          44444ooo.O                           ",
"   OooXXXO                              O......O                           ",
"  OXX.oXO                               O.....O.O                          ",
"  OXXXXO                               O.OOOOO...O                         ",
"  Oo.XO                               O...O.....o.O                        ",
"  OXoO                                O....O...o...oO        o             ",
"  OXXo                                O....O..o.....oOO     .O             ",
"   OXo                                O....O..o....oXXXOOOo.XO             ",
"    OXo                               O....O..o...oXXXXoXXXXO              ",
"     OOO                               OOOOOOOOOOOOOOOOOOOOO               ",
"                                                                           ",
"                                                                           ",
"                                                                           ",
"                                                                           ",
"                                                                           ",
"                                                                           ",
"                                                                           ",
"                                                                           ",
"                                                                           ",
"                                                                           ",
"                                                                           ",
"                                                                           ",
"                                                                           ",
"                                                                           ",
"                                                                           ",
"                                                                           ",
"                                                                           ",
"                                                                           "
};
