/* XPM */
static char *_577641474435[] = {
/* columns rows colors chars-per-pixel */
"79 129 32 1 ",
"  c #8080FF",
". c #F0B010",
"X c #C08000",
"o c #F0F070",
"O c black",
"+ c #F0D030",
"@ c #804000",
"# c #E0A060",
"$ c #F0D0A0",
"% c #501000",
"& c #C08040",
"* c #F0E0C0",
"= c gray94",
"- c #905010",
"; c gray44",
": c #505050",
"> c gray19",
", c #A0A0A0",
"< c #60A060",
"1 c #B0F0B0",
"2 c #70B070",
"3 c #408040",
"4 c #90D090",
"5 c #F0C030",
"6 c #F0A010",
"7 c #F0E060",
"8 c #F0F0B0",
"9 c #C07000",
"0 c #904000",
"q c #206020",
"w c #601000",
"e c white",
/* pixels */
"                                                                               ",
"                                                                               ",
"                                                                               ",
"                                              .    .                           ",
"                                            X oO X + X X                       ",
"                                            @++oOoOoO+ .                       ",
"                                            O.+o+o+.o@O+O                      ",
"                                            O+X@o+@.o@.+O                      ",
"                                            O+.X@+@+@+O++O                     ",
"                                           O@++X+@+.@+O++O                     ",
"                                         O@+O.X####$X+.+.O                     ",
"                                       O@.+O$O#%%%$$$$$&.O                     ",
"                                      @.O+OO$$$#&%$$#$#&O                      ",
"                                     @.O+O$$%$*$&=%$&$&O                       ",
"                                     OO+O$$&O$$*$--%%-O                        ",
"                                    O;OO$$$&O$$$$$#$$O                         ",
"                                  -&;;O;;$&#O$$-$$$$O                          ",
"                                -#**;O;;::O##O$#---O                           ",
"                              -#***#;O;:::O>#&O$&&O                            ",
"                         OOOOO****#&::O:::O>>>OOOO                             ",
"                       O&$$***&&-O::::O:::O>>O                                 ",
"                      O$$$***#***$O:OOOO::O>O>O                                ",
"                     O$$$$******$$$O::;;OO>>O>O-O                              ",
"                    O-$$$$*****$$$$O::::,,O>>O>>#&O                            ",
"                    O&$$$$$$$$$$$$#O::::>>,OO,;:O##O                           ",
"                    O$#$$$$$$$$$$##O::>>:::;>;>>:O##O                          ",
"                    O$&$$$$$$$$####O>>::::::>:::>>O##O                         ",
"                   O#&$&$$$$######OO:::::::::>::::O##-                         ",
"                   -$$&-&########O>::::::::::>:::::O##O                        ",
"                  -$$$$$-$----OOOO>>:::::::::O:::::O&&O                        ",
"                  -$$$$$#$$$$$$$O>OO>>>OOOOOOO:::::O-&O                        ",
"                  &$$$$$$#$$$$$$O>>>OOO:;;,,O>OO>:O#-O                         ",
"                 O$%$$$$$#$$$$$->OO:::::::::>O,;O>O#O                          ",
"                 O$%#$$$$&$$$$$O>O::::::::::>:;::O##O                          ",
"                O$$%$$$$$-#$$$->O>O::::OOOOOOO:::O##O                          ",
"               O$$$-$$$&$O####O>O>>>OOO>O:::>:OOO###O                          ",
"               -$$&$$$$-#O###O>>O>>>>>>O::::O::O####-                          ",
"              -$$$&$$$$$O#OOO>>O>>>>>>O>::::O:>O####&O                         ",
"             -$$$&$$$$$$OO>>>>>O>>>>OO>>>>>O>>O######O                         ",
"            O*$$$&$$$$$$O O>>>>O>>OO>>>>>>>O>>O######OO                        ",
"            O**%$%$$$$$$- O>>>>>>>>>>>>>>>>O>:O######O&O                       ",
"            OOO$$%$$$$$$#O O>>O>>>>>OOO>>>::O::O#####O##O                      ",
"            O-$$$$%$$$$$$O  OO>>>>:::::O:::;;O;:O###%-##-O                     ",
"            O-$$$$%$$$$$$O   O>>>>;:::::O:;;:O::OO%%&-##-#O                    ",
"            O#&$$$--$$$$$O    O>>>;::::::O;:::OO<O&&-###&##O                   ",
"            O#&$$$-$&$$$$O   OO>>>:;:::::O:::O12O<O&-#######O                  ",
"            O#$#$$&$$$$$O    O3OO>:;;::::O:OOO32OOO&-#######-                  ",
"            O#$#$$#$$$$-     O3<<OOOOOOOOO<222O3OOO&-########O                 ",
"            O&$$#$$$$$&O      OO<<<<224114223OOOO>O&-########O                 ",
"             -$$#$$$$#O       O5OOOOOOOOOOOOO+O>>>OO&########O                 ",
"             O#OOOOOOOO       O5556657855955O<O>>>OO&########O                 ",
"             OOXXoo++.O       O5555766555505O<O>>>O3&&#######O                 ",
"             O.O@XXX@OX       O5557777699550O<O>>>O<O&&###OOOO                 ",
"             XOXXoo++.O       O5555555755999O2<O>>O<3-&&OO+++.O                ",
"             O.O@XXX@OX       O5555555575555O<2O>>O3<O-OXX@XX@O                ",
"              O.Xoo++.O       O55555555577555323>>OO<3OXO@X+++.O               ",
"              XO@XXX@OX       O55555555557875O42O>OO<<OOXX@@XX@O               ",
"              O.Xoo++.O      OO55555555555788O44OO69O<O.XOXX+++X               ",
"              XOOOOOOOOO     Oq95555555555778<24O5O6O3OXOXX@@XX@O              ",
"              O&$$$$$$$$O    OqO955555555557O22<5509O3OO.XO@.++.XO             ",
"              O$$$$$$$$$$O  OqO O965555555553223855OOO  @OXXOOOOOOOO           ",
"              O$$$$$$$$&$O  OqO  O595555555O<2<O8550O   O.O-########O          ",
"              O$$$$$$$$-#-  OqO O0O599555553223788550    O&###-#####-          ",
"              O$$$$$#$$-##O OqOO99O0556655O<2<O778559    O####-######O         ",
"              O$$$$$#$$$-#O OOO999O50955O3<<<O55785559   O####OO###-#-         ",
"              O*$$*$&$$*-&O  O3OOOOOOOO3<<<<O555775550    -##O--OOOO##O        ",
"              O#-----#$*-O  O9O33<<<<<<<<<3O555557559     O&O-OO-O-&O#O        ",
"              O#O#O##--#&O O999OOOOOOOOOOO55555557550     OO-O&O&&O&O#O        ",
"               OO#&O#&O##O O99999999O5560555555555550O    O&&--O&--O-O         ",
"                 OO OO O&O O99999999905559555555555506O   O--O#-O#-O#-         ",
"                        O  O999999999O05559555557555055O  O#-O#-O##O##-        ",
"                           O999999999O595559555575550555O  OO OO OO OOO        ",
"                          O0999999999O5595559655575695555O                     ",
"                         O9099999999wO5559655595575955555O                     ",
"                         O909999990w9O5555565559957553q5q                      ",
"                          099000009999O5555566555997q443<O                     ",
"                          O999999999999OO5555555555q223<<<O                    ",
"                           O999999999OOO9OO55555556q<<q<<<3                    ",
"                          OOOOOOOOOOOqqqOO OO055666q<<q<<<<O                   ",
"                        O069OqqqqqqOqqOOqO   OOOOOO3q33q<<<O                   ",
"                      O966669OqqqqOqqOqqqO    O33<<<q33q<<<O                   ",
"                    O966666699OqqOqqOqqqO    OOOO3333q33q<<O                   ",
"                  O966666666999OOOqOqqqO     O066OOOOOO333O                    ",
"                 O66666666669999OqOqqOO      O606655569OOOO                    ",
"                O66666666669999wOqqOO        O6506655555669                    ",
"               O66666666669990w99OO          O6659665555555O                   ",
"            OOO0666666666600099OO            O6655965555550                    ",
"            O60966666669006699O              O666559655559O                    ",
"            O696666699966699wO              O0666555965556O                    ",
"            O66666666669990wO               06966655565555O                    ",
"            0966666699990099O              066966655556555O                    ",
"           O9999999999009999O              O6669666555555509O                  ",
"           0999999990099990O               O66669665555559055O                 ",
"          O99999990099990O                  O6666966555555555O                 ",
"         O669900009990OO                     O666666555555555O                 ",
"       O96666669999OO                         O66666655555555O                 ",
"     3966666699999O                            O6666665555555O                 ",
"   OOO33399999999O                              O96666655555<3                 ",
" O@...OXX333333333                                O066655555<3                 ",
"O.....@OXXX@@O                                      O66655555O<                ",
"O.....@XOOOOO                                        O6655555<9<<              ",
"O.....@XXXXXO                                         O665555<999<<<<          ",
" @....@XXXXXO                                         0665555<999993           ",
" OX..@XXXXX@O                                         9666555<99933            ",
"  O@@XXXXXX@                                         066665555<33              ",
"   OXXXXXX@O                                        <<<6655<<<                 ",
"   OXXXX@@XO                                           <<<<@XO                 ",
"    O@@@XXXO                                          OOXXXXXOO                ",
"    OXXXXXXO                                         O..OOOOO..O               ",
"    OXXXXXXO                                        O....@......@O             ",
"    OXXXXX@O                                        O....@X....@..O            ",
"    OXXX@@XXO                                       O.....@...@....O           ",
"    O@@@XXXX@OOO@O                                  O.....@..@......@O        @",
"     OXXXX@@XXXXO                                    O....@..O.....@++OOOOOO@XO",
"      OOOOOOOOOO                                      OOOOOOOO@X..@++++@+++++O ",
"                                                              OOOOOX.+@++++OO  ",
"                                                                   OOOOOOOO    ",
"                                                                               ",
"                                                                               ",
"                                                                               ",
"                                                                               ",
"                                                                               ",
"                                                                               ",
"                                                                               ",
"                                                                               ",
"                                                                               ",
"                                                                               ",
"                                                                               ",
"                                                                               "
};
