/* XPM */
static char *_577641467708[] = {
/* columns rows colors chars-per-pixel */
"79 129 32 1 ",
"  c #8080FF",
". c #C08000",
"X c #F0B010",
"o c #804000",
"O c #F0F070",
"+ c black",
"@ c #F0D030",
"# c #E0A060",
"$ c #501000",
"% c #F0D0A0",
"& c #C08040",
"* c #905010",
"= c #F0E0C0",
"- c gray94",
"; c gray44",
": c #505050",
"> c gray19",
", c #A0A0A0",
"< c #60A060",
"1 c #70B070",
"2 c #B0F0B0",
"3 c #408040",
"4 c #90D090",
"5 c #F0C030",
"6 c #F0A010",
"7 c #F0E060",
"8 c #C07000",
"9 c #904000",
"0 c #F0F0B0",
"q c #206020",
"w c #601000",
"e c white",
/* pixels */
"                                                                               ",
"                                                                               ",
"                                                                               ",
"                                                                               ",
"                                                .                              ",
"                                              . .X  .  . .                     ",
"                                              oX.O+ @+ X X                     ",
"                                              +OXO@o@X+O+@+                    ",
"                                              +OX@O@@@oO@@+                    ",
"                                              +@Oooo@.oO@o@+                   ",
"                                             +X@@X.@##@@X+@+                   ",
"                                             +XX+X.#$$#%%%++                   ",
"                                           +o..+%+X##$%%&%+                    ",
"                                         +oX@@++%+###*$%*#+                    ",
"                                        +XXo@+%%$%#=%&-$$+                     ",
"                                        ++;%+%%&+%%%=%#%+                      ",
"                                        +;;;%%&#+%%$%%%%+                      ",
"                                      *&:+;;:+##+%%&$$$++                      ",
"                                    *&==:+;::+>##+%%**+                        ",
"                                  ++=====+:::+>>>>+%%+                         ",
"                                 +***===%+:::+>>>+ +++                         ",
"                               +&%%==&*%#&+::+>>+                              ",
"                              +%%%=====*+::+::+>+                              ",
"                            +*%%%=====&=%+:++:+>+++                            ",
"                           +%*%%%====#==%%+:,+++>+++++                         ",
"                           +%&%%%======%%%%+:;,,+:,;+#+                        ",
"                           +%%#%%%%%%%%%%%%+::::;+;::+#+                       ",
"                          +*%%%#%%%%%%%%%%#+:::+:+::::+#+                      ",
"                          *%&%%%%%%%%%%%%#+::++:::+::::+#+                     ",
"                         +#%%#%%%%%%%%%##&+++:::::+:::::+*                     ",
"                         +%%%%#%%%%%####&+:::::::::+::::+#+                    ",
"                         +%%%%%&#####&*++>>>:::::::+:::>+#+                    ",
"                        +%*%%%%*#***+++>>++>>>::::++::>+&#+                    ",
"                        +%$%%%%%*%%%%%++++>++++++++>++++&*                     ",
"                        +%$%%%%%&%%%%#+>+>:::::;;,,+,:++&+                     ",
"                       +%%*%%%%%#%%%#*>+>>:::::::::>;>+&+                      ",
"                       +%*%%%%%%&%%##+>>>>>::::+++++>+&#+                      ",
"                      +%*%%%%%%%*###+>>>>>>>+++:::+>+&&#*                      ",
"                     +%$%%%%%%%+##&+>>>>>>>>>+::::+>+&&#&+                     ",
"                     *%$%%%%%%%+*++>>>>>>>>>+:::>+>>+&&##+                     ",
"                    +%%$%%%%%%%+++>>>>>>>>++>>>>>+>>+&&##+                     ",
"                    ++%$%%%%%%%* +>>>>>>>>>>+>>>>+>>+&&##+                     ",
"                    +#%**%%%%%%#+ +>>>+>>>>>>+>>>>+::+&&&$+                    ",
"                    +#%&%*%%%%%%+  +>+>>>>>++++>:::+;;++&$#+                   ",
"                    +*%&%&%%%%%%+   ++>>>::::::++:;;+::++&#*                   ",
"                    +*%#%%#%%%%*     +>>>;:::::::+;:::+<+&&#+                  ",
"                    +*%%&%#%%%%+     +>>>:;:::::::+:++1++&&##+                 ",
"                    +#&%&%%%%%*      ++>>:;;::::::++211++&&###+                ",
"                    +#&%#%%%%#+      +3++++++++++311+3<++&&####+               ",
"                    o++%%%%%#+       +33<<<<11424113+++>+&&####+               ",
"                    +X.++++++.       ++++++<14213+++O+>>++&####+               ",
"                    o++.OO@XX+       +55555++++++55+<+>>++&####+               ",
"                    +X.o.X.o+.       +5555556675585+<+>>++&####+               ",
"                    ++o.OO@XX+       +5555777568558+<+>>++&####+               ",
"                    +.+ooX.o+.       95555555755895+1+>>+<+####+               ",
"                     +..OO@XX+      +65555555575559+13>>+<+###+                ",
"                     o+ooX.o+.      +555555555575555+13>+<++++.                ",
"                     +X.OO@X.+      +5555555555577555+1++<+X@X+                ",
"                     ++++++++++      +5555555555570555+1+<+o.+.                ",
"                    +%%%%%%%%%%+     ++5555555555570555+1+.X@X+                ",
"                    +%%%%%%%%%%%+    +q+555555555570055+1+oo.o.                ",
"                    +%%%%%%%%%%%+    +qq98555555555700534+.X@X++               ",
"                    +%%%%%%#%%%#+    ++++5888555555570+14+oo.oX.               ",
"                    +%%%%%%#%%&#+     +33+++566655555734++.X@X+++              ",
"                    +%%%%%%&%=*#+      ++33<+++555555311+5++++###+             ",
"                    +#=%%=%&==*#+       ++++3<<+++++311+05+888####+            ",
"                     +********#+       +88+5++3<<<<<<<+7055++8&###+            ",
"                      ++##+#+##+      +8888+55++++++++5707595++&##+            ",
"                        +++++&#+    +w88888+5559855555557759555+*#+            ",
"                             ++    +88888888+555585555555758555+&#+            ",
"                                  +8888888888+55558855555758555+**             ",
"                                  +8888888888+95555585555556555+#&+            ",
"                                  +8888888898+59555556655565555+&&+            ",
"                                  +8888889988+55885555765555555+++             ",
"+                               ++w8888898888+5555885557665555+                ",
"+                               +8w888w98888+55555558855775555+++              ",
"+                               +88www888888+555555555665777qqq11+             ",
"+                                +88888888888+8555555555557q4443<+             ",
"+                                +888888888++++++5555555555q113<<<+            ",
"+                                 +88888+++q+qq+ +++555555+q<<3<<<+            ",
"+                                 ++++++qqq+qqqq+   ++++++3+3<3<<<+            ",
"                                +968+qqqqqq+qqqq+   +55+<<<<+3q<<<+            ",
"                              +966688+qqqq+qqqq+    +w55++33+33q<<+            ",
"                            +966666888+qqq+qqqq+   +659555++++3q3<+            ",
"                         ++966666668888+++qqqq+    +665955555+333+             ",
"                       ++9866666666888888+qqq+    +96655955555+++              ",
"                      +669666666666888888+qq+    +696655585555555+             ",
"                     +6696666666668888888+++    +668665555855555+              ",
"                     +669666666668888888+      +6668666555565555+              ",
"                    +66986666666888888++      +66665866555556555+              ",
"                    +6698666668888888+        +66665866655555555+              ",
"                    +668888888888889+          96665586665555555+              ",
"                    +66688888888899+           +6665586666555555+              ",
"                    +86668888889988+            +665558666665555+              ",
"                    +88888888998888+             +6655586666666+               ",
"                    +888899998888++               +665555666656+               ",
"                    +8888888888++                  +66655555566+               ",
"                   +888888888++                     ++666666666+               ",
"               ++++88888888++                         +666866666<              ",
"             3388888888888+                            +99666666+              ",
"               33388888888+                           +66666666<               ",
"             ++..o333333333                         ++66666666<+               ",
"            +X+....oo++                            <66666666<<.+               ",
"           +XX.++...+                               <66666<<...+               ",
"          +XXX..+++++                                <<<<<.oooo+               ",
"         +XXXX..+....+                                  +.......+              ",
"         +XXX...+....+                                  ++.....++              ",
"         +XXX...+....o+                                +X.+++++XX+             ",
"          ++...+.....o+                               +XXXoXXXXXXX+            ",
"            +++.....o.+                               +XXXXoXXXXXoo+           ",
"               +....o..+                              +XXXXXoXXXoXXX+          ",
"                +..o...+                              +XXXXXoXXoXXXXX+         ",
"                 +o....o                               +XXXXoXXoXXXXoo+        ",
"                 +....o.++    .                         +++++++XXXXo@@@+       ",
"                 +...o...o+oo.+                                ++Xo@@@o.++     ",
"                  +.o...o....+                                   +@@@o@@@@o.oo ",
"                   ++++++++++                                     ++++@@@@@@+  ",
"                                                                      ++++++   ",
"                                                                               ",
"                                                                               ",
"                                                                               ",
"                                                                               ",
"                                                                               ",
"                                                                               ",
"                                                                               ",
"                                                                               ",
"                                                                               ",
"                                                                               ",
"                                                                               "
};
