/* XPM */
static char *_577641493106[] = {
/* columns rows colors chars-per-pixel */
"79 129 34 1 ",
"  c #8080FF",
". c #C08000",
"X c #F0B010",
"o c black",
"O c #F0D030",
"+ c #F0F070",
"@ c #804000",
"# c #E0A060",
"$ c #F0D0A0",
"% c #501000",
"& c #905010",
"* c #C08040",
"= c #505050",
"- c #F0E0C0",
"; c gray94",
": c gray44",
"> c gray19",
", c #A0A0A0",
"< c #C0C0C0",
"1 c #206020",
"2 c #B0F0B0",
"3 c #408040",
"4 c #60A060",
"5 c #70B070",
"6 c #90D090",
"7 c #F0C030",
"8 c #904000",
"9 c #F0E060",
"0 c #C07000",
"q c #F0A010",
"w c #F0F0B0",
"e c #0000A0",
"r c #601000",
"t c white",
/* pixels */
"                                                                               ",
"                                                                               ",
"                                                       . X .                   ",
"                                                      oXoO X . X .             ",
"                                                      o+.+oOoX@O X             ",
"                                                     oX+O+.Oo+@O@O.            ",
"                                                     oO@+O+OO@+OOo.            ",
"                                                    oXOO@@@O.@+O.oOo           ",
"                                                  o@oXX..O..OX@OO.Oo           ",
"                                                o@X.O@.oOO###O.OOOo            ",
"                                               oXX@O@oo$o#%%%$$$$&             ",
"                                               oo@Oo$$o$o##*%$#$$o             ",
"                                               o=.o$$$%&$-$&;%&$&              ",
"                                             &*=:o$$$*o$$$-$&&%%o              ",
"                                            *$-o:::$$*o$$$$$#$#o               ",
"                                          &#---o:::=*#o$$&$$$$o                ",
"                                         &#---#=o:==o#*o$#&&&o                 ",
"                                     oooooo--$*=o===o>>oo$##o                  ",
"                                   o*$$$---&o====o==o>o  ooo                   ",
"                                  o$$$$----*#oooo=o=o>oo                       ",
"                                 o$$$$$---#-$$o==ooo=o>>oo                     ",
"                                 &$$$$$-----$$#o==:,oo>oo=&o                   ",
"                                o*$$$$$----$$$#o==>=,:o,:=o#o                  ",
"                                o#*$$$$$$$$$$##o=>====>====o#o                 ",
"                                &#*$$$$$$$$$##&oo======>===>#&                 ",
"                               o#&#*$$$$$$####oo=======>====o#o                ",
"                               o&$&&#########oo>>======>====o#o                ",
"                               &$$$$&$&&&&ooo>>o>>=====>===o##o                ",
"                               *$$$$*$$$$$$$o>>>o>>====o=>oo*#o                ",
"                              &#%$$$$#$$$$$#o>o>>oooooo>ooo#*o                 ",
"                              &$&$$$$#$$$$$#o>>oo===::,o<>o#&o                 ",
"                              &$$&$$$*$$$$##o>o>=======o:>o#&                  ",
"                              *$$&$#$&$$$$#&>o>>=======>>o*#&                  ",
"                              #$$&#$$&$$$##o>o>>>===ooooo**#*o                 ",
"                             &$$$*$$$o$###o>o>>>>>>o==o>o**##o                 ",
"                             &$$*$$$$o###o>o>>>>>>o==>o>o**##o                 ",
"                             #$*$$$$$*ooo>>o>>>>>oo>>>o>o**##o                 ",
"                            %$&$$$$$$#oo>>>>>>>ooooo>>>o>o*##o                 ",
"                           o%$&$$$$$$$o o>oo>>>=====oo==oo*##&o                ",
"                          o$oo$&$$$$$$o  o>>>>>=======o::>o%%##o               ",
"                         o$$&$$&&$$$$$o  o>>>>>:=======o=>o**&##o              ",
"                         *$$&$$&#&$$$$o  o>>>>>=:======o=oo*%####o             ",
"                        o$$$*$$*$*$$$$o  1o>>>>=::=====oo23o######o            ",
"                        o$$$*$*$$#$$$$o  13ooooooooooo45o35o######&            ",
"                        o$$$#$*$$$$$$$o  1334445562655555o4o#######o           ",
"                        o$$$$$#$$$$$$o   ooo344556226543oooo*######o           ",
"                        o$$$$$#$$$$$o    o777ooooooooooo5o>o*######o           ",
"                        o$$$$$$$$$$o    o8777777997707o45o>o*######o           ",
"                        ooooo$$$$*o     8q077799000770o54o>o**#####o           ",
"                       o..++Ooo$&      o7707777797700o353o>o***####o           ",
"                       .o@..@OXoo      07777777779777745oo>o****###o           ",
"                       o..++O@o.o     o77777777779w77o54oo>o*******o           ",
"                       .o@..@OXo     oo77777777779ww736o7o>o******&o           ",
"                       oX.++O.o@    o1o777777777779wo56o7o>oo&&&&&oXo          ",
"                      @o@@..@@Xo   o11o777777777779w36377ooo....XOOoo          ",
"                      o.X.+OOXo  oo11o o77777777779356o77o0ooo@@@..Xo          ",
"                      @ooooooo@  o3oo   oq77777777o55o777o0oo...XO@o.          ",
"                      o$$$$$$$oo o3o     o0777777o55ow7778oo.o@@@.OXo          ",
"                     o$$$$$$$$$o o33o    oo80777o45oww7770e@o...XO@o@          ",
"                     o$$$$$$#$$$o o33ooo o0o77o344o79ww777oo.@@@.XOXo          ",
"                     o$$$$$$#$$$&  o3344ooooo3444o779ww777o&&ooooooo*o         ",
"                     o$$$$$$*$$$&   oo3344444443o77779w7778&***&####*o         ",
"                     o&$-$$-&$-$&     ooooooooo77777799777qo***&#####o         ",
"                     o#&&&&&$$-*o      o0o77778777777797777o**oo%####o         ",
"                     o#&##&#&&#&o    8r0o777777877777797777o&o&&&%###o         ",
"                      o*#o##&##o    8000o777777707777797777ooooooo&&#o         ",
"                       ooo#o##o   o80000o77777777q77779777qo*&*&&*o##o         ",
"                          oooo   o0000000877777777q77777770o#&#&#&o#o          ",
"                                 o0000000o777777777777777787o&#&#&*o           ",
"                                 o00000000o777777777777778777ooooo#o           ",
"                                or000000rr0o77777977q0778777qo    o            ",
"                                o088rrrr0000877777977700777qo                  ",
"                                o0000000000o7877777997777311                   ",
"                                o000000000o7778077779997154o                   ",
"                                o00000000o7777770q7777o1614o                   ",
"                               ooo00000000o077777777oo3o534o                   ",
"                             o8qo1ooooooooo1o0q777oo34o4144o                   ",
"                           o8qqqo11111111o111oooooo344o3141                    ",
"                         o8qqqqq0o111111o1111ooqqqqoo3o314o                    ",
"                       o0qqqqqqq0o11111o1111o 8qqqqqqoo314o                    ",
"                     o0qqqqqqqqq00o111o1111o o0qqqqqqqqo31o                    ",
"                    oqqqqqqqqqqq000o1o1111o  oqqqqqqqqqqoo                     ",
"                    8qqqqqqqqqqq0000oo111o  o8qqqqqqqqq87o                     ",
"                   oqqqqqqqqqqqq0000o11oo   o8qqqqqqqq0777o                    ",
"                   8qqqqqqqqqqq000rrooo    o78qqqqqqq07777o                    ",
"                  8qqqqqqqqqq000rr0o       o770qqqqqq7777qo                    ",
"                 8qqqqqqqqqq008r00o       o8778qqqqq777qq8                     ",
"                 oqqqqqqq00088000o       oq8778qqqq777qqqo                     ",
"                oq8qqqq088880000o       oqq0770qqq7qqqqq8                      ",
"              o0qqq8888qqq0000oo       oqqqq0770qqqqqqq8o                      ",
"            o0qqqqqqqq0000oooo         oqqqqq770qqqqqq0qo                      ",
"         oo8qqqqqq0000oooo              0qqqq770qqqqqqqo                       ",
"     333300000000000000o                oqqqq7770qqqqqqo                       ",
"         3333000000000o                  8qqqq770qqqqqo                        ",
"       oooo..333333333                   oqqqq7770qqqqo                        ",
"     o.XXXo...@@.oo                       oqqqq770qqqq78                       ",
"    oXXXXXXo...oo                          oqqqq770qqq778                      ",
"   oXXXXXXX.ooo                             oqqqq770q777o                      ",
"   oXXXXXX.@.o                               oqqqqqqqqqo                       ",
"   oXXXXX@@.@                                 oqqqqqqqo                        ",
"   oXXX@@...o                                 oqqqqqq8                         ",
"   o@@@....o                                  oqqqqqqo                         ",
"   o.....@@                                  oqqqqqq4                          ",
"   o...@@.o                                 oqqqqqq4                           ",
"   o@@@..o                                 oqqqqq44o                           ",
"  o.....o                                 8qqqq44.@o                           ",
" o.....o                                 444444...o                            ",
" o...@o                                     o..@@@oo                           ",
" o@@@.o                                     oo....oXo                          ",
"  @...o                                    oXXooooXXXo                         ",
"  o..@o                                   oXXXX@XXXXX@oo                       ",
"   o@.o                                   oXXXX.XXXX@XXX@o        @            ",
"   o...@                                  oXXXXX@XX@XXXX@X.oo    .o            ",
"    ooooo                                 oXXXXX@XX@XXX@OOOO.oo@@Oo            ",
"                                          oXXXXX@XX@XXX@OOO.OOOOOo             ",
"                                           oooooooooooooooooooooo              ",
"                                                                               ",
"                                                                               ",
"                                                                               ",
"                                                                               ",
"                                                                               ",
"                                                                               ",
"                                                                               ",
"                                                                               ",
"                                                                               ",
"                                                                               ",
"                                                                               ",
"                                                                               ",
"                                                                               "
};
