/* XPM */
static char *_577641375703[] = {
/* columns rows colors chars-per-pixel */
"72 143 30 1 ",
"  c #8080FF",
". c #C08000",
"X c #F0B010",
"o c black",
"O c #F0D030",
"+ c #F0F070",
"@ c #804000",
"# c #E0A060",
"$ c #501000",
"% c #F0D0A0",
"& c #C08040",
"* c #905010",
"= c #F0E0C0",
"- c gray94",
"; c #505050",
": c gray44",
"> c gray19",
", c #408040",
"< c #60A060",
"1 c #F0C030",
"2 c #F0A010",
"3 c #C07000",
"4 c #F0E060",
"5 c #904000",
"6 c #90D090",
"7 c #70B070",
"8 c #F0F0B0",
"9 c #206020",
"0 c #601000",
"q c white",
/* pixels */
"                                                                        ",
"                                                                        ",
"                                                                        ",
"                                                                        ",
"                                                                        ",
"                                                                        ",
"                                                                        ",
"                                                                        ",
"                                                                        ",
"                                                                        ",
"                                     .    X                             ",
"                                     X X oOo . .                        ",
"                                    o+oOoOoOo+oX                        ",
"                                    oO+oO.oO.o+Oo                       ",
"                                    oXoOO+.O.OoOo                       ",
"                                    oXo.@@##OOoOOo                      ",
"                                   oXXoXOO$$$#%%#o                      ",
"                                 o@OXo%oX###$%&%*                       ",
"                               o@OOOoo%*##%*$%*#o                       ",
"                              @XO@Oo%%$%==%&-$$*o                       ",
"                             @Xoo@o%%&o%%%%%#%o                         ",
"                             oo;:@:%%&o%%%$%%%o                         ",
"                           oo;;:@:::o#o%%%*$$$o                         ",
"                          *%%%oooo:;o##o%%&*o                           ",
"                        o&%*&#==::o;o>>oo%%o                            ",
"                      o&%*&%=====:o;o>o  ooo                            ",
"                    o&%*&%%%======;o>o                                  ",
"                  oo*%*%%%%%==:::::;o                                   ",
"                 o#*%*%%%%%%:::***;**oo                                 ",
"                o#*%*%%%%%%:;*#===&===#o                                ",
"               o#*%*%%%%%%:;o%%====&==%%o                               ",
"               o*%%&%%%%%#;;o%%%===#==%%%o                              ",
"               o&%*%%%%%&%;;o%%%%===#=%%%*o                             ",
"               o%%*%%%%*%%;;o#%%%%%%#%%%%*%o                            ",
"               o%%*%%%*%%%;;>o##%%%%%%%%%&%&                            ",
"               o#%*%%%*%%%#>>>o##%%%%%%%%#%%o                           ",
"                *#o%%%*%%##>>>>o###%%%%%%%%#o                           ",
"               o*#o%%%&oo###>oo#**####%%%%#o                            ",
"               oo#o%%%%%%oooo>o%%%**######oo                            ",
"               o#*o%%%%%%%####o%%%%%*###*o&o                            ",
"                &o#*%%%%%#####o%*%%%%***%%o                             ",
"                o#oo#%%#######o#$%%%%%&%%%%o                            ",
"                 o#o*#########o#&$%%%%%#%%%*                            ",
"                 *o#o*#########o&#$*%%%%#%%#o                           ",
"                 *#*&oo#########o##&**%%*###o                           ",
"                o##&&&&o#######>>o##*%%%%*#&o                           ",
"                o#*&&&&$oo####>>>o#%&%%%%o&o                            ",
"                o*##&**$**oo>>>>>o#%%&%%%%oo                            ",
"                *###&&&*$o ooo>>>o#%%&%%%%%o                            ",
"               o####&&&&*&o o>>>>>o%%%%%%%%%o                           ",
"               o####&&&&*&o o>>>>>o%%%%&%%%%%o                          ",
"               o&##&&&&&*&&o o>>ooo=%%%*%%%%%%o                         ",
"               o&&&&&&&&*&&o oo,<<oo==$$%%%%%%&                         ",
"               o&&&&&&&&&&&o o,<<<o#oo%%$*%%%%%o                        ",
"               o&&&&&&&*&&&o o,,ooo#o#%%%%*&#%%o                        ",
"                *&&&&&*&&&&o ooo11o##$%%%%%*%#%o                        ",
"                o&&&&*&&&&o o,o111o###&%%%%%&%%o                        ",
"                @oo&&&&&&oo o,o1111*##*%%%%%%&%o                        ",
"                oXOoooooo.o oo11111o##%&%%%%%%%o                        ",
"                 o.OX...Xo o,o111111o##%&%%%%%%#o                       ",
"                 @O.@@@oo.ooo11111211o#%%#%%%%%oo                       ",
"                 o@OX...Xoo,o111121111o#%%#%%ooOO.                      ",
"                  .@@@@oo.oo11113131113o%%%oo++X.O.                     ",
"                  oOX...Xo,o111313111314o%o.+@X+X@@o                    ",
"                  .@@@@ooo,o1151511113141o.oo+@X++X@o                   ",
"                  oOX...Xo,<o51511113144o,o.Xo++@X+OXo                  ",
"                  ooooooo&o,<o51111314o,<<o@o.X@++oooo.                 ",
"                  o###&o&&&o<<oooooo,<67<o1oo.oXOo%%%%&o                ",
"                  o###&o&&o1o<<<<776667,o121oo.oo%%%%%%%*o              ",
"                  o###*o*o11ooooooooooo11213o3o%%%%%%%%%%#o             ",
"                  o*&*o*oo1o111311188411121533o%%%%%%%#%=*&o            ",
"                  o&oo&o&oo1113111184111214o33o#%%%%%%%*=%*o            ",
"                   o#o#o#o11121111841112183o33o##%%%%=*&*##o            ",
"                   o&o&oo1111111184111318453333o#%%=&**#o&#o            ",
"                    oooo111111114111131441o33333o%&*o#o#o*#o            ",
"                       3111111141111311415o333333o#*o#o&o*#o            ",
"                      o1111111111113114115o333333o#o2ooo&*&o            ",
"                      o1111111111131141131o3333333o22222ooo             ",
"                      o2111111111311111311o3333333o22222oo              ",
"                       3111111133111123111o3333333o22o22o,o             ",
"                      o521111131111121111o o333333o22o22o7,             ",
"                     o125111331141221111o  oo3333o222o2oo<7o            ",
"                    o111153311441111113o  o33o333o22o22o,97o            ",
"                    o1113311444111111o    o333o32222ooo,,9<o            ",
"                     31111444111111oo,o    oo3332222o,,,,o,o            ",
"                     o11111111111oo96<o      oo3333o99999o,o            ",
"                      311111111oo,,96,        ooooooo9999o9o            ",
"                      o11111ooo<<<967o       o3033333oo99o9o            ",
"                      oooooo<<<<<977o        o320333322oooo             ",
"                     o31oo,,,,,,9<<o         o330333322222o             ",
"                   o311111ooooo9,,o          o3320323322222o            ",
"                 o311111111222o,,o           o3322032333222o            ",
"               o31111111122222ooo           o3333253223333o             ",
"              o111111112222233o             o333322532253o              ",
"             o111111122222232o             o0333332252220o              ",
"             o11111222222332o             o30333333225222o              ",
"            o11112222222312o              o33533333222222o              ",
"          ooo22222222233125o               o35333333222222o             ",
"         o11o22222225511552o               o33533333322222o             ",
"         o11222225551113122o                o33333333322222o            ",
"         o11155551111331222o                o3333333333222o             ",
"         o111111111331122oo                  o33333333333o              ",
"         o1111112331122oo                     o333333333o               ",
"         o11122221122oo                        o3333333o                ",
"         5222211122oo                           o333333o                ",
"        o111111222o                             o333333,                ",
"       o111122222o                             o33333333o               ",
"     o51122222222o                             o3333333,                ",
"  <<o2222222222<<                             o333333,,                 ",
"    <<<<<<<<<<<                              o3333,,,@o                 ",
"     o@.....o                               ,,,,,,@@@.o                 ",
"   oo..@@@@o                                   oo.....oo                ",
" o@Oo.....o                                   o..ooooo..o               ",
"oOOOoo...o                                    o...o......o              ",
"OOOO@Xoooo                                   o.....o....@@o             ",
"OOOO.XXXXo                                   o.....o...@...o            ",
"OOO.XXXXXXo                                  o.....o..@.....o           ",
"OOO@XX@@@@o                                   oo...o..@....@@o          ",
"oO@XX@XXXXXo                                    ooooooo...@XXXoo@       ",
" ooo@XXXX@@@o      @                                   oooXXXX@XX@@.@@  ",
"    oXXX@XXXXoo   .o                                      ooo@XXXXXoo   ",
"    oXX@XXXX@@Xo@.Xo                                         oooooo     ",
"     oX@XXX@XXXXXXo                                                     ",
"     ooooooooooooo                                                      ",
"                                                                        ",
"                                                                        ",
"                                                                        ",
"                                                                        ",
"                                                                        ",
"                                                                        ",
"                                                                        ",
"                                                                        ",
"                                                                        ",
"                                                                        ",
"                                                                        ",
"                                                                        ",
"                                                                        ",
"                                                                        ",
"                                                                        ",
"                                                                        ",
"                                                                        ",
"                                                                        ",
"                                                                        "
};
