/* XPM */
static char *_577641498576[] = {
/* columns rows colors chars-per-pixel */
"79 129 31 1 ",
"  c #8080FF",
". c #C08000",
"X c #F0B010",
"o c black",
"O c #F0F070",
"+ c #F0D030",
"@ c #804000",
"# c #F0D0A0",
"$ c #501000",
"% c #E0A060",
"& c #C08040",
"* c #905010",
"= c #F0E0C0",
"- c gray94",
"; c gray44",
": c #505050",
"> c gray19",
", c #A0A0A0",
"< c #B0F0B0",
"1 c #70B070",
"2 c #408040",
"3 c #60A060",
"4 c #90D090",
"5 c #F0C030",
"6 c #F0E060",
"7 c #904000",
"8 c #C07000",
"9 c #F0F0B0",
"0 c #F0A010",
"q c #206020",
"w c white",
/* pixels */
"                                                                               ",
"                                                                               ",
"                                                                               ",
"                                                                               ",
"                                                                               ",
"                                                                               ",
"                                                         .  X X .              ",
"                                                         oXoOo+ X + .          ",
"                                                         oO@OX+oO@+X.          ",
"                                                        oXO+@+o.O+o+o          ",
"                                                        o+@O+Oo+O.o+o          ",
"                                                        o++@@@#++.++o          ",
"                                                      oo@XoXo$$%###+o          ",
"                                                   o@.X+oo#o%%$##&#*           ",
"                                                  oXX++o#o#o%%*$#*%o           ",
"                                                  oo+@o##$*#=#*-$$o            ",
"                                                  o;@o##&o###=#%#o             ",
"                                                *&;;o###&o##$####o             ",
"                                              *&==o;;;#&#o##&$$$o              ",
"                                             %===%;o;::&#%o##**o               ",
"                                           *&#===&:o:::o>>oo##o                ",
"                                          o#ooooo:::o::o>o  oo                 ",
"                                         o#o#====%o::o:o>o                     ",
"                                        o#o##=====#*o:oo>oo                    ",
"                                       o#$%##======&ooooo>oo                   ",
"                                      o#o$###=====#%#&o;,o>o*o                 ",
"                                     o#o%$#########%##o::,o>o%o                ",
"                                     &#o%#%###########o::>;o,o%o               ",
"                                    o##o%#%##########%o:>::>::o&               ",
"                                    o%#*o###########%*:>::::>:o%o              ",
"                                    o$%&#o%#######%%%oo:::::>::oo              ",
"                                    o%*###*%%%%%%%%%oo::::::o::oo              ",
"                                    o%*####*%%%%%%*oo>>:::::o>o%o              ",
"                                    o%o$####*%***o&ooo>>>::o>o*o               ",
"                                    o%o$####%#%%%%&o>>ooooooo&o                ",
"                                    o%o%*####%##%%%oooo::;,,o&o                ",
"                                     o*%*####%##%%%o>o:::::;o&*                ",
"                                     o*%&####&##%%&oo>>:::oo&&&o               ",
"                                     *##&####*##%%o>>>>>>o>o&&%o               ",
"                                     &#######$#%%&o>>>>>o>o&&&%*               ",
"                                    *########$%&*o>>>>>oo>o&&&%%o              ",
"                                    &#########ooo>>>ooo>o>:o&&%%*o             ",
"                                   $=##%######o>>oo::::oo>;;o&&$%*             ",
"                                  o$==&#######ooo>>;:::::o;::oo&%%o            ",
"                                 o#ooo$#######o>>>>;::::::o::ooo%%%o           ",
"                                 *$###$#######o>>>>:;::::::ooo<1o%%*           ",
"                                o#$###*######%o>>>>:;;::oo2113o3o%%%o          ",
"                                *#*##*&######*>>>>>>oo21<41113o2o%%%%o         ",
"                               o%#*##*#&#####oooooo3114<<412oooo&%%%%*         ",
"                               o%#&##&######oo2233311432ooo555o2&%%%%%o        ",
"                               o%#%##%#####o  o2332oooo5565555o2&%%%%%o        ",
"                               o%####%####o   oooo55555565555o3o&&%%%&o        ",
"                                o#ooooooo%o   o7855555565555523o&&&&&*         ",
"                                ooX..OO+Xo   o55588555556955o3o&&&&&&o         ",
"                                @Xo@@@X.o.  o85555588055569523o&&&&&o.         ",
"                                ooX..OO+Xo oo55555555555569o13o****oXo         ",
"                                 .o@@.X.o.oqo5555555555556o41oo...XXo          ",
"                                 oX..OO+Xoqqo855555055555o44o7ooo@@@.          ",
"                                 .o@@.X.o.qo 75558055555o14o57o...XXo          ",
"                                 oXX.O++Xoo  o85855785o211o985ooo@@@.          ",
"                                 .oooooooo@   o757855o311o6985o...XXo          ",
"                                oo########o  o8o755o2332o56855ooo@@@.          ",
"                                o##########oo8o05o2333o5556855o...XXo          ",
"                                &#####%####o2ooo2333oo55558955oooooo%o         ",
"                               o######%####o222333oo55055589555o&&&%%%o        ",
"                               o######%####oo222oo5555055869555o*&&%%%o        ",
"                               o##=###&###%o8ooo555550555095555oo&&%%*         ",
"                               o**&##=*#=*%o8o55555505550695558o*o&*%o         ",
"                                o%o****#=*o88875555585505955557ooo*%%o         ",
"                                 oo%o%%*%o8888o555585555565555o&*o%%&o         ",
"                                   ooooo%o8888o555855555655558&*&o%*o          ",
"                                        oo888o7007555556555557%*%*oo           ",
"                                         o88875775555555555585ooo*%o           ",
"                                        o78o7555555565555555055o ooo           ",
"                                        o7o0555555665555555055o                ",
"                                        o8o55566666555555q22qo                 ",
"                                        o887555666555555q444q                  ",
"                                        o88o55555555555q311q3o                 ",
"                                        ooooo55555555oo223q33o                 ",
"                                       ooqqqqo5555ooo2o222q32                  ",
"                                    ooo88ooqqqoooo2233o22q33o                  ",
"                                  o70008888ooo800oooooo22q32                   ",
"                                o70000088888o800555000o22q3o                   ",
"                              o800000008888o8005550000o222o                    ",
"                            o80000000008888700550000000oooo                    ",
"                           o00000000000888o000000000000o                       ",
"                          o00000000000088o0000000000007                        ",
"                          o000000000000887000000000000o                        ",
"                          80000000000087o0000000000007                         ",
"                         o000000000077787000000000000o                         ",
"                         70000000877088o8000000000008o                         ",
"                        o000008880088ooo00000000000075o                        ",
"                      o777788000088oo  o00000000000855o                        ",
"                  o77800000000088oo    o00000000008555o                        ",
"              777800000000000888o     o570000000005550o                        ",
"             222000000000000088o      8580000000055507                         ",
"              2822200000000008o      7555700000055500o                         ",
"               2882222000000oo      o055580000000000o                          ",
"            oooooo..@.222222         o0555800000000o                           ",
"         oo@XXXXXo...@.@oo            o055500000007                            ",
"        oXXXXXXXXXo..@oo               o0055000007o                            ",
"       o::XXXXXXXXo.oo                  o00055007o                             ",
"       o::XXXXXXXXoo                     o0000080o                             ",
"       o::XXXXXXXoo                       o0000003                             ",
"       o::XXXXXooo                        o0000000o                            ",
"       o:oXXooo..o                        o0000033                             ",
"       ::ooo....o                        o000003o                              ",
"      o::.....@o                         800003@o                              ",
"      ::o...@@o                         700003..o                              ",
"     o::@@@@o                          700033@@@o                              ",
"    o::o..oo                          33333.....o                              ",
"   o:::..o                               o.....oo                              ",
"  o:::o@o                               oXoooooXXo                             ",
"  o:::.o                               oXXX@XXXXXXo                            ",
"  o::o.o                               oXXXX.XXXX@.oo                          ",
"  o::@@o                               oXXXX.XXX@XXXXoo         @              ",
"   oo...@                              oXXXX@XX@XXXXX@.ooo     Xo              ",
"    oooooo                             oXXXX@XX@XXXX@+++++@ooo@+o              ",
"                                       oXXXX@XX@XXXX@++++@+++++o               ",
"                                        ooooooooooooooooooooooo                ",
"                                                                               ",
"                                                                               ",
"                                                                               ",
"                                                                               ",
"                                                                               ",
"                                                                               ",
"                                                                               ",
"                                                                               ",
"                                                                               "
};
