/* XPM */
static char *_577641480330[] = {
/* columns rows colors chars-per-pixel */
"79 129 33 1 ",
"  c #8080FF",
". c #C08000",
"X c #F0B010",
"o c black",
"O c #F0D030",
"+ c #F0F070",
"@ c #804000",
"# c #E0A060",
"$ c #F0D0A0",
"% c #501000",
"& c #C08040",
"* c #905010",
"= c #F0E0C0",
"- c gray94",
"; c #505050",
": c gray44",
"> c gray19",
", c #A0A0A0",
"< c #C0C0C0",
"1 c #B0F0B0",
"2 c #70B070",
"3 c #408040",
"4 c #60A060",
"5 c #90D090",
"6 c #F0C030",
"7 c #F0A010",
"8 c #F0E060",
"9 c #C07000",
"0 c #F0F0B0",
"q c #206020",
"w c #904000",
"e c #601000",
"r c white",
/* pixels */
"                                                                               ",
"                                                                               ",
"                                                                               ",
"                                                     .  X                      ",
"                                                     Xo O .                    ",
"                                                    oO+o+oXo .  .              ",
"                                                    oX+O+O.+@X @X              ",
"                                                   oO@X+O@+O@OoOX              ",
"                                                   oOX@@O@+.@OOO@              ",
"                                                  oXOO.O@OO.OoOOo              ",
"                                                  oX.oOO###OOXOXo              ",
"                                               o@o@.o$o#%%%$$$$#o              ",
"                                             o@XoOooo$o##&%$$#$*               ",
"                                            oXXoOo$$%*$=$*-%$&$o               ",
"                                            oo@Oo$$&o$$$=$**%%*o               ",
"                                           *&@Xo$$&#o$$$$$$#$o                 ",
"                                         *&==;o:$$&#o$$$*$$$$o                 ",
"                                       *&====o::;o###o$$#***o                  ",
"                                     *&====$#o:;;o>##&o$$&o                    ",
"                                 oooooo===$&*o;;;o>>>ooooo                     ",
"                               o&$$====&*o;;;;o;;o>>oo                         ",
"                              o$$$====&=$$ooo;;o;o>o>o                         ",
"                             o&$$$===#==$$$o;oooooo>>o                         ",
"                            o$&$$$==#==$$$$#o;;;::o>>oo*o                      ",
"                            o$#$$$$$$$$$$$##o;;;>;,oo:;o#o                     ",
"                           o*$#$$$$$$$$$$##*;;;>;;;::;>;o#o                    ",
"                           o*$$#$$$$$$$####o;;>;;;;;>;;>>o#o                   ",
"                           #*#$$$$$$$#####o;o>;;;;;;;>;;;o##o                  ",
"                          *$$*###########ooo;;;;;;;;;>;;;;o#*                  ",
"                          *$$$*&##****oooo>>>;;;;;;;;>;;;;o##o                 ",
"                         *#$$$$$&$$$$$$o>>ooo>>>;;;;;o;;;;o&#o                 ",
"                         *#%$$$$#$$$$$$o>o>>ooooooooo>oo>o&&&o                 ",
"                         &$%$$$$#$$$$$*o>>oo;;;;;::,,;<:o&*&o                  ",
"                        *$$*$$$$&$$$$$o>>>o;;;;;;;;;;o:;o#*o                   ",
"                        &$&$$$$$*$$$$*o>>o>;;;;;;oooo>>o&##o                   ",
"                       *$$&$$$$$*###&o>>o>>>;;ooo;;o;oo&&##o                   ",
"                       &$#$$$$&$o##&o>>o>>>>>>>o;;;o;o&&###o                   ",
"                      *$$#$$$$$*o#oo>>>>>>>>>>>o>>o>>o&&###*                   ",
"                     o=$#$$$$$$$oo>>>>>>>>>>>>o>>>o>>o&&###&o                  ",
"                     o=$*$$$$$$$o o>>>>>>>>>>>o>>>o>>o&&####o                  ",
"                    o*o=o$$$$$$$* o>>>>>>>>>>o>>>>>o;o&&####o                  ",
"                    o*$$$o$$$$$$*  o>>>o>>>>o>oo>>;;o;o&####oo                 ",
"                   o#*$$$**$$$$$*   o>o>>>>o;;;;oo;::o>o###%*&o                ",
"                   *#&$$$*$#$$$$*    oo>>>>>:;;;;;o:;;>>o*%*###&*              ",
"                  o##&$$$&$$$$$$o     o>>>>>::;;;;;o;;oooo&*#####*             ",
"                  o##&$$$$$$$$$$o    oo>>>>>;::;;;;o;o12o&o*######*            ",
"                  o##$#$$$$$$$$o     o3oooooooooooooo332o&o*######&            ",
"                  o&#$#$$$$$$$o       o34444225115222o34o&&*#######o           ",
"                   o#$$$$$$$$*        ooooooooooooooooooo&&*#######o           ",
"                   oooooooo$&o        o66666777886697o>>o&&*#######o           ",
"                   o..++OOXoo         o6666888679966o4o>o&&*#######o           ",
"                  oXo@...@o.o         o6666666866699o4o>o&&&&######o           ",
"                  oo..++OOXo@         o6666666686666o4o>o&&&&######o           ",
"                  oXo@...@o.o         9666666666066632o>o&&&&&oooooo           ",
"                   oX.++OOXoo        o6666666666806642o>>o&&oo.OOOX.           ",
"                   @oo...@o.o        o6666666666800o55o>>o&o..o@.OOo@          ",
"                   oX.++OOX.o       oq96666666666804537o>oo.oo.OO..@o          ",
"                  oXoooooooo@       oqo96666666668o25o6wo9oo..o@.OOXo          ",
"                  oo$$$$$$$$&o     oqqoo9666666668324666o7o.oo..O..@o          ",
"                  o$$$$$$$$$$#o    oqo o697666666o22o066w9o o.o@@OOX.@         ",
"                  o$$$$$$#$$$$o   oqqo ow6677666632400666o  @o..Xooooo@        ",
"                  o$$$$$$#$$$$o   oqo o99w966666o22o80866w   @ooo#*###&o       ",
"                  o$$$$$$&$$$&*  o3oo o99o6w966o24o6800667w  o*###*#####o      ",
"                  o#$=$$=*$$=*#o o3333oooo6666o44o66680666w  o#####*#####o     ",
"                   o***&=$$$=*#o  oo334433ooo444o666680666w  o#####oooo##o     ",
"                   o#*#*****#oo    ooooo4444443o6666660666o   &###o****o#*     ",
"                   o#o#o#o*##o    o99999ooooooo66666668666o   o&&*o****o##o    ",
"                    oooo#o*#*    o9999999o6w66666666666666o    **oooooooo#o    ",
"                        o o&o    o999999o666w6666666666666o    o#*&*&*&**o     ",
"                           oo    o999999o6666w666666666666wo   o#*o#o#**&*     ",
"                                 o9999999o6666966666666667w69o  ooo#o#*oo#*    ",
"                                 o999999e9w666696666686669666o    oo oo o#o    ",
"                                oe99999e9o696666966668667666o            o     ",
"                                oe999ww99o66976667666866666o                   ",
"                                o9www9999o6666976676688663q4o                  ",
"                                o99999999oo6666666666888q5543o                 ",
"                                o9999999999oo6666666668oq2q44o                 ",
"                                oo99999999wwwoo6666679o3q4q44o                 ",
"                              oooqoo9999wwooo  ooooooq34q3q44o                 ",
"                            ow777oqqooooooqqqo  oooo3344q33q4o                 ",
"                          ow77777oqqqqqoqqqoqo  o777ooo33q3q4o                 ",
"                        o977777777oqqqoqqooqo  o7w77666ooo33qo                 ",
"                      o977777777779oqoqqoqqo   ow797766666o33o                 ",
"                     o77777777777799oqqoqoo   o7w7777776666oo                  ",
"                    o7777777777779eeoqooo     o76w77777776666o                 ",
"                   o777777777777ww99ooo       w76w7777777777o                  ",
"                  o77777777779ww779o         o7766w77777777o                   ",
"                  977777779997777wo          o777697777777oo                   ",
"                 o7777799977777eeo           w9776697777777o                   ",
"                o977777777777we9o           w7w777669777777o                   ",
"              eew777777777wwe79w           o777977669777777o                   ",
"              o7w777777www77799o           o777977766977777o                   ",
"              o77wwwwww7777999o             977777766697777o                   ",
"              w7777777777999wo              o77777776669777wo                  ",
"             w977777779999wo                 w777777666697796w                 ",
"           ew99999999999wo                   o77777776666776669                ",
"        3ew9999999999woo                      o777777666667666o                ",
"      ooo33399999999o                          o77777766666669                 ",
"    o.XX@..@33333333                            o777777766667o                 ",
"   oXXXX@...@@.oo                                o7777777777o                  ",
"  oXXXXXXo...oo                                   o777777774                   ",
"  oXXXXXX@oooo                                     o7777777o                   ",
"   @XXXXX@...o                                      o77777774                  ",
"   oXXXX@....o                                      o7777774                   ",
"    oX@@....@o                                      w777774                    ",
"     o.....@.o                                     o777774o                    ",
"      o..@@..o                                     w77774@o                    ",
"      o@@...@                                     o77744@.o                    ",
"      o.....o                                     9744....oo                   ",
"      o....@o                                    444XoooooXXo                  ",
"      o...@.o                                      oXX@XXXXXXoo                ",
"      o@@@...o                                    oXXXX.XXXXX@.@o              ",
"      o.....@.oo                                  oXXXX@XXXX@XXXX@o       @    ",
"       o...@....@@                                oXXXX@XXX@XXXXX@.ooooo@.o    ",
"        ooooooooo                                 oXXXX@XXX@XXXX@OOOO@OOOOo    ",
"                                                  oXXXX@XXX@XXX@OOOO@OOOOo     ",
"                                                   oooooooooooooooooooooo      ",
"                                                                               ",
"                                                                               ",
"                                                                               ",
"                                                                               ",
"                                                                               ",
"                                                                               ",
"                                                                               ",
"                                                                               ",
"                                                                               ",
"                                                                               ",
"                                                                               ",
"                                                                               "
};
