/* XPM */
static char *_577641503801[] = {
/* columns rows colors chars-per-pixel */
"69 129 32 1 ",
"  c #8080FF",
". c #C08000",
"X c #F0B010",
"o c #F0D030",
"O c black",
"+ c #F0F070",
"@ c #804000",
"# c #501000",
"$ c #E0A060",
"% c #F0D0A0",
"& c #C08040",
"* c #905010",
"= c #F0E0C0",
"- c gray94",
"; c #505050",
": c gray44",
"> c gray19",
", c #A0A0A0",
"< c #408040",
"1 c #60A060",
"2 c #B0F0B0",
"3 c #90D090",
"4 c #70B070",
"5 c #F0C030",
"6 c #F0E060",
"7 c #F0A010",
"8 c #F0F0B0",
"9 c #C07000",
"0 c #904000",
"q c #206020",
"w c #601000",
"e c white",
/* pixels */
"                                                                     ",
"                                                                     ",
"                                                                     ",
"                                                                     ",
"                                                                     ",
"                                                                     ",
"                                              .  .  X                ",
"                                              .X X  o X .            ",
"                                              OoO+@OoOo X            ",
"                                              O+O+o@oO+OoO           ",
"                                              O+X@+Xoo@XoO           ",
"                                             OXoX.@oo.Oo.oO          ",
"                                             OX.@oo@XoOXOoO          ",
"                                           O@.oXX.X##$%%%&O          ",
"                                         OO.ooXX.X$$#%%&%*           ",
"                                        OX@oo@OO%O$$&#%*$O           ",
"                                       OX@o@O%%O%O=%*-##O            ",
"                                      OXOOO%%%&$#%%=%$%O             ",
"                                     OOO;O::%%&$O%#%%%%O             ",
"                                    *$=:O:::;O$$O%&###OO             ",
"                                   &%==:O:::;O>$O%%**O               ",
"                                  &%===::O:;;O>>OO%%O                ",
"                                 &%%====:O;;;O>O  OOO                ",
"                                *%%%=::::;O;;;O                      ",
"                               O#&%;*&&&**;O;;O                      ",
"                              O%%%;*%=====*OOOOOO                    ",
"                             O%%;;*%%======*%O;OOOO                  ",
"                             &%;;O*%%======&%%O:O;OO                 ",
"                            O%%;O%*%%%=====$%%$O,O>OO                ",
"                            O%%O$%&%%%%%%%%$%%$O;:O>O                ",
"                            O%%O$%&%%%%%%%%%%$$O;;;>OO               ",
"                            O$$O$%$%%%%%%%%%$$*>>;;;OO               ",
"                            O#$>O$%$%%%%%%%$$$O>>;;;OO               ",
"                            O$#O$O$%%%%%$$$$$O>O>>;;OO               ",
"                            O$$O%%*$$$$$$$$$OO>>O>>;OO               ",
"                            O$$O*%%**$$****O$OOO;OOOO                ",
"                             &$O#%%%%*&$$$$$$O>;;::,O                ",
"                             O&O$#%%%%*%%$$$$O>;;;;OO                ",
"                              O&O$#%%%%$%%$$$O>>;;O&O                ",
"                               OO$*%%%%$%%%$$O>>>OO&O                ",
"                               OO%*%$%%%$%%$*>>>O>O&O                ",
"                                O%%%$%%%&%%&O>>O>O&&*O               ",
"                               O*%%$%%%%O$&O>>O>>O&&*$               ",
"                               O$%%&%%%%O&OOOOOOO>O*&$O              ",
"                               O=%&%%%%%$O>>;;;;;O>O&$*              ",
"                              O*==#%%%%%%*>>:;;;;;O;O$$O             ",
"                              O$OO%#%%%%%%O>::;;;;;O;O$*             ",
"                              *$#%%%#%%%%%*>;::;;OOOOOOOO            ",
"                             O&$*%%%&*%%%%%O;:O<123344O2O            ",
"                             O$$*%%%&*%%%%%OO<43223344O4O            ",
"                             O$$$&%%&%&%%%%O14431<OOOOO<O            ",
"                             O$$$&%%$%&%%%*111<OO5655O1O             ",
"                             O$$$&%%$%%%%$OOOO5557655O1O             ",
"                             O&$$%$%%%%%%*O5555557655O1O             ",
"                              *$$%$%%%%%$O555555758555<O             ",
"                              O&$%$%%%%%O5555557558575<O             ",
"                               O$%OOOOOOO5555557586575<O             ",
"                               OOO...++oXO555595585765<O             ",
"                               OXXO@@..@O.O55055665985<O             ",
"                               @OO...++oXOO50555657685O1O            ",
"                               O.XO@@..@O.O05556559685O1O            ",
"                                OOXX.++oXOO55565595685O1O            ",
"                                O.OO@..@O.O55555505865<1O            ",
"                                 O@X.o+oX@O5555505585<41O            ",
"                                 O.OOOOOOOOO5550556O<34O             ",
"                                  O&%%%%%%%%O5055O<433O              ",
"                                  O%%%%%%%%%%OOO<444<OO              ",
"                                  O%%%%%$%%%%O1111<O65O              ",
"                                  O%%%%%$%%%%&OOOO6785O              ",
"                                  O%%%%%$%%=%$O5557685O              ",
"                                  O$=%%=&%==*$O5576855O              ",
"                                  O&$*$****$*$O5956650               ",
"                                   OOOO$$O$$$O59566550               ",
"                                    O99OOOO&&O95565505O              ",
"                                    O955555OO955655595O              ",
"                                  O05055559955565559555O             ",
"                                 O555055005555655595555O             ",
"                                 O55550055555555575555O              ",
"                                 O555555555555555555OO               ",
"                                  9555555555555555OO                 ",
"                                  O5555555555555OO31O                ",
"                                   O555555555OOO<q33O                ",
"                                   OO55555OOO<<<q44O                 ",
"                                  OqOOOOOO<<<1<q11O                  ",
"                                OO9O55O<11111<q<<O                   ",
"                             OO099O5555OO<<<<q<<O                    ",
"                           O07799O5555557OO<q<<O                     ",
"                          O77779O7555577777OOOO                      ",
"                         O77777O777777777770O                        ",
"                        O77777O777777777770O                         ",
"                       O77777O7777777777707O                         ",
"                    OOO77777O77777777777070                          ",
"                   O70777777O7777777779077O                          ",
"                   O77077777O7777777797779O                          ",
"              <<OOO09770009O07777777977770w                          ",
"              q9<<777997777O077777797777059                          ",
"               qq9<<777799O59777777777705559                         ",
"                 OO@<9999O557977777777795550                         ",
"          OOOOOOO...@<<99O55577777777795557O                         ",
"         O;OXXXXXO...@.<99O757777777795557O                          ",
"        O;;OXXXXXXO..@.O<<O77577777775577O                           ",
"        ;;;OXXXXXXO..OO    O777777775777O                            ",
"       O;;;XXXXXX.OOO       O7777777777O                             ",
"       O;;OXXXXX.OO          077777777O                              ",
"       O;OXXXXOOO            O0977777O                              O",
"      OOOXXOOO.O             O97777771                              ;",
"     O;OOOO...O              077777777O                            O;",
"   O;;;O....@O              O777777711                             ;;",
"  O;;;O...@OO               07777711O                             O;O",
"  O;;O@@@@O                0777111.O                              ;O.",
"  O;O...@O                07111...@O                              O.@",
"  OO..@OO                111 O@@@@O                               O..",
"  O...O                      O....O                                O.",
"  O@@O                      O.....O                                 O",
"  O.O                      OXOOOOOXO                                 ",
"  O.O                      OXX@XXXXXO                                ",
"   OOO                    OXXXX.XXXX@OO                              ",
"                          OXXXX.XXX@XXX@O                            ",
"                          OXXXX@XX@XXXXX@OO      @                   ",
"                          OXXXX@XX@XXXX@oooOOOO@.O                   ",
"                          OXXXX@XX@XXX@oooo.oooooO                   ",
"                           OOOOOOOOOOOOOOOOOOOOOO                    ",
"                                                                     ",
"                                                                     ",
"                                                                     ",
"                                                                     ",
"                                                                     ",
"                                                                     ",
"                                                                     "
};
