/* XPM */
static char *_577641510955[] = {
/* columns rows colors chars-per-pixel */
"67 129 31 1 ",
"  c #8080FF",
". c #C08000",
"X c #F0B010",
"o c #F0F070",
"O c black",
"+ c #F0D030",
"@ c #804000",
"# c #E0A060",
"$ c #501000",
"% c #F0D0A0",
"& c #C08040",
"* c #905010",
"= c #F0E0C0",
"- c gray94",
"; c gray44",
": c #505050",
"> c gray19",
", c #408040",
"< c #70B070",
"1 c #B0F0B0",
"2 c #90D090",
"3 c #60A060",
"4 c #F0C030",
"5 c #F0E060",
"6 c #C07000",
"7 c #F0A010",
"8 c #F0F0B0",
"9 c #904000",
"0 c #206020",
"q c #601000",
"w c white",
/* pixels */
"                                                                   ",
"                                                                   ",
"                                                                   ",
"                                                                   ",
"                                          . X  X                   ",
"                                          X oO +O .                ",
"                                         OoO+oO+oO+O .             ",
"                                         Oo+Xo+Oo+@+OX             ",
"                                         O+o.@@++X@++X             ",
"                                        O+Xo+.+@+@+O++O            ",
"                                        O++X..+##@+OX+O            ",
"                                        OXXOXX#$$#%%%&             ",
"                                     OOO@XO%O###$%%&%*             ",
"                                    OXX++OO%O##%*$%*#O             ",
"                                   OX@+@O%$*%==%&-$$O              ",
"                                  OX@+O%%%&O%%%%##%O               ",
"                                  OO+O;%%&#O%%$%%%%O               ",
"                                 *OOO;;;%&#O%%*$$$OO               ",
"                                *#=;;O;::O&&O%#**O                 ",
"                               &%===;;O::O>>OO%%O                  ",
"                              &%=====:O::O>O  OOO                  ",
"                             *%%==;;;;;O:OO                        ",
"                            *#%%;;*&&&&*O:O                        ",
"                           *#&&::*%=====#OO                        ",
"                           *&%::*%%======%*O                       ",
"                          *%%%:O*%%%=====%%*O                      ",
"                         *%%%:O%*%%%%===%%%&#O                     ",
"                         O%%%:O%&%%%%%%%%%%#%OO                    ",
"                         O%%%:O#%&%%%%%%%%#%%O;O                   ",
"                        O$%%%:>*%#%%%%%%%%#%#O:;O                  ",
"                        O$####>O#%#%%%%%%%%##O>:O                  ",
"                        O%$###>&O%%#%%%%%%##&O>>:O                 ",
"                        O%#$$$O%%*%%%%%%###&OOO>>O                 ",
"                         &####O#%%*#######*O>::OO                  ",
"                         *####O*%%%*##***O#O>:;;:                  ",
"                         O####O$%%%%&%%####O>:::O                  ",
"                          *###O#$%%%%#%%###O>>:O                   ",
"                          O####O#*%%%#%%%##O>>>O                   ",
"                           O###O##*%%#%%%##O>>O                    ",
"                            O&#O%#*%%%&%%#&O>OO                    ",
"                            O>>O%%*%%%*#%#OOOOO                    ",
"                             O>O%%%%%%%O#O>:::OO                   ",
"                              OO%%%%%%%OO>>::::OO                  ",
"                               O=%#%%%%%O>>;::::OO                 ",
"                               O=%&%%%%%#O>;::::O>O                ",
"                              O#O%&%%%%%%&O;;:OOOOOO               ",
"                              *#$O*%%%%%%%*O,<112<O1O              ",
"                             O##*%$%%%%%%%%O<123,OO<O              ",
"                             O##*%%$$%%%%%%OOOO4546O               ",
"                             O###&%%#&&%%%%O4444546O               ",
"                             O###&%%%#%#%%#O4447564O               ",
"                              *##%#%%#%%%%*44474864O               ",
"                              O##%#%%%#%%#O44645864OO              ",
"                               *#%%#%%#%%O449458754OO              ",
"                               O#%%#OOOOOO494485684OO              ",
"                                O%OO..oo+O944554684OOO             ",
"                                OOX.O@..@XO4454685O6O,             ",
"                                O.OO..oo+OO4544685O6O,             ",
"                                OOX.O@..@XO4447486O6O3O            ",
"                                O.@O..oo+@O4447556O6O3O            ",
"                               O3OOXO@..@OXO474564OO33O            ",
"                               O3O@OX.+o+XOO444564O<3O             ",
"                               O,OOXOOOOOOX@O44OO,<3O7O            ",
"                                OO@O%%%%%#OOOO,32<3O77O            ",
"                                 OO#%%%%%%%%&O<22,O677O            ",
"                                O4O#%%%%%%%%%#OOO4O677O            ",
"                               O444O%%%%%%#%%%O544O677O            ",
"                               O444O%%%%%%#%%%#O46O677O            ",
"                               O444O%%%%%%#%%%#O464O779O           ",
"                               O4444*%%%%%%#%=*O644O779O           ",
"                               O4444O#=%#=%&=#*O644O7796O          ",
"                              O944444OO******##O444O77967O         ",
"                             O494444444OOOO##O#O44O679667O         ",
"                            O44944444664444OOOO44O6679677O         ",
"                           O44494449644444446444O66676677O         ",
"                           O4444999444444447447O666766O79          ",
"                           O444444444444444479O66666OO77O          ",
"                            O444444444444469O3O666OO7779           ",
"                             O44444444769OO02<OOOO77776OO          ",
"                              OOOOOOOOOO,,022O66666666O,0O         ",
"                               OO,,,,,,,330<,O666666OO0,0O         ",
"                              q44OO33333,0<3O66666OO,3030O         ",
"                             q44444OO,,,,03,OOOOOO0,,033O          ",
"                           O644444777OO,0,,O66666O000O00O          ",
"                          O444444777777O0,,O666666O0O00O           ",
"                         O44444777777777OOO6666666OO00O            ",
"                        O77777777777777O6666666666O00O             ",
"                       O77777777777777O6666666666qOOO              ",
"                      O77777777777777O666666666qqO                 ",
"                      O77777777777779O66666699q6O                  ",
"                      O77777777777997O666999666O                   ",
"                      O77777777779777O66666669O                    ",
"                     O977777777697777O666666O                      ",
"                 ,OOO497777777677777O666666O                       ",
"                 ,7O446777776677777O999999O                        ",
"          OOOOOOOOO444467766777777O66666O                          ",
"         O:XXXXXX.O74444777777777OOOOOOO                           ",
"        O:::XXXXXXOO744444777777O                                  ",
"        O:::XXXXXXOO77777777777O                                   ",
"        O::OXXXXXO.@O777777776O                                    ",
"        O::XXXX@@OOOO77777769O                                     ",
"     OOOO:OX@@@..O   O7776677O                                     ",
"    O:::OO@@....O    977777773                                     ",
"    ::::O.....@O    O777777777O                                    ",
"   O:::O@@@@OO      9777777733                                     ",
"   :::O...OO       977777733                                       ",
"  O:OO@@@O        97777733O                                        ",
"  :O...O         9777733.O                                         ",
"  O.@.O        3333333@@@O                                         ",
"  O..O            O@@...O                                          ",
"   O.@            O..@@@O                                          ",
"    O@           O......O                                          ",
"      @         O+OOOOOOXO                                         ",
"               O++XX.XXXXXO                                        ",
"               O++XXX.XXXX@O                                       ",
"               O++XXX@XXX@XX@O                                     ",
"               OXXXXX@XX@XXXX@OOO       @                          ",
"               OXXXXX@XX@XXX@XXXX@OOO@.@                           ",
"               OXXXXX@XX@XX@XXXX@XXXXXO                            ",
"                OOOOOOOOOOOOOOOOOOOOOO                             ",
"                                                                   ",
"                                                                   ",
"                                                                   ",
"                                                                   ",
"                                                                   ",
"                                                                   ",
"                                                                   ",
"                                                                   ",
"                                                                   "
};
