/* XPM */
static char *_577641388685[] = {
/* columns rows colors chars-per-pixel */
"72 143 31 1 ",
"  c #8080FF",
". c #C08000",
"X c black",
"o c #F0B010",
"O c #804000",
"+ c #F0F070",
"@ c #F0D030",
"# c #E0A060",
"$ c #501000",
"% c #F0D0A0",
"& c #C08040",
"* c #905010",
"= c #F0E0C0",
"- c gray94",
"; c #505050",
": c gray44",
"> c gray19",
", c #B0F0B0",
"< c #90D090",
"1 c #70B070",
"2 c #F0C030",
"3 c #904000",
"4 c #F0E060",
"5 c #F0F0B0",
"6 c #F0A010",
"7 c #C07000",
"8 c #206020",
"9 c #408040",
"0 c #60A060",
"q c #601000",
"w c white",
/* pixels */
"                                                                        ",
"                                                                        ",
"                                                                        ",
"                                                                        ",
"                                                                        ",
"                                                                        ",
"                                                                        ",
"                                                                        ",
"                                                                        ",
"                                         . .                            ",
"                                         XoOo o o  .                    ",
"                                         X+X+X@X+X o                    ",
"                                         X+o@+@O+@X@X                   ",
"                                        X.@+O+@.O+@@X                   ",
"                                        X@O+.O@.@@X@@X                  ",
"                                        X@@@.@##@.oX@X                  ",
"                                      XXOoXoo#$$#%%%&                   ",
"                                    XO@@oX%X###$%%#%*                   ",
"                                  X.o@@OX$%X##%*$%*#X                   ",
"                                 XoXO@X%%%*%==%&-$$X                    ",
"                                XoX;OX%%%&X%%%%##%X                     ",
"                                XX;;:::%%&X%%$%%%%X                     ",
"                               X;;;XXX::X#X%%*$$$XX                     ",
"                             X&%XX::::X;X##X%#**X                       ",
"                            X%*&=====:X;X>>>X%%X                        ",
"                           X*&%=======;XX>XX XXX                        ",
"                          X&%%%====::::;XX                              ",
"                         X%%%%%%=:::&&&*XX                              ",
"                        X%%%%%%%:;&=====&*                              ",
"                       X%%%%%%%;;*%======%*                             ",
"                      X&%%%%%%;;&*%%=====%%*X                           ",
"                      X#%%%%%%;X%*%%%%===%%*#X                          ",
"                     XX%%%%%%;;X%%&%%%%%%%%&%X                          ",
"                     XX%%#%%%;;X%%%#%%%%%%%#%XX                         ",
"                    X#X%%&%%%;;X#%%%#%%%%%#%%XX                         ",
"                    X#X%%&%%%>>X*#%%#%%%%%%%#X;X                        ",
"                    X#X%%*####>>X&##%%%%%%##X;;X                        ",
"                     X#*%%$###XX%X*########X>X;X                        ",
"                     X#X%%#XXX#X#%%**###**X#X>X                         ",
"                      X#*%#####X*%%%%&#%%###X>X                         ",
"                      X&X######X$%%%%%&%%%##X>X                         ",
"                       X&*#####X#$%%%%%#%%%#XX                          ",
"                        XX######X#*%%%%%#%%#XX                          ",
"                         X*#####X##*%%%%&%%#XX                          ",
"                          X&####X#%*%%%%*%%&XX                          ",
"                           X&##>X*%&%%%&#*#X>X                          ",
"                            X>>>XX%%&%%%X*&X>>X                         ",
"                             XX>XX%%&%%%%XX>XXXX                        ",
"                              XXXX#%%&%%%%%X;;;;X                       ",
"                              X>XX&%%&%%%%%%X;;;;XX                     ",
"                               XX#X=%*%%%%%%%X;XXX,X                    ",
"                               X&#X==*%%%%%%%#X<1X1X                    ",
"                               X&##XX$%%%%%%%%XXXXXX                    ",
"                               X&##$%$*%%%%%%%X2223X                    ",
"                                *###*%*&#%%%%#X4223X                    ",
"                                X###*%%*%&#%%*25263X                    ",
"                                X*##%#%%#%%#%X4527XX                    ",
"                               X2X##%&%%%%%%%X4527XX                    ",
"                              XX22X#%%%%%%XXXX4272XX                    ",
"                             XX2222X%%%%XX+++@X272XX                    ",
"                            X8X22222X%%X..OooOX242XXX                   ",
"                           X8X2222222XX.XO.++@O252XXX                   ",
"                           X8X2222222XoX..OOo.XX5X8X9X                  ",
"                           XX222222262XoXX.o++@OXXXXX9X                 ",
"                           X9X22222722XOO.XO.o.XXX1XX99X                ",
"                            X9XX2732272XoX..@+@oOX1X7X99X               ",
"                             X009XX2322XXoXXXXXXXX0X77X9X               ",
"                              X90009XX91XX%%%%%%#*X7776XX               ",
"                               XX9000111X%%%%%%%%%#X77366X              ",
"                               X7XXX000XX%%%%%%#%%%%X73666X             ",
"                                X222XXX2X%%%%%%#%%%%#X73666X            ",
"                               X22222225X#%%%%%%#%=&#X736666X           ",
"                              X2222222454*#%=%%=&%=*#X7366663           ",
"                             X22222222542X#*******##*#7736666X          ",
"                            X2222222254222XX#*#*#*##*&77366667X         ",
"                            X222222244222622XXX#X#*#*777366666X         ",
"                            X222222422226442227XXXX&&X773666663         ",
"                            X2222222222744222272X77XXX773666666X        ",
"                            X2222222227442222722X77777773666666X        ",
"                            X222222276426222722X777777736666666X        ",
"                           X322222272426222622XX777777736666666X        ",
"                          X223222772276222622X XX77777766666766X        ",
"                         X22223332227222222XX  X7XXX33366666766X        ",
"                        X2222222227722222X80X X7777766666667666XX       ",
"                         X2222227722222XX80<X X7777766666667666X9X      ",
"                          X722772227XXX998<X   XXXX777766636666X09X     ",
"                            XXXXXXX99990801X       XXXX777XXXXX919X     ",
"                             X999990000080X      XX7q7XXXX8999811X      ",
"                            XX000000009899X   XX3777q777X88898099X      ",
"                           X22XX999999899X XX37777777q777X88X998X       ",
"                          X22222XXXXXXXXX X777777777737777XX888X        ",
"                        X722222226666X   X7777777777773777X888X         ",
"                       X222222266667X    37777777777773777X88X          ",
"                     X62222222666672X  Xq7777777777777777XXXX           ",
"                    X222222266666727X  Xq777777773377773X               ",
"                   X6222226666667263X  37q7777333777333X                ",
"                  X66666666666672636X X777qq3377733376X                 ",
"                 X766666666667726766X 3777776666666666X                 ",
"                 X76666666663226766X X7777777766666666X                 ",
"                 X7666666633226666X X777777777777777XX                  ",
"                X2366666332226666XX377333qqqqXXXXXXX                    ",
"               X222233332226666XX77777777777X                           ",
"              X222222222266666X999777777777X                            ",
"               X222222266766XX....999999999                             ",
"                X6666667766X.......XX.OXX                               ",
"                X666677666X........X.XX                                 ",
"                366776666XXX......X...X                                 ",
"               X633666666XX;;X....X...X                                 ",
"               336666663X XX;;X..X....X                                 ",
"              3666666XX     XX;;X....OX                                 ",
"             366666000        XXX....OX                                 ",
"           37666000.X          X;X..O.X                                 ",
"         0000000.OOX           X;;.O..X                                 ",
"            XOO...X             X;X...X                                 ",
"           X...OOX              X;;...OX                                ",
"          XX.....X               X;;.O.O                                ",
"         X@oXXXXXX                X;;...X                               ",
"        X@@@OooooX                 X;;..OXX                             ",
"       X@@@@o.ooooX                 X;;O....OOO                         ",
"       X@@@@@.oooOoOX         O        XXXXXX                           ",
"       X@@@@@OooO.ooOXX      .X                                         ",
"       X@@@@@OooOooO.ooXXXXO.oX                                         ",
"       X@@@@@OooOooOoooOoooooX                                          ",
"        XXXXXXXXXXXXXXXXXXXXX                                           ",
"                                                                        ",
"                                                                        ",
"                                                                        ",
"                                                                        ",
"                                                                        ",
"                                                                        ",
"                                                                        ",
"                                                                        ",
"                                                                        ",
"                                                                        ",
"                                                                        ",
"                                                                        ",
"                                                                        ",
"                                                                        ",
"                                                                        ",
"                                                                        ",
"                                                                        ",
"                                                                        ",
"                                                                        "
};
