/* XPM */
static char *_577641399380[] = {
/* columns rows colors chars-per-pixel */
"85 143 30 1 ",
"  c #8080FF",
". c #C08000",
"X c black",
"o c #F0B010",
"O c #F0F070",
"+ c #804000",
"@ c #F0D030",
"# c #E0A060",
"$ c #F0D0A0",
"% c #501000",
"& c #905010",
"* c #C08040",
"= c #F0E0C0",
"- c gray94",
"; c #505050",
": c gray44",
"> c gray19",
", c #408040",
"< c #60A060",
"1 c #70B070",
"2 c #F0C030",
"3 c #F0A010",
"4 c #C07000",
"5 c #F0E060",
"6 c #904000",
"7 c #F0F0B0",
"8 c #90D090",
"9 c #601000",
"0 c #206020",
"q c white",
/* pixels */
"                                                                                     ",
"                                                                                     ",
"                                                                                     ",
"                                                                                     ",
"                                                                                     ",
"                                                                                     ",
"                                                                                     ",
"                                                                                     ",
"                                                                                     ",
"                                                .     .                              ",
"                                                Xo  . Xo o o                         ",
"                                                XO+XOX+OX@+@                         ",
"                                                XO@@Oo@O@@+@X                        ",
"                                                X@O@++@@OX.@X                        ",
"                                               Xo@@@.@.o@X@.@X                       ",
"                                               X@oXo.@####$X@X                       ",
"                                             X+@@X$Xo#%%%$$$X                        ",
"                                           X+o@+XX$X##$&%$*$X                        ",
"                                          Xoo@X$$%&$$=$*-%&#X                        ",
"                                         ++X@X$$$X$$$$=$&&%X                         ",
"                                        XX;:::$$*X$$$%$$#$X                          ",
"                                      XX;::::;;$*X$$$&%$$$X                          ",
"                                    X&$#XXX:X;;;X#X$$**%XX                           ",
"                                  X&$$&*$==::X;;X>XX$$$X                             ",
"                              XXXX$$&*$$$====;X;XX  XXX                              ",
"                            X&#X*$$&$$$$======$XXX                                   ",
"                           X##X$$$&$$$$$======$$XX                                   ",
"                          X##X$$$&$$$$$$===:::;;>X                                   ",
"                          &#X$$$&$$$$$$$=::::::;;XXX                                 ",
"                         X#X&$$&$$$$$$$$::&&***&X=$#X                                ",
"                         X#*&$$*$$$$$$$:;&$=====&==$$X                               ",
"                         X&$&$&$$$$$$&&XX$$$=====*=$$$X                              ",
"                         X&$#$&$$$$$&$$;X$$$$=====#$$$$X                             ",
"                         X&##$&$$$$$*$$;X#$$$$$===#$$$$&                             ",
"                        X*X&#$&$$$$&$$$;;X#$$$$$$$$$$$$#X                            ",
"                        X##X#$&$$$$*$$$$;>X##$$$$$$$$$$#X                            ",
"                        X###&#X$$$*&$$$#;>>X####$$$$$$##X                            ",
"                        &###X#X$$$#$&####>>XX##########X                             ",
"                       X#%##*&X#$$$$$XXXXXXX#%%#######XX                             ",
"                       &#%##*X#&$$$$$#####>X#$$&&&##&&$$X                            ",
"                      X*#%##*%XX$$$$#######X#&$$$$**$$$$$X                           ",
"                      &*&###*%*X&##########X#%$$$$$$##$$$&                           ",
"                     X*&####&***X##########X##%$$$$$$$#$$$X                          ",
"                     X&#####&***XX##########X##&$$$$$$$#$$X                          ",
"                    X&######%***X X##########X##&$$$$$$*$#X                          ",
"                    X####*&#%**X   X>>######>>X#$*$$$$X&#&                           ",
"                    &######&%%X     XX>>>>>>>>X#$$$#$$$XXX                           ",
"                   X########&*X      XXXX>>>>>>X$$$$*$$$#X                           ",
"                   &########&**X      X>>>>>>>>X=$$$%$$$$$*X                         ",
"                  X#########&**X       X>>>>>XXX=$$$%$$$$$$$X                        ",
"                  X#########&**X       XX>XX,<1XX=$%$&$$$$$$$X                       ",
"                  X########****X       XX,<<111X*XX%$$&#$$$$$$X                      ",
"                  X*######*&**&        X,<<<<XXX&##%$$$&&&$$$$&                      ",
"                   &#####**&**X        X,,XXX222X###&$$$*$**#$#X                     ",
"                   X*###**&**X          XXX222222&###&$$$*$$$$$X                     ",
"                    X***&&**X           X,X222222X####*$$$#$$$$X                     ",
"                    +XXXXXXX+           X,X2222222X####*$$$$$$XX                     ",
"                    Xo@@o..oX          X,X222222232X&###*$$$XXOoX                    ",
"                    .X++++XX+          X,X22222232222X*###$XOOo+o.                   ",
"                    Xo@@o..oX         X,X2222222422232X&**X.+.OO.X                   ",
"                     X++++XX+         X,X22223242222322XXX.+Xo+oOOX                  ",
"                     .X@o..oX        X,X2222324222232222XX+X.X.Oo.OoX                ",
"                     Xo+++XXoX      X,,X222422422232252XX4X+X.+XOOXXXXX              ",
"                     XX@o..oX*&X    X,<X224226222242522,X43XX+X.XX$$$$$&X            ",
"                     X#XXXXX****X    X,<XX226222242752X,X43X X+X*$$$$$$$$&X          ",
"                     X###*X*****&     X<<,XX2222427522<,4433X XX$$$$$#$$#$#X         ",
"                     X###*XX&****X    XX,<<<XXXXXXXXX<<X4433X  X$$$$$$#$$&#&         ",
"                     X###*X&XX&&*X   X22XX,<<<11188811,X4433X  X$$$$$$$*$$&#X        ",
"                      &#*X&&&&X**X    X2X2XXXXXXXXXXXXXX4433X  X*$$$$$$$*$=&#X       ",
"                      X&X&&XXX*X&&     X22222427722322X44633X   &$$$$$$$$$=#X        ",
"                       X#XX#X#X&#&    X222224277223222X446336X  X*$=$=$#=&##X        ",
"                       X*XX*X*X&##&  X2222242552242224X446336X   X###X#&#*&#&        ",
"                        X XXXX X**X X22222325222422226X4463363X   X#*X&#&#&##X       ",
"                                XX X222222252224252262X44633436   X#X X#X#X&#X       ",
"                                   X222222522242522422X44633433X  X#X X#X#X&#X       ",
"                                   X222225222425224222X46334333X   X   XXX XX        ",
"                                   X22222222425223222X446334333X                     ",
"                                   X2222224425223222X4446343333X                     ",
"                                   X222264225223222X44463343336                      ",
"                                  X622662252222222X44446343333X                      ",
"                                 X24662255222222XX44446433333X,                      ",
"                                 X222255222222XX444444643333X1<X                     ",
"                                 X2555222222XXX,XX444944444XX<1X                     ",
"                                 X22222224XX,0<1X X494444XX,X,1X                     ",
"                                 X22234XXX,,,018X  X444XX,,,X,<X                     ",
"                                 XXXXX,<<<<<018X    XXX00000X0,X                     ",
"                               X422XX,,,,<<011X     X4XXX000X00X                     ",
"                             X4222222XX,,,0<<X     X94443XXXX00X                     ",
"                           X42222222222XX0,,X      6494443333XX                      ",
"                         X42222222222233X,,X      X449444433333X                     ",
"                        X222222222233346XXX       6444944443333X                     ",
"                       X2222222223334433X        X4444944444336                      ",
"                      X22222222333443336         6444449444446X                      ",
"                      X3222233333334443X        X4444444644444X                      ",
"                    XXX3333333334442336         X4444443364444X                      ",
"                    X2X333336666223334X          X444443336444X                      ",
"                    62666666222233334X           X944443333644X                      ",
"                   X2222222222333336X           X44944443333663X                     ",
"                   622222222333336X            X4444444443333333X                    ",
"                  X2222222333336X               X444444444333333X                    ",
"                 X22222333334XX                  X44444444443334X                    ",
"               X422233446666X                     X6444444444436                     ",
"           <<X6222222222222<<                       X644444444,X                     ",
"             <<<<<<<<<<<<<<                           X44444444X                     ",
"              X.+...+++X                               X444444,4,                    ",
"          XXXX+..+....X                                X444444,44,,                  ",
"         X@@@@X...++XX                                X44444,,.X0                    ",
"        X@@@@@@X...X                                 X444,,,+..X                     ",
"       X@@@@@@+oXXX                                 ,,,,,X....+.X                    ",
"       X@@@@@+ooooX                                      X++++..X                    ",
"       X@@@@+oooooX                                       X.....XX                   ",
"        X+++ooooo+X                                       XXXXXX..X                  ",
"         Xoooooo+X                                       X.X.......X                 ",
"         Xooooo+oX                                      X...X.....+.X                ",
"          Xoo++ooX                                      X....X...+...+X              ",
"          X++oooX                                       X....X..+.....+XX      +     ",
"          XoooooX                                       X....X..+....+oooXX   .X     ",
"          Xoooo+X                                       X....X..+...+oooo+oX+.oX     ",
"          Xoo++ooX    +                                  XXXXXXXXX..+ooo+oooooX      ",
"          X++oooo+XX+.X                                           XXXXXXXXXXXX       ",
"          Xooooo+ooooX                                                               ",
"           XXXXXXXXXX                                                                ",
"                                                                                     ",
"                                                                                     ",
"                                                                                     ",
"                                                                                     ",
"                                                                                     ",
"                                                                                     ",
"                                                                                     ",
"                                                                                     ",
"                                                                                     ",
"                                                                                     ",
"                                                                                     ",
"                                                                                     ",
"                                                                                     ",
"                                                                                     ",
"                                                                                     ",
"                                                                                     ",
"                                                                                     ",
"                                                                                     ",
"                                                                                     ",
"                                                                                     ",
"                                                                                     "
};
