/* XPM */
static char *_577641433501[] = {
/* columns rows colors chars-per-pixel */
"85 143 30 1 ",
"  c #8080FF",
". c #C08000",
"X c #F0B010",
"o c #F0F070",
"O c black",
"+ c #F0D030",
"@ c #804000",
"# c #E0A060",
"$ c #F0D0A0",
"% c #501000",
"& c #905010",
"* c #C08040",
"= c #F0E0C0",
"- c gray94",
"; c #505050",
": c gray44",
"> c gray19",
", c #408040",
"< c #60A060",
"1 c #70B070",
"2 c #F0C030",
"3 c #206020",
"4 c #F0A010",
"5 c #C07000",
"6 c #F0F0B0",
"7 c #F0E060",
"8 c #904000",
"9 c #90D090",
"0 c #601000",
"q c white",
/* pixels */
"                                                                                     ",
"                                                                                     ",
"                                                                                     ",
"                                                                                     ",
"                                                                                     ",
"                                                                                     ",
"                                                                                     ",
"                                                                                     ",
"                                                                                     ",
"                                                                                     ",
"                                                                                     ",
"                                                      .  X                           ",
"                                                      X. o X  .                      ",
"                                                     Oo+OoO+OO+O .                   ",
"                                                     O+oX+o+@+Xo+.                   ",
"                                                     O++.@@+@.+oX@                   ",
"                                                    O@X++.+@+.+@+O                   ",
"                                                  O@+X@X.####+XO+O                   ",
"                                                O@X++O$O##%%%#$$OO                   ",
"                                               OXX++@O$O###&%$*$O                    ",
"                                             OOO@+@O$%&$#==*-%&#O                    ",
"                                           OO;;:@O$$*O$$$$$$*&%O                     ",
"                                         OO;;:::@:$$*O$$$%$$#$O                      ",
"                                       O&$$OOOO:::;O#O$$$&%$$$O                      ",
"                                     O*$$&*$$==:O;;O>#O$$**%OO                       ",
"                                   O&$$&*$$$====O;;O>>>O$$$O                         ",
"                                 OO&$$&$$$$$=====O;O>OO OOO                          ",
"                                O#O$$&$$$$$$======O;O                                ",
"                               O#O$$&$$$$$$$====:::OO                                ",
"                              O#O$$&$$$$$$$$=:::::::OO                               ",
"                              O#&$&$$$$$$$$::&**&&;&&&O                              ",
"                              OO$$*$$$$$$$:;&$====*==$$O                             ",
"                              O&$&$$$$$$&&;O$$=====#==$$O                            ",
"                              O$$&$$$$&*$;;O$$$=====#=$$$O                           ",
"                              O$$&$$$&$$$;;O#$$$$=====$$$$O                          ",
"                              O$#O$$&$$$$;;O*#$$$$$$$$$$$$&                          ",
"                             OO##O$$*$$$$#>>O*##$$$$$$$$$$#O                         ",
"                             O*&#O$$#$$$##>>>O&####$$$$$$##O                         ",
"                             &#O#O$$$&#####OOO#O&#########O                          ",
"                            O###&O*$$$&OOOO>>O#$$&&######O                           ",
"                            &###O#O$$$$$####>O#&$$$&&##&&$O                          ",
"                           O%###*OO$$$$######O#%$$$$$&&$$$$O                         ",
"                           &%###**O*$$$######O#%$$$$$$*$$$$O                         ",
"                          O*%###&%*O#########O##%$$$$$$#$$$O                         ",
"                          &%###&*%**O#########O#O%$$$$$$#$#O                         ",
"                         O*&##&*%****OO########OO#&&*$$$$*#O                         ",
"                        O&&##&#*%****O O>#####>>O#$*$$$$$&O                          ",
"                        &#####&*%***O   OO>>>>>>>O$$*$$$$O;O                         ",
"                       O#######&*&OO     OOO>>>>>O$$$#*$$$OO                         ",
"                       &#######&OO        O>OO>>>>O=$$&$$$$*O                        ",
"                      O*#######&*O         O>>>>>>O=$$%$$$$$#O                       ",
"                      O########***O         O>>OOOOO=$$%$$$$$$O                      ",
"                      O########***O         OO,<11O*OOO$&&$$$$$O                     ",
"                      O#######****O         O,<<<<O*#%$$$$&**$$$O                    ",
"                      O######*#***O         O,,OOOO&##%$$$$&$*#$$O                   ",
"                      O#####&##**O          OOO2222O###*&$$$*$$#$O                   ",
"                      O*##&&***OO          O,O222222&####&$$$#$$$&                   ",
"                      O*******O            3O2222222O#####&$$$$$$#O                  ",
"                      .OOOOOOO.O          O,O22222222O#####*$$$$$$O                  ",
"                      OX+X...XO           3O2222222222O#####*$$$$$OX                 ",
"                      .O.@@@OO.          O,O22222222224O&####$$$$*O+O                ",
"                      OX+X...XO          3O22222222224222OO*##$$OOo@X                ",
"                      @O.@@@OO@         O,O2222224224222222OOOOOXoXo@X               ",
"                      OX+X...XO         3O22222242252242622O@...@.o+.+O              ",
"                      @O..@@OO@        O,OO222252252242762O,,OO@.X+Xo@XO             ",
"                      OX+XX..XO        O,OO22252252252762O<,O @.O@.o+X+OO            ",
"                      OOOOOOOO*O       O<O O28285225226O,<,O4O O..X@XoO$$O           ",
"                     O###*O****&O      O,<OO82822252O,<11<OO4O  OO@XoO$$$&           ",
"                     O###*O*****O       O,<<OOOOOO,<199<,O2O4O  @..OO$$$$$O          ",
"                     O###&O&*&**O        O,<<<<1111991,OO2O544O OOO$$$$$$$*          ",
"                     &&*&O&OOO*&O          OOOOOOOOOOO2422O544O O##$$$$$$$$O         ",
"                    &##O&#O#O&O*O            O522276224275O544O O##$$$$$$$$*         ",
"                    O*O &#O#O#O*O          O54222762242725O544O  O#$$$$$$$=$O        ",
"                     O  O*O*O##O          O422227622427252O544O   O#=#$=#$=#O        ",
"                         OOO O*&        O42222272225272252O544O  O*#&&&&&&&#O        ",
"                              OO       O2222227222522725222O448O  OO##O#O##O         ",
"                                      O22222772225227224222O4484O   OOOO*#O          ",
"                                      O2222772254227224222O545444O      OO           ",
"                                      O222722252227222422O55484444O                  ",
"                                      O22722552222222222O555844444O                  ",
"                                      O2222822222222222O5558444444O                  ",
"                                      O228822722222222O5558444444O                   ",
"                                    OO288227722222222O5555444444O                    ",
"                                    O277777222222222O5555544444OO                    ",
"                                    O27772222222225O5555554444O<,O                   ",
"                                    O222222222225OO555555555OO<1,O                   ",
"                                    O222222245OO3,,O555555OO3O11,O                   ",
"                                    OOOOOOOOO,,399<O5555OO,,,O<,O                    ",
"                                 OOO22OO,,<<<<3911O OOOO3333O3,3O                    ",
"                              OO52222222OO,,<311<O  O504OO33O33O                     ",
"                            O5222222222222O,3<<,O  O505844OOO33O                     ",
"                          O5222222222222244O,,,O  O5505584444OOO                     ",
"                         O22222222222224444OOOO   8555055584444OO                    ",
"                        O22222222222244444O      O555558555884444O                   ",
"                        O22222222224444455O      855555855555044O                    ",
"                        52222222444444452O      O55555558555550O                     ",
"                       O22222244445445524O      O5555555585555O                      ",
"                      O844444444554452248       O5555555558555O                      ",
"                     O284444488544222444O        O555555544855O                      ",
"                     O22888852222224444O        O0555555544485O                      ",
"                     8222222222224444OO        O550555555444488O                     ",
"                    822222222224444OO          O5505555554444444O                    ",
"                  O82222222224444OO             O5585555554444444O                   ",
"               OO82222222224445OO                O558555554444444O                   ",
"              <2222222224448OO                    O55555555444448                    ",
"               <<<<<<<<<<<<<                       O855555555444O                    ",
"           OOOO..@..@..@OO                           O555555555O                     ",
"         O@+++O..@...@OO                              O5555555O                      ",
"        O+++++O...@@OO                                O5555558                       ",
"       O+++++++O..OO                                  O5555585O                      ",
"       O++++++@XOOO                                   O5555555,                      ",
"       O++++@@XXXXO                                  O555555,,                       ",
"        O+@@XXXXXO                                  O555,,,,.O                       ",
"         OXXXXXX@O                                 ,,,,,@@@..O                       ",
"         OXXXXX@O                                     OO....O.O                      ",
"         OXXX@@XO                                    O..OOOO...O                     ",
"         O@@@XX@                                     O...O.....@O                    ",
"        OXXXXXXO                                    O.....O...@..@O                  ",
"        OXXXXX@                                     O.....O..@....@OOO      @        ",
"       OXXXXX@O                                     O.....O..@...@XXX@OOOO@.O        ",
"       OXXX@@XXO                                    O.....O..@..@XXX@XXXXXXO         ",
"       O@@@XXXX@O@.@                                 OOOOOOOOOOOOOOOOOOOOOO          ",
"        OXXXX.@XXXO                                                                  ",
"         OOOOOOOOO                                                                   ",
"                                                                                     ",
"                                                                                     ",
"                                                                                     ",
"                                                                                     ",
"                                                                                     ",
"                                                                                     ",
"                                                                                     ",
"                                                                                     ",
"                                                                                     ",
"                                                                                     ",
"                                                                                     ",
"                                                                                     ",
"                                                                                     ",
"                                                                                     ",
"                                                                                     ",
"                                                                                     ",
"                                                                                     ",
"                                                                                     ",
"                                                                                     "
};
