/* XPM */
static char *_577641440107[] = {
/* columns rows colors chars-per-pixel */
"85 143 30 1 ",
"  c #8080FF",
". c #C08000",
"X c #F0B010",
"o c #804000",
"O c #F0D030",
"+ c black",
"@ c #F0F070",
"# c #C08040",
"$ c #F0D0A0",
"% c #E0A060",
"& c #501000",
"* c #905010",
"= c #F0E0C0",
"- c gray94",
"; c #505050",
": c gray44",
"> c gray19",
", c #60A060",
"< c #408040",
"1 c #70B070",
"2 c #F0C030",
"3 c #C07000",
"4 c #F0A010",
"5 c #F0F0B0",
"6 c #206020",
"7 c #904000",
"8 c #F0E060",
"9 c #90D090",
"0 c #601000",
"q c white",
/* pixels */
"                                                                                     ",
"                                                                                     ",
"                                                                                     ",
"                                                                                     ",
"                                                                                     ",
"                                                                                     ",
"                                                                                     ",
"                                                                                     ",
"                                                                                     ",
"                                                           .    X                    ",
"                                                           o  X O+ .  .              ",
"                                                           o@+O+@O+@++X              ",
"                                                           +@.OO@XO@X+O+             ",
"                                                          +OO@OooXOoXOO+             ",
"                                                          +XOO.OOO.+OoO+             ",
"                                                      ++++X.+X.X##O+X+O+             ",
"                                                     +XOOOO+$+X%&&&$$$+              ",
"                                                    +XoOO.++$+%%%*&$#$+              ",
"                                                    +o$oo$$&*$==$#-&*%+              ",
"                                                  ++;:o$$$#+$$$$$$#*&+               ",
"                                                ++;:::::$$#+$$$&$$%$+                ",
"                                              ++%%++++:;;+%+$$$*&$$$+                ",
"                                            ++$**#===:+;;+>%+$$##&++                 ",
"                                           +$*#$$=====+;;+>>>+$$$+                   ",
"                                         ++*#$$$$======+;+>++ +++                    ",
"                                       +++*$$$$$$======+;++                          ",
"                                      +%+*$$$$$$$=::::::++                           ",
"                                     +%+*$$$$$$$::****;;:+                           ",
"                                    +%+*$$$$$$$:;*====#;***+                         ",
"                                    ++$#$$$$$$;;+$$====%==$$+                        ",
"                                    +#*$$$$$**+;+$$$===%===$$+                       ",
"                                    +$*$$$$*$$;;+$$$$======$$$+                      ",
"                                    +$*$$$*$$$;;+%$$$$$===$$$$$+                     ",
"                                    +$*$$$#$$$$;;+%$$$$$$$$$$$%+                     ",
"                                   ++%+$$#%$$$$;>>+%%%$$$$$$%%%+                     ",
"                                   *+%+$$$*%%%%>>+%+*%%%%%%%%%+                      ",
"                                  +%+%+%$$$*+%%%++%$$**%%%%%%+$+                     ",
"                                  +%%+%*$$$$%+++>+%*$$$***%%*$$+                     ",
"                                  *%%+%+$$$$%%%%%+%&$$$$$$**$$$#                     ",
"                                  *&%%+%*$$%%%%%%+%%&$$$$$$#$$$$+                    ",
"                                  *&%%#++%%%%%%%%%+%%&&$$$$$%$$$+                    ",
"                                 +#&%%#&#+%%%%%%%%+%%%$**$$$$%$%+                    ",
"                                 *#%%%#&##+%%%%%%%%+%%$$#$$$$*%#+                    ",
"                                +#*%%%#&###+%%%%%%%%+%$$$#$$$+*+                     ",
"                                +*%%**##&##++%%%%%%>>+$$$$#$$$+>+                    ",
"                                *%%%%%*#&#+  +>>>>>>>>+$$$$$$$$++                    ",
"                               +%%%%%%%*++    ++>>>>>>>+$$$$$$$$+                    ",
"                               +%%%%%%%*+#+    +++>>>>>++$$$$$$$$#+                  ",
"                               +%%%%%%%*##+     +>>>>>>++$$#$$$$$$$+                 ",
"                               +%%%%%%%*##+      +>>>>>+%+$$&$$$$$$$+                ",
"                               +%%%%%%%###+      ++++++,+%+$$&$$$$$$$+               ",
"                               +#%%%%%*###+      +<<,,11+%%+++***$$$$*               ",
"                               +#####*###+        +++++++%%&$$$*$#%$$$+              ",
"                               +####*####+        +222222+%%&$$$*$$%$$+              ",
"                               +########+         3222222+%%%*$$$#$$%$*              ",
"                               .++####++         +22222222+%%%*$$$#$$$$+             ",
"                               +XO+++++.         3222222224+%%%#$$$$$$%+             ",
"                               .+oX...X+        +22222222242++%%#$$$$%+.             ",
"                               +XOooo++o       +4222222424222+++++++++@+             ",
"                                +oX...X+      ++22222242422522+...O@@@.o.            ",
"                                oOooo++o     +6+42222322422522++++ooXO@X+            ",
"                                +oX...X+    +6  7222322322852+<<+..O@@X.o.           ",
"                                +Oooo++o+  +6+  +27722322258+<<+2++ooO@@X+           ",
"                                ++XX..X++ +<+    +222322288+,<+22+..XoXXoX+          ",
"                               +#%+++++##++<+    +2732222+<,,+222++o.XO@O++          ",
"                               +%%%#######+<,++  +72222+<11,+2222++++++++$$+         ",
"                               +%%%#+#####++<,<<+++++<,999<+22242+%%$$$$$$$$+        ",
"                               +%%%#+#####+ +<,,,,111199<+8222422+%$$$$$$$$$$+       ",
"                               +###*+*#*##+  +<,,,,11<++582224222+%$$$$$$$$$$+       ",
"                               **+++#+++*#+   +++++++285822242222+*$$$$$$$$$$+       ",
"                               *%+*%+%+*#+   +2222222258222422222++=$$$$$$$$$+       ",
"                               +#+*#+#+*#+   +22222225822242222273++%$=$$=$$=+       ",
"                                + +++++%+  ++7222222822224282222++%%%*%%%$#$=+       ",
"                                       + ++22722222822223282222733++*%%*%%*%%+       ",
"                                        +2222322228222232822222+33+ +++%%*%%+        ",
"                                        +282232228222232822222+3337+   ++%%+         ",
"                                        +28522888222432822222+333744+    ++          ",
"                                        +2855882222322822222+33374444+               ",
"                                        +228822224322222227+3330444443+              ",
"                                         +222222322222222+333303444433+              ",
"                                         +22223322222227+333303333333+               ",
"                                         +22772222222++3333303333337+                ",
"                                         +772222222++6<+333033333+++                 ",
"                                         +222222+++<6,,<+3333337+,<+                 ",
"                                        ++++++++<<<6991+33377+++,1<+                 ",
"                                     +++222+,,,,,,691,+++++++<<+1,<+                 ",
"                                  ++32222222+<<,,6,,,++0333+666+,<+                  ",
"                               ++322222222222+<<6<<<++303333+66+<6+                  ",
"                             +3222222222222224+6<<<+ +3733334+++66+                  ",
"                            +222222222222224444+<<+ +3373333344+6+                   ",
"                            3222222222222444444+++  +33373333444++                   ",
"                           +422222222244444444+    +33337333334444+                  ",
"                           742222224444443344+     +3333733333444+                   ",
"                          +44444444444433444+     +3333373333333+                    ",
"                         +744444444443344443+     +333333333333+                     ",
"                        +233333333333224444+      +333333333333+                     ",
"                        +222222222224444444+      +033333333337+                     ",
"                      +7222222224444444447+      +3373333333337+                     ",
"                    +722222244444444447++        +3337333333374+                     ",
"                ,777222222444444447+++            +3333333333743                     ",
"                 ,,222222444447+++                 +3333333374447                    ",
"                  +,,,2224444+                      +3333333744437                   ",
"             +++++..o.,,,,,,,,                       7333334444433+                  ",
"            +OOOO+...o..oo+                          +33333333333+                   ",
"           +OOOOOO+...o++                             7333333333+                    ",
"           +OOOOOoX++++                               +33333337+                     ",
"           +OOOO.XXXX+                                +33333<7                       ",
"           +OOo.XXXX+                                +3333333+                       ",
"           +ooXXXXXX+                                +33333333<                      ",
"           +XXXXXXX+                                +3333333<<                       ",
"           +ooooXX+                                +33333<<<+                        ",
"          +XXXX.o+                                  <<<<<ooo+                        ",
"         +XXXXX++                                    +......+                       +",
"        +ooXXX+                                     ++.....+.+                     +X",
"       +XX.oX+                                     +..+++++...+                    +X",
"       +XXXX+                                     +....+.....o.+                   +o",
"       +XXXX+                                     +.....+...o...++        o        +X",
"       +ooX+                                      +.....+..o....oX++     .+        +X",
"       +X.o+                                      +.....+..o...oXXXX+++o.X+         +",
"       +XX.+                                      +.....+..o...oXXXoXXXXX+           ",
"        +XXo                                       ++++++++++++++++++++++            ",
"         +XXo                                                                        ",
"          ++++                                                                       ",
"                                                                                     ",
"                                                                                     ",
"                                                                                     ",
"                                                                                     ",
"                                                                                     ",
"                                                                                     ",
"                                                                                     ",
"                                                                                     ",
"                                                                                     ",
"                                                                                     ",
"                                                                                     ",
"                                                                                     ",
"                                                                                     ",
"                                                                                     ",
"                                                                                     ",
"                                                                                     ",
"                                                                                     ",
"                                                                                     ",
"                                                                                     ",
"                                                                                     "
};
