/* XPM */
static char *_577641452522[] = {
/* columns rows colors chars-per-pixel */
"64 137 29 1 ",
"  c #8080FF",
". c #C08000",
"X c #F0B010",
"o c #804000",
"O c #F0D030",
"+ c #F0F070",
"@ c black",
"# c #501000",
"$ c #E0A060",
"% c #F0D0A0",
"& c #905010",
"* c #C08040",
"= c #F0E0C0",
"- c gray94",
"; c #505050",
": c gray44",
"> c gray19",
", c #70B070",
"< c #B0F0B0",
"1 c #90D090",
"2 c #60A060",
"3 c #F0C030",
"4 c #206020",
"5 c #F0A010",
"6 c #408040",
"7 c #C07000",
"8 c #904000",
"9 c #601000",
"0 c white",
/* pixels */
"                                                                ",
"                                                                ",
"                                                                ",
"                                                                ",
"                                                                ",
"                                                                ",
"                                                                ",
"                                                 .              ",
"                                               . X   X          ",
"                                               oXO . O X        ",
"                                               oO+@+@+@O@ .     ",
"                                               oO+X+O+O.X@X     ",
"                                              @O.O.ooO+.XOO@    ",
"                                              @OXO+.OO+XOoO@    ",
"                                             @.OO@X.O##$.oO@    ",
"                                          @o.O..@%@$$$#%%$%@    ",
"                                        @oXOOO@@@%@$$%&#%&*@    ",
"                                       @XO.XO@%%%#%==%*-##@     ",
"                                       @@@.O@%%%*@%%%%%$%@      ",
"                                       @;:@@%%%%*@%%#%%%%@      ",
"                                      @;:::::;%*$@%%*###@@      ",
"                                    @*==:@::;;;@$$@%%&&@        ",
"                                   @%====:@;;;@>>@@@%%@         ",
"                                  @%%=====@;;;@>@   @@@         ",
"                                 @%%%==::::@;;@@                ",
"                                @%%%::::&&&&&;@                 ",
"                               @%%;&&&;&====$&@                 ",
"                              @%%;&%%%$*=====%&                 ",
"                             @%%;@%%%%==$====%%&@               ",
"                             *%&@@%%%%===$===%%&$@              ",
"                            @%&%;@$%%%%%====%%%&%@              ",
"                            *&%%;;&$%%%%%%%%%%%$%@@             ",
"                           @%*%%%;@$$%%%%%%%%%%%$@:@            ",
"                           @%$%%%;;@$$$%%%%%%%%$&>;:@           ",
"                           @%&$$$$>>@&$$$$$$$$$$@>>;@           ",
"                           @%%&$$$@@*$&&$$$$$$$@>@>@            ",
"                            *%%@@@$@$&%%&&$$$&&@>>@@            ",
"                            @%%$$$$@$#%%%%&&*%%*@>;@            ",
"                             &%$$$$@$#%%%%%%*%%%&>;@            ",
"                             @$$$$$$@*##%%%%$%%%$@>             ",
"                             @@$$$$$@*$%#%%%%$%%$@@             ",
"                             #*@$$$$$@$%%&%%%*%$$@@             ",
"                              #*@$$$$@$%%*%%%%&$&@@             ",
"                              #&*@$$$$@%%%*%%%@*@>>@            ",
"                              &$$*@$$>@%%%*%*%%@@>@@@           ",
"                              &$$&*@>>@@%%%#%%%%@>>;:@          ",
"                             @*$$*&*@>@@%%%#%%%%%@>:;;@         ",
"                             @$$$**&*@@*@=%%#%%%%%@:;;@@@       ",
"                             @$$$**&*@@*@==%%&%%%%%@;@,@<@      ",
"                             @$$****&*@*$@@%%%&&%%%%@,,@1@      ",
"                             @$$****&*@*$#%%%%%*&%%%%@2@@       ",
"                             @******&**&$$#%%%%*%*%%%@@3@       ",
"                             @*********@*$$&%%%$%%$%%@33@       ",
"                             @@********@&$$*%%%%$%%%%&33@       ",
"                             .@*******@3@$$$*%%%$%%%%$@3@@      ",
"                             @X@@@@@@.@33@$$$*%%$%%%%$@3@@      ",
"                             .@OOX..X@@333@$$*%%%%%%%$@3@@      ",
"                             @Xoooo@@.@3333@$$*%%%%%%$@3@@      ",
"                              @OOX..X@@3333@@$$%%%%%@@o@@2@     ",
"                              .oooo@@4@3333@.@@@@@@@O.@@@2@     ",
"                              @OOX..@@333533@X...++Oo@o@@2@     ",
"                              .oooo@@6@373373@@@ooX.O.@@@2@     ",
"                             @@XOX..@66@33733@X..++Oo@o@62@     ",
"                            @$*@@@@@@666@83333@@ooX.X.@@,2@     ",
"                           @$$$$$*@**@622@@333@X.++Oo@o@,6      ",
"                           @$$$$$*@***@@2,,@@@@@ooX.X.@,2@      ",
"                           @$$$$*@&****@@@2,,@@X.++O@@@2@       ",
"                            @***@&@&*&*@33@@@$$@@@@@$$@@3@      ",
"                            &@@@*&&@&**@333@$$%%%%%%%*333@      ",
"                            &$@&@*@&**@3333@$%%%%%%%%@333@      ",
"                            &*@&$@*@&&@3333@%%%%%%%%%@333@      ",
"                            @@ @*@*@**@33@@&%%%%%%%=*@333@      ",
"                                @@@ @@@33@*&&%=%=$%=@3333@      ",
"                                       833@$$$&&&&&$@3333@      ",
"                                      @383@$&@$@$@$$@3333@      ",
"                                     @33383@@@@@@$@@35333@      ",
"                                    @33333733333@@333533@       ",
"                                    @3333337733333335333@       ",
"                                     @33333337775333733@        ",
"                                      @3333333333337333@        ",
"                                       @@3333333338333@         ",
"                                         @@333337833@@2@        ",
"                                         @5@@@@@@@@@64,,@       ",
"                                        @83@666666666411@       ",
"                                       @@833@22222224,16        ",
"                                     @7358333@@6622242,@        ",
"                                   @73335833555@@66462@         ",
"                                 @733333573555555@6466@         ",
"                               @733333335735555555@66@          ",
"                              @333333333553555555@@@@           ",
"                             @333333333355555555@               ",
"                             @33333333335555558@                ",
"                            @83333333333555588@                 ",
"                           @383333333355578877@                 ",
"                           @33755555557775555@                  ",
"                         @8333355557773355555@                  ",
"                       @8555333333333555555@@                   ",
"                  22@@85555555555555555@@@@7@                   ",
"                    2255555555555@@@@@@7797@                    ",
"            @@@@@@@@o.2225555555@777777797@                     ",
"           @OOOOOO@.o..o.22222222777777877@                     ",
"           oOOOOOO@.o..o..@@ @77777777877@                      ",
"          @OOOOOOO@..o..@@    @7777788777@                      ",
"          @OOOOOOO@...@@       @778877777@                      ",
"          @OOOOOO.X@@@         @7777777776@                     ",
"          @OOOoo.XX@            @777777777@                     ",
"         @ooo.XXX@@             @777777776                      ",
"        @XXXXXXX@               877777766                       ",
"       @XXXXoo@@               87777776                         ",
"      @oooo.X@                87777766@                         ",
"     @XXXXXo@                8777666o@                          ",
"     @oooo@                 66666ooo.@                          ",
"     @XXX@                    @......@                          ",
"     @Xo@                    @.@....@.@                         ",
"     @oXo                   @...@@@@...@                        ",
"     @XX.                  @....@.....o.@                       ",
"      @XXo                 @.....@...o...@@       o             ",
"       @@                  @.....@..o...o..@@@   o@             ",
"                           @.....@..o..o....o.@@o.@             ",
"                           @.....@..o..o...o......@             ",
"                            @@@@@@@@@@@@@@@@@@@@@@              ",
"                                                                ",
"                                                                ",
"                                                                ",
"                                                                ",
"                                                                ",
"                                                                ",
"                                                                ",
"                                                                ",
"                                                                ",
"                                                                ",
"                                                                ",
"                                                                ",
"                                                                ",
"                                                                ",
"                                                                ",
"                                                                "
};
