/* XPM */
static char *_577641462867[] = {
/* columns rows colors chars-per-pixel */
"59 135 32 1 ",
"  c #8080FF",
". c black",
"X c #F0D030",
"o c gray44",
"O c #C08000",
"+ c #F0B010",
"@ c #F0F070",
"# c #804000",
"$ c #E0A060",
"% c #F0D0A0",
"& c #501000",
"* c #C08040",
"= c #905010",
"- c #F0E0C0",
"; c gray94",
": c #505050",
"> c gray19",
", c #A0A0A0",
"< c #90D090",
"1 c #B0F0B0",
"2 c #70B070",
"3 c #408040",
"4 c #60A060",
"5 c #F0C030",
"6 c #C07000",
"7 c #F0A010",
"8 c #F0E060",
"9 c #206020",
"0 c #F0F0B0",
"q c #904000",
"w c #601000",
"e c white",
/* pixels */
"                            ..XX..ooooooo.                 ",
"                              ...........                  ",
"                                                           ",
"                                                           ",
"                                                           ",
"                                                           ",
"                                                           ",
"                                                           ",
"                                                           ",
"                                   O  O                    ",
"                                   +  O+ +   O             ",
"                                  .@. O@.@. .+             ",
"                                  .@X.X@XX@.OX.            ",
"                                  .+@XXX@O#XXO.            ",
"                                 .+XO###XX#XO.X.           ",
"                                 .+XX.X$$$$%X.X.           ",
"                                 .+X.XX$&&%%%%..           ",
"                                .++.%.X$$&%%*%.            ",
"                              .#+X+.%.$%$=&%=$.            ",
"                            .#+XX..%=%%-%*;&&.             ",
"                           .++#X.%%*.%%%-%$%.              ",
"                           ..:#.%%%*.%%&%%%%.              ",
"                           .:o#oo%*$.%%*&&&..              ",
"                          .:o.ooo:.$$.%%==.                ",
"                         =---:.o:.>>>>.%%.                 ",
"                        =%---$.::.>>>. ...                 ",
"                       .%%oooo.::.>>.                      ",
"                      .:o======.::.>.                      ",
"                     .:.=%-----$=:...                      ",
"                    ...%=%------%=:..                      ",
"                   .:.%%*%%-----%%=...                     ",
"                  .%:.%%*%%-----%%=$....                   ",
"                  =%:.%%%$%%----%%*%.o.>.                  ",
"                 .$%:.$%%%$%%%%%%$%%.:o.>.                 ",
"                 .%%>>.$$%%$%%%%%%%$.:::.>.                ",
"                 .%%>.$.=$$%%%%%%%$$.:::::.                ",
"                 .%$$.$%%==$$$$$$$$.>>::::.                ",
"                 .*$$.$=%%%==$===...>>>::..                ",
"                  ....$&%%%%%=$$$$.>......                 ",
"                  .$$.*&%%%%%%=%$$*.>::o,:                 ",
"                  .$$.*%&%%%%%$%$$$.>:::.                  ",
"                   =$$=%=%%%%%%$%$$.>:::.                  ",
"                   .*$.%%=%%%$%*%%$.>>>..                  ",
"                   ..*.%%*%%%%.=%%*.>>.>.                  ",
"                   .*..%%%*%%%%.$=.>>.>>.                  ",
"                   .**.%%%$%%%%.=.>>..>..                  ",
"                    .**%%%$%%%%$.>>.>.>.>.                 ",
"                     .$%%&%%%%%%.>>...::.>.                ",
"                     .-%%&%%%%%%%.>>:..oo:..               ",
"                     .--.%=%%%%%%%.>o::.::.<.              ",
"                      ..%%%=%%%%%%=>o:::..12.              ",
"                      .&%%%%=%%%%%$.oo::..32.              ",
"                      .$&%%%*=*%%%%....322.3.              ",
"                      .$=%%%%*%*%%%.<1<243...              ",
"                     .*.$=%%%%*%$%%........>.              ",
"                     .*.$$=%%%$%%%%.55655.3>.              ",
"                     .**.$$*%%%$%%%.76665.3..              ",
"                     O....$%$%%%%%%.55556.4..              ",
"                     .X+O...%$%%%%.+.5855.4.>.             ",
"                     O##...O......X..5585.4.>.             ",
"                     .X+.9..+OO@@XO+.55855.4..             ",
"                     O##.9.5..##OOX+.55805.2.>.            ",
"                     .+.3..5.OO@@X+..5580532.>.            ",
"                     O#.33.5..##OOX+.555804<..             ",
"                     .+O.34..+O@@X+.#.558.2<..             ",
"                      ....44..##OOX+.55583<35.             ",
"                     .=**..4.+O@XX...555322.5.             ",
"                     .***.*.$.....%%...322.055.            ",
"                     .**=..$$%%%%%%%.4444.8055.            ",
"                     .*=..$$%%%%%%%%.....580056            ",
"                     ==.=.$%%%%%%%%%.5555550055.           ",
"                     =*=*.%%%%%%%%%%.5555568055.           ",
"                     .*=.*=%%%%%%%%-.5555568055.           ",
"                      ...$=-%-$%-$--.5555568055.           ",
"                        .$$$$=====$=555555688556           ",
"                         .$=.$.$.$$.555555688557           ",
"                          ......**.5555556588555.          ",
"                          .6666q..55555556585575.          ",
"                         .6666q6.555555557585575.          ",
"                        .66666q6.q55555575855655.          ",
"                        .6666q66.5q6555575855655..         ",
"                        .666q66.5555665555556555.3.        ",
"                         .6q666.755555775555q55.94.        ",
"                         .q66666.6555555555q...392.        ",
"                        .66666666..67555555.33339<.        ",
"                         .66666..99...6755.3344922.        ",
"                          .....99..7w7.....4443943.        ",
"                         ....99.q557q577777.33943.         ",
"                       .q6666.q555557q577777.9933.         ",
"                     .q6666.q5555555765577777.33.          ",
"                   .67766.q555555555776577777...           ",
"                  .77776.555555555557767777q.              ",
"                 .77776.55555555555777777qq                ",
"                .777766.5555555557777776q7.                ",
"            ....q6666..q55555557777776677.                 ",
"           .777q66666.55q7777777766667777.                 ",
"           .77777766.5555qqqq66665557777.                  ",
"           .6666666.q555555555555777777q.                  ",
"           .66666..77q66777777777777q..                    ",
"            .4...777777777776q......                       ",
"         .....447777777776q..                              ",
"        .XXXX.OO44477777777.                               ",
"       .XXXXX.OO#OO44444444                                ",
"       .XXXXXX.OO##O..6..                                  ",
"       .XXXXXXX.....66.                                    ",
"       .XXXXXO#++.666.                                     ",
"       .####O+++.66663                                     ",
"      .++++++++.66666.                                     ",
"      .++++++#.6666666.                                    ",
"     .#####..666666333                                     ",
"    .++++..66666333                                        ",
"    .++#.3333333#.                                         ",
"   .###.  .#OOOOO.                                         ",
"   .+++.  .O####.                                          ",
"   .+#.  ..OOOOO.                                          ",
"   .#+. .OO.OOO..                                         .",
"    .++.OOOO...OO..                                       .",
"     ....OOOO.OOOO#..                                     .",
"       .OOOOO.OOO#OOO..        #                          .",
"       .OOOOO.OO#OOOO##..     #.                           ",
"       .OOOOO.OO#OOO#OOOO...#OO.                           ",
"        .......O#OO#OOOO#OOOOO.                            ",
"               ...............                             ",
"                                                           ",
"                                                           ",
"                                                           ",
"                                                           ",
"                                                           ",
"                                                           ",
"                                                           ",
"                                                           ",
"                                                           ",
"                                                           ",
"                                                           ",
"                                                           "
};
