/* XPM */
static char *_577715307502[] = {
/* columns rows colors chars-per-pixel */
"84 131 28 1 ",
"  c #8080FF",
". c black",
"X c #5858F8",
"o c #4028B0",
"O c #6870F8",
"+ c #B8C0F8",
"@ c #281078",
"# c #F8B818",
"$ c #000038",
"% c #4838E0",
"& c #E8A858",
"* c #B87838",
"= c #400808",
"- c #A0A0A0",
"; c #905010",
": c #C88808",
"> c #F8E820",
", c #90B090",
"< c #B0E0B0",
"1 c #C04898",
"2 c #983878",
"3 c #804000",
"4 c #F8F8A0",
"5 c #688068",
"6 c #E058B8",
"7 c #802860",
"8 c #602040",
"9 c white",
/* pixels */
"                                                                                    ",
"                                                                                    ",
"                                                                                    ",
"                                                                                    ",
"                                                                                    ",
"                                                                                    ",
"                                                                                    ",
"                                                                                    ",
"                                                                                    ",
"                                                                                    ",
"                                                                                    ",
"                                                  .X                                ",
"                                                  .oXX                              ",
"                                                  .oooOOOOO++++O                    ",
"                                                 .ooooooooooo@@.                    ",
"                                                .ooooooooooo@@.                     ",
"                                               .ooooooooooo@@@#                     ",
"                                               .oooo..$O%o@@@#                      ",
"                                              .@@@@.&.$..OOOXX                      ",
"                                             .@@@...&.*=-.@%+@.                     ",
"                                            .@@..&&&.&&&*;..@O@.                    ",
"                                           ....&&&&&.&&&**&...%@.                   ",
"                                          .OOOO.&&&&.&&&&&..  ....                  ",
"                                         .XXXXXOOO.&.&&&*.                          ",
"                                        .XXXXX%%:>OOO.&&&.                          ",
"                                       ........%:#%:>OO..                           ",
"                                      %.OOOOO@@...%:#%%.                            ",
"                                     %.XXOO@@OOOOO..%%...                           ",
"                                    %%.XXX@OOOOOOOOO...,,..                         ",
"                                   @%.XXX@XXoooooooXOo...<.                         ",
"                                   .%.XX@XXooooooooooX.XX...                        ",
"                                   ..XXX@XooooooooooooX.XX%%%%                      ",
"                                   ..XXX@Xooooooooooooo.XX%%%.                      ",
"                                   .XXXX@Xooooooooooooo%.XX%.                       ",
"                                   .XXXXX.oooooooooooooo.XX%.                       ",
"                                  .oXXXX.X.ooooooooooooo.XX.1.                      ",
"                                  .oooo.O@X.ooooooooooo.oXX.11.                     ",
"                                  .ooo.XXO.O.oooooooo..ooo%.11.                     ",
"                                  .@oo.oXXO.OO........@@@@@.2.                      ",
"                                   .@@.ooXO.%%XXX%%%.@@@%XX...                      ",
"                                   .@@.oo%X.%%%%%@...@@@@%%.1.                      ",
"                                    .@.ooo%X$%@..oo.oo@@@@%.1.                      ",
"                                   .@.oooo%X$%oooo.@@@%%@@@..                       ",
"                                   .@.o%%o%X@%oooo.@@@@@XX@..                       ",
"                                   .@.o%%o%%@%ooo.@@@@@@@@XX.                       ",
"                                   ..o%%%%o%.o...@@@ooooo%%X.                       ",
"                                    .%%%%%o%%.@@@@@@@@@@@@@.2.                      ",
"                                   .%%%....o%%.@@@@@@@@@@@.221.                     ",
"                                   .%%%%%%%....@@@@@@@@@..22211.                    ",
"                                  .%%%%%XXXOO.@......ooooo..2111.                   ",
"                                 .X%%%%%%%%%%O.@@@@@@ooooooo.3:*43                  ",
"                                .OX%%%%%%%%%%%%.......%%XXXX%.##>:.                 ",
"                                .o%%%%%%%%%%%%%%..%%%%......X.3:#>>.                ",
"                                 .oo%%%%%%%%%%X%%%..@@o%%XXX%.#...X.                ",
"                                  ..ooooo%%%%%%X%%%%.....@.....O%.X.                ",
"                                    ....ooooooo%XXX%%%%...XXXXXO%.X.                ",
"                                     .@@....oo.oooXOOO.&&.X%XXXO%.X.                ",
"                                     .@@@@@@....oooooo.&&.XXoOXO%.X.                ",
"                                      .@@@@@@.  .oooo.***.XXXoOO%.X.                ",
"                                      .@@@@@@.   .ooo.....XXXX@O%.%.                ",
"                                       .@@@@@@.  ..o.5..o.XXXXX@%.%.                ",
"                                       .@@@@@@.  .o...o.o.XXXXX@%.%.                ",
"                                       ..@@@@@@. .o@.oo.o.XXXXXO....                ",
"                                      .@.@@@@@@@..o.%%o.ooXXXXXO%.o.                ",
"                                    ..@@@.@@@@@.;.o.%%o.ooXXXXXO%.o.                ",
"                                     ...@@@@@..;;.o.%%o.ooXXXXO%.@o.                ",
"                                        .....*=;;.o.%%.o%%XXXXO%.@o.                ",
"                                         .****=;.oo.%%.o%%XXXXO%.@o.                ",
"                                         .****=;.oo%%%.o%%XXXXO%.@o.                ",
"                                         .***==.$oo%%.oo%%XXXX%.@@o.                ",
"                                          .*=;;.oo%%%.o%%%%XXX%.@@o.                ",
"                                          .***.$oo%%.oo%%%%XXX%.@@o.                ",
"                                           .*.o$o%%%.oo%%%%XXX%.@@o.                ",
"                                            .o$o%%%.ooo%%%%XX%.@@@.                 ",
"                                           .oo$%%%%.ooo%%%%%%%.@@@.                 ",
"                                         ..oo$X%%%.oooo%%%%%%%.@@@.                 ",
"                                        .oooo@X%%%.ooo%%%%%%%.$@@.                  ",
"                                      ..%%%o@XX%%.oooo%%%%%%%.$@@.                  ",
"                                    ..%%%%%oXXX%.ooooo%%%%%%%.$@.                   ",
"                                 ...%%%%%%oXXX%%.ooooo%%%%o%.$@@.                   ",
"                              ...%%%%%%%%oXXXX%.ooooo%%%%o%%.$@.                    ",
"                          ....%%%%%%%%%%%XXXXX.oooooo%%%@%%.$$@.                    ",
"                       ...%%%%%%%%%%%%%%XXXXXX.oooooo%@@%%%.$@..                    ",
"                      .%%%%%%%%%%%%%%%%XXXXXX..ooooo@@%%%%.$$@..                    ",
"                      .%%%%%%%%%%%%%%oXXXXXX.5.ooo$$%%%%%%.$@..                     ",
"                      .%%%%%%%%%%%%ooXXXXXX.5.....%%%%o@%.$@.o.                     ",
"                      .%%%%%%%%%%%oXXXXXXX.5.oooo%%$$@@%.$$.@o.                     ",
"                      .%%%%%%%%%ooXXXXXXX.....$$$$$%%%%%.$$@oo.                     ",
"                       .%%%%%%%@XXXXXXX..ooo%%%%%%%%%%%.$$@@o.                      ",
"                       .%%%%%o@XXXXXXX.ooo%%%%%%%%%%%%.$$$@@o.                      ",
"                        .%%%$@XXXXXXX.oo%%%%%%%%%%%%%.$$$$@@.                       ",
"                        .%$$XXXXXXX..o%%%%%%%%%%%%%%.$$$$$@.                        ",
"                        .$XXXXXXXX.ooo%%%%%%%%%%%%..$$$$$..                         ",
"                       .XXXXXXXX..oooo%%%%%%%%%%%.$$$$$..$.                         ",
"                      .XXXXXXX$. .oooo%%%%%%%%%..$$$$..$$.                          ",
"                     .XXXXX@..  .ooooo%%%%%%%..$$$$$$$$@.                           ",
"                   ..XXo...    .oooooooooooo..$$$$$$$$$o.                           ",
"                 ......        .ooooooooooo...$$$$$$$$o.                            ",
"                              .ooooooooo@$.  .$$$$$$$@o.                            ",
"                            ..ooooooo@$$..   .$$$$$$@o..                            ",
"                         ...$$$$$@@@ooo.     .$$$$$@@o..                            ",
"                      ...XX%%%%%%%%%o..      .$$$$@@@.$.                            ",
"                   ...XXXXX%%%%%%ooo.        .$$$$@@@.$.                            ",
"                   .XXXXXXX%%%oooo..          .$$@@o@@.                             ",
"                 ...XXXXXXX%ooooo.            .$$@@o@@.                             ",
"                .662.XXXXXXooooo.             .$@@@@@@.                             ",
"               .21222.XXXXooooo.              .$@@o.@@.                             ",
"               .212227.XXXoooo.               .@@@o.@@.                             ",
"               .2122787.Xoooo.                .@@@o.@@.                             ",
"                .888827.Xooo.                 .@@@@o.@.                             ",
"                .122227..oo.                  .@@@@o.@.                             ",
"               .212222. .o.                   .@@@@@o..                             ",
"              .212222.   .                   .@@@@@@ooo.                            ",
"             .268222.    .                   .@@@@@@@oo.                            ",
"             .62282.                        .@@@@@@@@ooo.                           ",
"            .21222.                         .@@@@@@@@oooo.                          ",
"            .2122.                          .@@@@@@@@@ooo.                          ",
"            .212.                            ...@@@@@@@oo.                          ",
"            .122.                           .888....@@@ooo.                         ",
"            .12.                            .88888.8........                        ",
"            .12.                           .788888.888888..8..                      ",
"            .1.                            .288888.7788..772228..                   ",
"             .                             .888888.88..88888872222.                 ",
"                                            .......................                 ",
"                                                                                    ",
"                                                                                    ",
"                                                                                    ",
"                                                                                    ",
"                                                                                    ",
"                                                                                    ",
"                                                                                    "
};
