/* XPM */
static char *_577715337836[] = {
/* columns rows colors chars-per-pixel */
"90 131 30 1 ",
"  c #8080FF",
". c black",
"X c #5858F8",
"o c #4028B0",
"O c #6870F8",
"+ c #B8C0F8",
"@ c #281078",
"# c #F8B818",
"$ c #000038",
"% c #4838E0",
"& c #E8A858",
"* c #B87838",
"= c #400808",
"- c #A0A0A0",
"; c #905010",
": c #F8E820",
"> c #C88808",
", c #804000",
"< c gray94",
"1 c #90B090",
"2 c #B0E0B0",
"3 c #983878",
"4 c #C04898",
"5 c #688068",
"6 c #E058B8",
"7 c #506050",
"8 c #602040",
"9 c #802860",
"0 c #F8F8A0",
"q c white",
/* pixels */
"                                                                                          ",
"                                                                                          ",
"                                                                                          ",
"                                                                                          ",
"                                                                                          ",
"                                                                                          ",
"                                                                                          ",
"                                                                                          ",
"                                            .X                                            ",
"                                            .oXX                                          ",
"                                            .oooOOOO+++++O                                ",
"                                           .oooooooooo@@@.                                ",
"                                          .oooooooooo@@@.                                 ",
"                                         .oooooooooo@@@##                                 ",
"                                         .oooo..$O%@@@@#                                  ",
"                                        .@@@@.&.$..OOOXX                                  ",
"                                       .@@@...&.*=-.@+O@.                                 ",
"                                      .@@..&&&.&&&*;..%X@.                                ",
"                                      ...&&&&&.&&&**&...%@.                               ",
"                                     .XO.&&&&&.&&&&&..  ....                              ",
"                                     oXXXOO.&&.&&&*.                                      ",
"                                    .XXX%:>%%OO.&&&. ##                                   ",
"                                    .XXX%#>%:>%.....#..:                                  ",
"                                 .o%%o..%%%%#>%.*.--,<.#                                  ",
"                               ..XXXOOO@X..%%%.*..--<<.>                                  ",
"                              .ooooooXOOO@XX...**..-<<.>>                                 ",
"                             .oooooooooXOOO@XX..*.*..-.%>#:                               ",
"                            .oooooooooooXOOOoXXX..***...>%,:                              ",
"                           .oooooooooooooOOOO@XXX.**...1..##>>#:                          ",
"                           .oooooooooooooXXXX@XXX...&&&.12..%# ,:                         ",
"                            .ooooooooooooXXXX@XX.&&&&&&3.222.%###                         ",
"                            .ooooooooooooXXX@XXX.4444435.122.%. #                         ",
"                           .o.oooooooooooXXX@XX.666444511.22.o. #:                        ",
"                           .o..ooooooooooXX@XXX.666672217.22.o.# ,:                       ",
"                            .%X.ooooooo...@oXXX.666647774.12.o.# ,#                       ",
"                           .o%%XOX.....Xo.oooXX.4666444443.2.o.,##                        ",
"                           .%ooooXOOOOOo.@..ooX.3466444443.2.. #>                         ",
"                           .o%%%%%%%XX..@@@o..@.3899999989.1.>>>                          ",
"                           .oooo@@%OO..@@@@oXOO..46644443.11.,#                           ",
"                           .oo@@%OO..%.o@@@o%%%.344444443.11. #                           ",
"                          .o@@%XX..%%%.@o@@@o%%.338999993.11.#                            ",
"                          .@%%%oooo%%.@@@o@@@@@@.8333333.711.                             ",
"                         .....oooooo.@@@@@o@@@@@.3333333.711..                            ",
"                        .oo%%X.oooo.@@@@@@@o%@@@@.333333.711..                            ",
"                       .o....oo.....@@@@@@@oo%@@@.33333.5711.@.                           ",
"                      .o.%XXXOOX.oo..@@@@@@@ooXo@.33999.5711.@...                         ",
"                      ..%%%%%%%X%.o. .@o@@@@@ooX.344444.551.@@.o.                         ",
"                      .%%%%%%%%X%%o.  ..oooooooo.4444444.51.@@.o..                        ",
"                      .%%%%%%%%%X%%o. .o...ooo.o.44444444.5.@@.o.o.                       ",
"                       .%%%%%%%%X%%%. .oooo...ooo.444444.>..@.o.ooo.                      ",
"                       .o%%%%%%%%X%%%......%%%..oo.>>,00>#,.@@o.oooo.                     ",
"                        .o%%%o%%%X%%%%..ooo...XXX%%.#:>,:,#.@@o.oooo.                     ",
"                         ..ooo.%%%X%%%%%..oooo...XX.>,,00>..@@o.oooo.                     ",
"                           ..oo.%%%OO%%%%...%%%%%%%.#>:>,:X.@@.ooooo.                     ",
"                             ....%%%XOO%.&&&...%%%.....::XX.@@.oooo.                      ",
"                                ..%%%%X.&&&.XXX...XO%%.X.X.@@@.oooo.                      ",
"                                  .%%%%.&&.XXOOXXXXO%%.X.X.@@.@oooo.                      ",
"                                   .%%.*&&.XXooOXXXO%%.X.%..@.@oooo.                      ",
"                                   .%%.*&&.XXXXoOOXO%%.X.%..@.@oooo.                      ",
"                                    .%..**.XXXXXooOO%%.X.%...@@@oo.                       ",
"                                    .%.5...XXXXXXX@O%%.%.%...@@@oo.                       ",
"                                   .o..5.o.XXXXXXXX@@%.%.%...@@o@o.                       ",
"                                   .o...oo.XXXXXOOOOO..%.. .@@@o@@.                       ",
"                                  .ooo...oo%%%%%%%%XXO.%.. .@@@oo@.                       ",
"                                 .oooo.55.o%%XXXXXXXXO%..  .@@@ooo.                       ",
"                                .oooo.555..%%XXXXXXXXO%.. .@.....o.                       ",
"                               .%%ooo.55..o$%%XXXXXXXXO%....*****...                      ",
"                             .@%%%oo.555..%o@%XXXXXXXXO%.**&&****.                        ",
"                            .o%%%%%.555.$$.%ooXXXXXXXXXO%.*&****.                         ",
"                           .%%%%%%.555.$$$$.%%oXXXXXXXXO%.*****.                          ",
"                          .%%%%%%.5555.$$$$.$%%XXXXXXXXO%.*****.                          ",
"                        .@%%%%%%.5555.$$$$$.o@%%XXXXXXXXO%...*.                           ",
"                       .o%%%%%%.5555.$$$$$$$.oo%%XXXXXXXO%.;.;.                           ",
"                      .%%%%%%%.55555.$$$$$$$.%%o%XXXXXXXO%.;;;.                           ",
"                     .%%%%%%%.55555.$$$$$$$$.%%%o%XXXXXXXO%...                            ",
"                   .@%%%%%%%.555555.$$$$$$$$..%%%%XXXXXXXO%.                              ",
"                  .o%%%%%%%%.555555.$$$$$$$.$.%%%%%XXXXXXO%.                              ",
"                 .%%%%%%%%%.5555555.$$$$$..$$$.%%%%XXXXXXX%.                              ",
"                .%%%%%%%%%.5555555.$$$@@.$$$$$.%%%%%XXXXXX%.                              ",
"               .%%%%%%%%%%.5555555.$$@..$$$$$$$.%%%%XXXXXXX.                              ",
"              .%%%%%%%%%%.5555555..@@.$$$$$$$$..X%%%%XXXXXX%.                             ",
"             .%%%%%%%%%%.555555..@@..$$$$$$$$$.5.X%%%%XXXXX%.                             ",
"            .oX%%%%%%%%%.555555.@..$$$$$$$$$$.55..XX%%XXXXX%.                             ",
"            @oX%%%%%%%%.555555...$$$$$$$$$$$.55.oo$XX%%XXXXX.                             ",
"           .o%X%%%%%%%.55555..$$@$$$$$$$$$$.5555.oo@XX%%XXXX.                             ",
"          .ooX%%%%%%%%.555..$@@@$$$$$$$$$$.555555.%%@%X%%XXX.                             ",
"          @ooX%%%%%%%.555.$@@@@$$$$$$$$$$.5555555..%%o%X%%XX.                             ",
"         .oooX%%%%%%.555.$@@@$$$$$$$$$$$.5555555.oo$%%%%%%%.                              ",
"         .oooX%%%%%%.55.$$$$$$$$$$$$$$$.55555555.ooo@%%%%%%.                              ",
"         .oooX%%%%%.555.$$$$$$$$$$$$$$.555555555.oo%o@%%%%..                              ",
"         .oooX%%%%%....$$$$$$$$$$$$$..555555555.oo%%%%o%%%..                              ",
"         .ooo%X%%%.   .$$$$$$$$$$$..55555555555.oo%%%%%o%%o.                              ",
"         .ooooX%%%.   .$$$$$$$$$......555555555.oo%%%%%%%%o.                              ",
"          .oooX%%.   .$$$$$$$$..@.    ..5555555.oo%%%%%%@%o.                              ",
"          .ooo%X%.   .$$$$$$..@@.       ..55555.oo%%%%%%@%o.                              ",
"           .oooX.   .$$$$$..@@..          ..555.oo%%%%%%@%o.                              ",
"            .ooo.  .$$$$..@@@.              ....oo%%%%%%@%o.                              ",
"             .oo. .$$...@@@..                   .oo%%%%%%@o.                              ",
"             .o. ....@@@@@.                      .oo%%%%%@o.                              ",
"              ....@@@@@@@.                        .oo%%%%@o.                              ",
"            ....o@@@@@@@.                          .oo%%%X$.                              ",
"            .oo.o@@@@@@.                           .oo%%%X$.                              ",
"            .oooo@@@@@.                            .oo%%%X$.                              ",
"        .....oooo@@@@.                             .ooo%%XX.                              ",
"     ...88.;.oooo@@@.                               .oo%XXX.                              ",
"    .33988.;.ooo@@@.                                .oo%XXX.                              ",
"   .838888...ooo@@.                                 .oooXXXX.                             ",
"   .898888.8.ooo@@.                                 .oooXXXX.                             ",
"    .89888.8.ooo@.                                  .oooXXXXX.                            ",
"     .988.88.oo@.                                   .ooooXXXX.                            ",
"      .8.8888.o@.                                   .ooooXXXXX.                           ",
"       .89888.o.                                    .ooooXXXXXX.                          ",
"       .89888.o.                                   .ooooo%XXXXX.                          ",
"        .98888.                                    .ooooo%XXXXXX.                         ",
"        ...888.                                    .ooooo%XXXXXXX.                        ",
"        .88..8.                                    .ooooo%%XXXXX.                         ",
"        .8888..                                    ...ooo%%XXX..                          ",
"        .88888.                                    .33...........                         ",
"        .888888.                                   .43333833333399..                      ",
"        .8888888.                                  .63333833339933339.                    ",
"         .........                                 .6433384448444333339.                  ",
"                                                    .......38333344466669.                ",
"                                                           ................               ",
"                                                                                          ",
"                                                                                          ",
"                                                                                          ",
"                                                                                          ",
"                                                                                          ",
"                                                                                          ",
"                                                                                          ",
"                                                                                          "
};
