/* XPM */
static char *_577715299184[] = {
/* columns rows colors chars-per-pixel */
"84 131 25 1 ",
"  c #8080FF",
". c black",
"X c #5858F8",
"o c #4028B0",
"O c #6870F8",
"+ c #B8C0F8",
"@ c #281078",
"# c #F8B818",
"$ c #000038",
"% c #4838E0",
"& c #E8A858",
"* c #B87838",
"= c #400808",
"- c #A0A0A0",
"; c #905010",
": c #C88808",
"> c #F8E820",
", c #506050",
"< c #C04898",
"1 c #983878",
"2 c #804000",
"3 c #E058B8",
"4 c #602040",
"5 c #802860",
"6 c white",
/* pixels */
"                                                                                    ",
"                                                                                    ",
"                                                                                    ",
"                                                                                    ",
"                                                                                    ",
"                                                                                    ",
"                                                                                    ",
"                                                                                    ",
"                                                                                    ",
"                                                                                    ",
"                                                                                    ",
"                                                    .X                              ",
"                                                    .oXX                            ",
"                                                    .oooOOOOO++++O                  ",
"                                                   .ooooooooooo@@.                  ",
"                                                  .ooooooooooo@@.                   ",
"                                                 .ooooooooooo@@@#                   ",
"                                                 .oooo..$O%o@@@#                    ",
"                                                .@@@@.&.$..OOOXX                    ",
"                                               .@@@...&.*=-.@%+@.                   ",
"                                              .@@..&&&.&&&*;..@O@.                  ",
"                                            OOO..&&&&&.&&&**&...%@.                 ",
"                                           .XX%OOO.&&&.&&&&&..  ....                ",
"                                          .XXX%%%%OOO..&&&*.                        ",
"                                        ..XXX%%%%%%:>OO.&&&.                        ",
"                                      ...........%%:#%:>O..                         ",
"                                    XX.XoOOOOOOO@...,%:#%.                          ",
"                                  XX%.XoXXXOOO@@OOOOO..%%.                          ",
"                                 X%%%.XoXXXXX@OOOOOOOOO...                          ",
"                                .%%%.XoXXXXX@XOOooooooXO.X..                        ",
"                                .ooo.XoXXXX@XXXoooooooooX.X%%%%                     ",
"                                .oo.%@XXXX@XXXooooooooooo.XX%%.                     ",
"                                .oo.%@XXXX@XXooooooooooooo.X%%                      ",
"                                 ..%%@XXXX@.Xooooooooooooo.XX.                      ",
"                                 ..o%@XXXX@.Xooooooooooooo.XX.                      ",
"                                 ..oo@oXXX.X.ooooooooooooo.XX..                     ",
"                                 ..oo.oo..O.O.ooooooooooo.oXX.<                     ",
"                                .@.oo.o.XXXO.O.ooooooooo.oooX.<                     ",
"                                .@.@@.@.%%XO.XO.ooooooo.@@@@@.1                     ",
"                                .@@.@.@..%%X.%XXX......@X@@@@..                     ",
"                                .@@@..@.oo%XO.%%%%%%%.@@@XX@@.                      ",
"                                 .@@@..ooo%%O.%%%%%..@@@@@@XXo.                     ",
"                                 .@@@@.o%%%%X.%%%%.o.o%%%%%XXX.                     ",
"                                  .@.@.o%%o%%.%%.oo.@@@@@@@@@@.                     ",
"                                  ..@.o%%%.o%%.ooo.@@@@@@@@@@.                      ",
"                                 ..@@.%%%%%..%.oo.@@@@@@@@@..                       ",
"                                .%o@.%%%%%%%%....@@@@@@@@..o.                       ",
"                                .%@.%%%%%XXXOO.@@@@@@@@..ooo..                      ",
"                                .o@.%%X%%%%%%XX.......ooooooo..                     ",
"                                .@.%XX%%%%%%%%%X.@@@@@@oooooo.1.                    ",
"                                ..OO%%%%%%%%%%%%%........%%XX%.2:                   ",
"                                ..O%%%%%%%%%%%%%Xo.%%%%%%....XX.#:                  ",
"                                ..o%%%%%%%%%%%%%%Xo..oooo%XXXXX.22                  ",
"                                .@..ooo%%%%%%%%%%Xo%%....ooooo.##.                  ",
"                                .@@o...oooooo%%%%%X%%%%%%..........                 ",
"                                 .@o@@@....ooooooooOOO%%.&.XXOXXO%.                 ",
"                                 .@o@@@@.  .......oooXOO.&.XXoOXO%.                 ",
"                                 .@o@@@.     ..oooooooo.*&.XXX@OO%.                 ",
"                                .@@o@@@.       ..oooooo.**.XXXX@O%.                 ",
"                                .@@o@@@.       .o..ooo.....XXXXX@%.                 ",
"                               .@@@@@@@@.      .o@@.oo.o.o.XXXXXO@.                 ",
"                               .@@@@@@@@.      .o@@@..oo.o.XXXXXO.                  ",
"                                .@@@@@@@@.     .o@@@@.%o.o.XXXXXO.                  ",
"                                ..@@@@@@@..   .$o@@@.%%.oo%XXXXO%.                  ",
"                                .*.......     .$o@@.%%%.o%%XXXXO..                  ",
"                                .***;;;.*.   .o$o@.%%%.o%%%XXXXO..                  ",
"                                .***;;;.**. .oo$o.%%%%.o%%%XXXX%..                  ",
"                                .***;;.****.ooo@o.%%%.o%%%%XX%X.o.                  ",
"                                .**;;..***.%oooo.%%%%.o%%%%XX%X.o.                  ",
"                                .;...=.**.%%ooo.X%%%.o%%%%%%%%X.o.                  ",
"                                .;****.*.%%%oo.XX%%%.%%%%%%%%%.oo.                  ",
"                                 .*****.%%%%o.XXX%%.o%%%%%%%%%.oo.                  ",
"                                  .....%%%%%o$XXX%.o%.%%%%%%%.@oo.                  ",
"                                    ..%%%%%o$XXXX.oo.%%%%%%%%.@oo.                  ",
"                                   .%%%%%%%$XXXXX.o.%%%%%%%%.@@o..                  ",
"                                 ..%%%%%%%@XXXXX.o.%%%%%%%%.$@@o..                  ",
"                                .%%%%%%%%oXXXXX.o.%%%%%%%%%.$@@o..                  ",
"                              ..%%%%%%%%oXXXXX.o.o%%o%%%%%.$$@@..                   ",
"                             .%%%%%%%%%%XXXXXX..o%%o%%%%%.$$@@@..                   ",
"                           ..%%%%%%%%%XXXXXXX.oo%oo%%%%%%.$$@@.o.                   ",
"                         ..%%%%%%%%%%XXXXXXX.oooo%%%o%%%.$$@@@$o.                   ",
"                       ..%%%%%%%%%%%XXXXXXX.ooo$%%%o%%%.$$$@@$oo.                   ",
"                     ..%%%%%%%%%%%%XXXXXXX.oo$$%%@@%%%.$$$@@$oo.                    ",
"                   ..%%%%%%%%%%%%XXXXXXXX.o..%%$$%%%%.$$$.@@ooo.                    ",
"                  .%%%%%%%%%%%%%XXXXXXXX...o$$$%%%%%.$$$.@@oooo.                    ",
"                  .%%%%%%%%%%%XXXXXXXXX.....%%%%%%@..$..@oo@@oo.                    ",
"                  .%%%%%%%%%%XXXXXXXXX.ooo%%%%%%o@o.$.@@@..@@oo.                    ",
"                  .%%%%%%%%oXXXXXXXXX.ooo%%%%%%@@%. .@@..@@@@oo.                    ",
"                  .%%%%%%%oXXXXXXXXX.ooo%%%%%@@%%.  ...@@@@@@oo.                    ",
"                   .%%%%%oXXXXXXXXX.ooo%%%%@@%%%.  .@@@@@@@@@oo.                    ",
"                   .%%%%@XXXXXXXXX.ooo%%%oo%%%%.   .@@@@@@@@@oo.                    ",
"                    .%%@XXXXXXXX..ooo%%oo%%%%..   .@@@@@@@@@@o.                     ",
"                     .@XXXXXXXX.ooooo%%%%%%%.    .o@@@@@@@@@@.                      ",
"                     .XXXXXXX..oooooo%%%%%..    .oo@@@@@@@@@$.                      ",
"                     .XXXXX...ooooooo%%%%.      .oo@@@@@@@@$@.                      ",
"                    .XXXX.. .oooooooooo..       .oo@@@@@@@$@.                       ",
"                    .XX.. ..oooooooooo.         .oo@@@@@@$@o.                       ",
"                   .%..  .oooooooooo..          .o@@@@@@@@o.                        ",
"                  ...  ..oooooooo@..            .o@@@@@@@@o.                        ",
"                 ..  ..ooooooo$$..              .@@@@@@@@o$.                        ",
"                   ..oooooo@@@%.                .@@@@@@@@o$.                        ",
"               ...$$$$$@@%%%%o.                  .@@@@@@o$.                         ",
"              .XXXXXXXX%%%ooo.                   .@@@@@@o$.                         ",
"             .XXXXXXXXXooooo.                    .@@@@@o$@.                         ",
"             .XXXXXXXXooooo.                      .@@@oo$@.                         ",
"         .....XXXXXXXooooo.                       .@@@oo$@.                         ",
"        .33<<.XXXXXXooooo.                        .@@@ooo..                         ",
"       .1<<111.XXXXXooooo.                        .@@.ooo..                         ",
"       .1<1111.XXXXXoooo.                         .@@.ooo..                         ",
"       .1<11141.XXXXooo.                          .@.ooooo.                         ",
"        .1144115.XXXoo.                           .@.ooooo.                         ",
"        .4411115..XXoo.                           ..oooooo%.                        ",
"        .1<1115. .XXo.                            .ooooooo%.                        ",
"        .1<111.   .%.                            .ooooooooo%.                       ",
"       .1<1115.    ..                            .ooooooooo%.                       ",
"      .111111.      .                            .oooooooooo%.                      ",
"     .134111.                                    .oooooooooo%.                      ",
"    .1131411.                                     .oooooooooo%.                     ",
"    .11<114.                                     .4..ooooooooo%.                    ",
"    .11<114.                                     .444............                   ",
"     .11<1.                                      .5444.4444.55554..                 ",
"     .11<1.                                      .1444.455.444511154.               ",
"      .1<1.                                      .4444.444.44444451111.             ",
"       .1<.                                       .....................             ",
"        .<.                                                                         ",
"         ..                                                                         ",
"                                                                                    ",
"                                                                                    ",
"                                                                                    ",
"                                                                                    ",
"                                                                                    "
};
