/* XPM */
static char *_577715381042[] = {
/* columns rows colors chars-per-pixel */
"86 131 23 1 ",
"  c #8080FF",
". c black",
"X c #5858F8",
"o c #4028B0",
"O c #6870F8",
"+ c #B8C0F8",
"@ c #281078",
"# c #F8B818",
"$ c #000038",
"% c #4838E0",
"& c #E8A858",
"* c #B87838",
"= c #400808",
"- c #A0A0A0",
"; c #905010",
": c #C88808",
"> c #F8E820",
", c #802860",
"< c #983878",
"1 c #E058B8",
"2 c #C04898",
"3 c #602040",
"4 c white",
/* pixels */
"                                                                                      ",
"                                                                                      ",
"                                                                                      ",
"                                                                                      ",
"                                                                                      ",
"                                                                                      ",
"                                                                                      ",
"                                                                                      ",
"                                                .X                                    ",
"                                                .oXX                                  ",
"                                                .oooOOOOO++++O                        ",
"                                               .ooooooooooo@@.                        ",
"                                              .ooooooooooo@@.                         ",
"                                             .ooooooooooo@@@#                         ",
"                                             .oooo..$O%o@@@#                          ",
"                                            .@@@@.&.$..OOOXX                          ",
"                                           .@@@...&.*=-.@%+@.                         ",
"                                          .@@..&&&.&&&*;..@O@.                        ",
"                                          ...&&&&&.&&&**&...%@.                       ",
"                                        .XOOO.&&&&.&&&&&..  ....                      ",
"                                       .XXX%%%OO.&.&&&*.                              ",
"                                    @o.XXX%%%%%%%OO.&&&.                              ",
"                                 oXX........o%%%%:>%OO.                               ",
"                               oXX%.XXoOOOOO@...%:#%:>%O.                             ",
"                             .oX%%.XXoOOOOOOO%%@@..%:#%.                              ",
"                             .%%%%.XoXXXOOO@XOOOOOO....                               ",
"                             .%%%.%%oXXXXX@OOOOOOOOOOO..                              ",
"                             .o%%.%@XXXXX@OOOOXoooooXOO...                            ",
"                             .oo.%%@XXXX@XXX%oooooooooX%.%..                          ",
"                             .oo.%%@XXXX@XX%ooooooooooo%.X%%%%                        ",
"                             .oo.%@XXXXX@XXooooooooooooo.X%%%.                        ",
"                             .o.o%@%XXXXX@Xooooooooooooo.XX%.                         ",
"                             .o.oo@o%%%%...ooooooooooooo.XXX.                         ",
"                            .o..oo@oooo.XXO.oooooooooooo.XXX.                         ",
"                            .o@.@o@ooo.XXXO..ooooooooooo.oX.                          ",
"                             ...@@.@@@.%%%XO..ooooooooo.ooo.                          ",
"                             .@.@@@.@@...%XO.%.oo......@@@@.                          ",
"                             .@@.@@.@@.%%@%X.%%%%%%%%.%%@@@.                          ",
"                             .@@@..@.@.%%@%%X.%%%@@...@oXX@@.                         ",
"                             .@@@.@..@.%%%@%X.%%ooo.@@@@@oXX.                         ",
"                             .@@@.@@@..%%%%@%.%oooo.oo%%%%%.                          ",
"                              .@.@@@@@.%%%%%oX.oooo.@@@@@@.                           ",
"                               ..@@@@.%%%%%%o%.ooo.@@@@@@o.                           ",
"                               .@@@@@.%%%%%%%.....@@@@..oo.                           ",
"                              .o@@@@.%%%%%%%%%.@@@@@..ooooo.                          ",
"                             .%o@@@@.%%%%%XXXOO.....ooooooo.                          ",
"                             .%@@@@.%%%X%%%%%%X.@@...@@@oooo.                         ",
"                             .o@@@@.%%X%%%%%%%%X.@@@@...XXX%%.                        ",
"                             .o@@@.oOO%%%%%%%%%%%..oo%%%...XXX.                       ",
"                             .@o@@.ooX%%%%%%%%%%%%o..oo%%%%..X.                       ",
"                             .@@o@@..ooo%%%%%%%%%%Xo%...o%%XXX..                      ",
"                             .@@@o@@@..oooo%%%%%%%%Xo%%%.......#.                     ",
"                              .@@o@@@@@...oooo%%%%%%Xo%%%.&.XXX..                     ",
"                              .@@o@@@@.   .....ooo%%%OOOO.&.XXXO.                     ",
"                              .@@o@@@@.     .oo......oooo.&.XXXO.                     ",
"                               .@o@@@@.     .oo@@..ooooo.&&.XXXO.                     ",
"                               .@o@@@@.     .oo@@@@..ooo.&&.XXXO.                     ",
"                               .@o@@@@.     .oo@@@@.o.o.....XXXO.                     ",
"                               .@o@@@@.     .oo@@@@.%.o.o.o.XXXO.                     ",
"                               .@@@@@@@.   .ooo@@@@.%..oo.o.XXXO.                     ",
"                              .@@......@.  .ooo@@@.%%.%o.oo.XXX.                      ",
"                              .@.**;;;;..  .ooo@@@.%%%%o.o%XXXX.                      ",
"                               .****.***. .oooo@@.%%%%%.o%%XXXX.                      ",
"                              .*****.***. .oooo@.X%%%%%.o%XXXXX.                      ",
"                              .*****.***...oooo@.X%%%%.o%%XXXX.                       ",
"                              .****;=..*.o.oooo.X%%%%%.%%%XXXX.                       ",
"                              .;;;;..**.o.oooo.XX%%%%.%%%%XXXX..                      ",
"                              .;...***.%o.oooo$XX%%%.%%%%%XXX.o.                      ",
"                              ..;;;...%%o.ooo$XXX%%%.%%%%%XXX.o.                      ",
"                              .****..%%%$%oo$XXXX%%.%%%%%%XX.@oo.                     ",
"                              .***.%%%%%$%oo@XXXX%.%%%%%%%%%.@oo.                     ",
"                               ...%%%%%$%%o@XXXXX.o%%%%%%%%.@@oo.                     ",
"                               .%%%%%%o$%o@XXXXX.o%%%%%%%%%.@@oo.                     ",
"                             ..%%%%%%%@%%@XXXXX.oo%%%%%%%%.@@@oo.                     ",
"                            .%%%%%%%%o@%@XXXXXX.o%%%%%%%%o.@@@oo.                     ",
"                          ..%%%%%%%%%@%%XXXXXX.oo%%%%%%%o.$@@@ooo.                    ",
"                         .%%%%%%%%%%o%%XXXXXX.oo%%%%%%%o.$$@@@ooo.                    ",
"                        .%%%%%%%%%%o%%XXXXXX.oo%%%%%%%o%.$$@@oooo.                    ",
"                       .%%%%%%%%%%%%%XXXXXX.ooo%%%%%@o%.$$$@@oooo.                    ",
"                      .%%%%%%%%%%%%%XXXXXX.ooo%%%%o@%%.$$$$@ooooo.                    ",
"                     .%%%%%%%%%%%%XXXXXXX.oooo%%o@@%%%.$$$.oooooo.                    ",
"                    .%%%%%%%%%%%%XXXXXXX.oooo%o@@%%%%.$$$.o@@@ooo.                    ",
"                   .%%%%%%%%%%%XXXXXXXX.ooooo$$%%%%%. .$.@@@@@ooo.                    ",
"                   .%%%%%%%%%%XXXXXXXX..oo...%%%%%%.  ..@@@@@@ooo.                    ",
"                  .%%%%%%%%%%XXXXXXXX. ...%%%%%%%%%. .@@..@@@@ooo.                    ",
"                  .%%%%%%%%%XXXXXXXX...oo%%%%%%%%%.  ...ooo@@@ooo.                    ",
"                  .%%%%%%%XXXXXXXXX.oooo%%%%%%%%%.   .@@..@@@@ooo.                    ",
"                  .%%%%%%XXXXXXXXX.oooo%%%%%%%%%.   .o@@@@..@@oo.                     ",
"                   .%%%%XXXXXXXXXX.ooo%%%%%%%%%.    .o@@@@@@@@oo.                     ",
"                   .%%%XXXXXXXXXX.oooo%%%%%%%..    .oo@@@@@@@@@.                      ",
"                    .%XXXXXXXXXX.ooooo%%%%%%.      .oo@@@@@@@@@.                      ",
"                     .XXXXXXXXX.ooooooooooo.      .@oo@@@@@@@@.                       ",
"                     .XXXXXXXX.ooooooooooo.       .@@o@@@@@@@..                       ",
"                      .XXXXXXX.ooooooooo..        .@@@@@@@@@.@.                       ",
"                       .XXXXX.ooooooooo.          .@@@@@@@@.@..                       ",
"                        .XXXX.oooooooo.            .@@@@@@@@@..                       ",
"                         .XX.ooooooo..             .@@@@@@@@@..                       ",
"                        .o...oooooo.                .@@@@@@@.@.                       ",
"                      .ooooo@@@%%..                 .@@@@@@o.@.                       ",
"                    ..ooo@@@%%%o.                    .@@@@@o@@.                       ",
"                ...$$$$$$%%%oo..                     .@@@@@o@@.                       ",
"               .XXXXX%%%%oooo.                       ..@@@@o@@.                       ",
"              .XXXXXXoooooo..                         .@@@@o@@@.                      ",
"             .XXXXXooooooo.                           ..@@@oo@@.                      ",
"          ....XXXXooooooo.                            .@.@oo%@@.                      ",
"        .,<<<.XXXXoooooo.                             .@@.oo%@@.                      ",
"       .<112<.XXXXooooo.                              .@.oooo%@.                      ",
"       .<1<<<<.XXXoooo.                               ..ooooo%@.                      ",
"       .<2<<<<..XXooo.                                .ooooooo%@.                     ",
"       .<2<<<3..XXoo.                                .ooooooooo%.                     ",
"       .<<<<3<.*.Xoo.                               .ooooooooooo%.                    ",
"       .<<<3<<<..Xo.                                .oooooooooooo%.                   ",
"        .33<<<<. .o.                                .ooooooooooooo%.                  ",
"        .<2<<<,. ..                                 .ooooooooooooooo.                 ",
"        .<2<<<,   .                                 .oooooooooooo......               ",
"        .333<<3                                      ...oooooo......                  ",
"        .<<23<.                                       .3......333333...               ",
"       .<<11<3.                                       .,33333.3,,,..,,,3..            ",
"       .<<11...                                       .<33333.333.33,<<<<,,..         ",
"       .<<<222..                                      .333333.33.3333333,<<<<,.       ",
"       .<<<<<22<.                                      ........................       ",
"        .<<<<<<22.                                                                    ",
"         .........                                                                    ",
"                                                                                      ",
"                                                                                      ",
"                                                                                      ",
"                                                                                      ",
"                                                                                      ",
"                                                                                      ",
"                                                                                      ",
"                                                                                      "
};
