/* XPM */
static char *_577715328076[] = {
/* columns rows colors chars-per-pixel */
"92 126 30 1 ",
"  c #8080FF",
". c black",
"X c #5858F8",
"o c #4028B0",
"O c #6870F8",
"+ c #B8C0F8",
"@ c #281078",
"# c #F8B818",
"$ c #000038",
"% c #4838E0",
"& c #E8A858",
"* c #B87838",
"= c #400808",
"- c #A0A0A0",
"; c #905010",
": c #F8E820",
"> c #C88808",
", c gray94",
"< c #804000",
"1 c #90B090",
"2 c #B0E0B0",
"3 c #983878",
"4 c #688068",
"5 c #C04898",
"6 c #E058B8",
"7 c #506050",
"8 c #602040",
"9 c #802860",
"0 c #F8F8A0",
"q c white",
/* pixels */
"                                                                                            ",
"                                                                                            ",
"                                                                                            ",
"                                                                                            ",
"                                                                                            ",
"                                                                                            ",
"                                                                                            ",
"                                                                                            ",
"                                                                                            ",
"                                         .X                                                 ",
"                                         .oXX                                               ",
"                                         .oooOOOO+++++O                                     ",
"                                        .oooooooooo@@@.                                     ",
"                                       .oooooooooo@@@.                                      ",
"                                      .oooooooooo@@@##                                      ",
"                                      .oooo..$O%o@@@#                                       ",
"                                     .@@@@.&.$..OOOXX                                       ",
"                                    .@@@...&.*=-.@+O@.                                      ",
"                                   .@@..&&&.&&&*;..%X@.                                     ",
"                                   oX.&&&&&.&&&**&...%@.                                    ",
"                                   XXXOO.&&.&&&&&..  ....                                   ",
"                                  .XX%%%XOO.&&&*. #                                         ",
"                                  .XX%%:>%%X.&&&.#.#                                        ",
"                                .XX..%%#>:>%....,<,.                                        ",
"                            .o%%%..XX...%#>.**.-,,,.                                        ",
"                          .%OOOOOOOX@XXX..%.*..-,,.>#                                       ",
"                         .oooooXOOOOOO@XXX..*.*..-...#.                                     ",
"                        ..ooooooo%OOOOO@XXXX..***..12...                                    ",
"                        .oooooooooooOOOO@XXXX.*****.1222...                                 ",
"                        .ooooooooooooXXX@XXXX..**..*.12222.                                 ",
"                        .oooooooooooooXX@XXXX.&..&&&3.2222.                                 ",
"                        .oooooooooooooXX@XXXX.3&&&&341.222.o                                ",
"                         .ooooooooooooXX@XXXX.55555411.12.o%.                               ",
"                          .oooooooooooXX@XXXX.566512273.2.o%.                               ",
"                         .X.ooooooooooX@ooXXX.566677753.2.oo                                ",
"                         .%X.oooo......@.ooXX.566655553.2.o.                                ",
"                         ..%XOOOOOOOX%.@@.ooX.366655558.1..                                 ",
"                         .o.%%%%%OO...@@@@.@@.88899998..1..                                 ",
"                         .oo.%XOO..o.@@@@@oXOO.36665553.1.                                  ",
"                         .ooXX..o%%%.o@@@@o%%%.35555553.1.                                  ",
"                         .XX%oo%%%%%.@o@@@oo%%o.999983.71..                                 ",
"                        .%%%%%%%%%%.@@@o@@@@@@@.33333.471..                                 ",
"                       .%%%%%%%%%..@@@@@o%@@@@.333333.471.@.                                ",
"                      .oo...ooo..@@@@@@@@o%@@@.333333.471.@.                                ",
"                     .o.%%%%...o.@@@@@@@@@o%X@.333333.471.@@.                               ",
"                     ..%%XXXX%.oo..@@@@@@@@o%X.333999.441.@@...                             ",
"                    ..%%%%%%%OO.o. .@@@@@@@ooo.3355555.41.@@.o.                             ",
"                    .%%%%%%%%%X%o.  ..@oooooooo.5555555.1.@@.o..                            ",
"                    .%%%%%%%%%XX%%. .o...@@oooo.55555555..@.@o.o.                           ",
"                    .%%%%%%%%%%X%%%...ooo.....oo.5555500>.@.@o.oo.                          ",
"                     .%%%%%%%%%X%%%%. ...o%%%oooo.<>><:<.#.@@@.ooo.                         ",
"                      ..%%%%o%%%X%%%%..@@....%XXX.###><0#..@@.@ooo.                         ",
"                        ..ooo.%%%XX%%%..ooooo...X.<>><:<<%.@@.@ooo.                         ",
"                          ..oo.%%%XOO%%%....%%%%%.###><::%.@@.@ooo.                         ",
"                            ....%%%%XOO.&&&...........XX.%.@@.@oo.                          ",
"                               ..%%%%%.&&&.XOOOXXXXO%%.XX..@.@@oo.                          ",
"                                 .%%%%.&&&.X%%%OOOXXO%%.X..@.@@oo.                          ",
"                                  .%%.*&&&.XXXXoooOOO%%.XX.@.@@@o.                          ",
"                                   .%...***.XXXXXXoooO%%.%.@@@@@.                           ",
"                                   .%.4.....XXXOOOOOOoo%.%.@@@@@.                           ",
"                                    ..4.o.oo.%XXX%%@@$$$@%.@@@@@.                           ",
"                                    ...oo.oo.%%XXXXXXXXO%.@@@@@@.                           ",
"                                   .%..o.ooo%%%XXXXXXXXO%o@@@@@@.                           ",
"                                  .%%.o..ooo%%%%XXXXXXXXO%.@@@@@.                           ",
"                                 .%%%oo.4.$$%%%%%XXXXXXXOO%.@@@@@.                          ",
"                                .%%%%o.44..o@@@%%XXXXXXXXXOo@@@@@.                          ",
"                               .%%%%o.444.$.o%%oooXXXXXXXXO%......                          ",
"                              .%%%%%o.4444.$.$%%%%%XXXXXXXXO%.***.                          ",
"                             .%%%%%%.4444.$$.o$$%%%%XXXXXXXXOo**.                           ",
"                            .o%%%%%.44444.$$$.oo@@%%%XXXXXXXO%..                            ",
"                            @%%%%%%.4444.$$$$$.oo%oo%XXXXXXXXO%.                            ",
"                           .%%%%%%.4444.$$$$$$.oo%%%%%XXXXXXXXOo                            ",
"                          .%%%%%%.44444.$$$$$$$.oo%%%%%XXXXXXXO%.                           ",
"                         .o%%%%%%.4444.$$$$$$$$$.o%%%%%%XXXXXXXO.                           ",
"                         @%%%%%%.44444.$$$$$$$$$$.o%%%%%%XXXXXXOo                           ",
"                        .%%%%%%.44444.$$$$$$$$$$$$.%%%%%%%XXXXXO%.                          ",
"                       .%%%%%%%.44444.$$$$$$$$$$@.$.%%%%%%XXXXXXO.                          ",
"                      .%%%%%%%.444444.$$$$$$$$$@.$$..%%%%%%XXXXXOo                          ",
"                     .o%%%%%%%.444444.$$$$$$$@@.$$.44.%%%%%%XXXXXO.                         ",
"                     @%%%%%%%.4444444.$$$.$$@..$$$.444.X%%%%%XXXXO.                         ",
"                    .%%%%%%%%.4444444.$$.$@@.$$$$.4444..XX%%%%XXXX.                         ",
"                   .%%%%%%%%.4444444....@@..$$$$$.4444.%$$XX%%%XXXX.                        ",
"                  .%%%%%%%%%.444444.@@@@..$$$$$$.444444.%%$$OO%%XXX.                        ",
"                 .%%%%%%%%%.4444444.$$..$$$$$$$$.4444444.%%%@@OOOXX.                        ",
"                .%%%%%%%%%%.4444444...$$$$$$$$$.44444444..%%%%ooXXX.                        ",
"               .o%%%%%%%%%.444444...$$$$$$$$$$.444444444.%$%%%%%%%X.                        ",
"               @%%%%%%%%%%.4444..$@@$$$$$$$$$$.44444444.%%%$%%%%%%X.                        ",
"              .%%%%%%%%%%.4444.$@@@$$$$$$$$$$.444444444.%%%o$%%%%%X.                        ",
"             .%%%%%%%%%%%.444.$$$$$$$$$$$$$..4444444444.%%%%@%%%%%X.                        ",
"             .%%%%%%%%%%.....$$$$$$$$$$$$..44444444444.%%%%%%@%%%%.                         ",
"             .%%%%%%%%%%.  .$$$$$$$$$$$...444444444444.%%%%%%o@%%%.                         ",
"             .%%%%%%%%%.   .$$$$$$$$$..$. ..4444444444.%%%%%%o@%%%.                         ",
"              .%%%%%%%%.  .$$$$$$$$$$$$.    ..44444444.%%%%%%%o@%%.                         ",
"              .%%%%%%%.   .$$$$$$$$$$$.       ..444444.o%%%%%%o@%%.                         ",
"               .%%%%%%.  .$$$$$$$$$@@.          ..44444.o%%%%%o@%%.                         ",
"               .%%%%%.   .$$$$$$$@@..             ..444.oo%%%%oo%%.                         ",
"                .%%%%.  .$$$$$$@@..                 .....oo%%ooo%..                         ",
"                 ..%.   .$$$@@@...                      .ooooooo%..                         ",
"                   ..  .@@@@@..@.                        .ooooo%.@.                         ",
"                      .@@@...@@.                          .oooo%o@X.                        ",
"                     .@...@@@@.                            .oooo@XX.                        ",
"                   ....@@@@@@@.                            .oooo@XX.                        ",
"                 ..@@@@@@@@@@.                             .ooo@XXX.                        ",
"                 .@@@oo@@@@@@.                              .o@XXXX.                        ",
"                 .oooo@@@@@@.                               .o@XXXX%.                       ",
"                  .ooo@@@@@@.                               .@XXXXX%.                       ",
"                  .oo@@@@@@@.                               .XXXXXX%.                       ",
"                ....o@@@@@@.                               .XXXXXXXX%.                      ",
"              ..98.;.@@@@@@.                               .XXXXXXXX%.                      ",
"             .8388...@@@@@@.                              .XXXXXXXXX%%.                     ",
"            .83988.8.@@@@@.                              .XXXXXXXXXXX%.                     ",
"            .89888.88.@@@@.                            ..XXXXXXXXXXXX%..                    ",
"            .89888.888.@@@.                              ..XXXXXXX....3.                    ",
"             ..888.8888.@@.                                .......333333.                   ",
"               ..8.88888.@.                                .5333339333333.                  ",
"                 .898888...                                .63333383333333.                 ",
"                  .98888.                                  .365333855333999.                ",
"                  .8......                                  .......335383333..              ",
"                   .988888..                                       ..385633333..            ",
"                   .99998888..                                       ..336653333..          ",
"                   .8888999999.                                        .333555555.          ",
"                   .............                                        .........           ",
"                                                                                            ",
"                                                                                            ",
"                                                                                            ",
"                                                                                            "
};
