/* XPM */
static char *_577715332956[] = {
/* columns rows colors chars-per-pixel */
"97 131 30 1 ",
"  c #8080FF",
". c black",
"X c #5858F8",
"o c #4028B0",
"O c #6870F8",
"+ c #B8C0F8",
"@ c #281078",
"# c #F8B818",
"$ c #000038",
"% c #4838E0",
"& c #E8A858",
"* c #B87838",
"= c #400808",
"- c #A0A0A0",
"; c #905010",
": c #F8E820",
"> c #C88808",
", c gray94",
"< c #804000",
"1 c #90B090",
"2 c #B0E0B0",
"3 c #983878",
"4 c #C04898",
"5 c #688068",
"6 c #E058B8",
"7 c #506050",
"8 c #602040",
"9 c #802860",
"0 c #F8F8A0",
"q c white",
/* pixels */
"                                                                                                 ",
"                                                                                                 ",
"                                                                                                 ",
"                                                                                                 ",
"                                                                                                 ",
"                                                                                                 ",
"                                                                                                 ",
"                                                                                                 ",
"                                                                                                 ",
"                                                .X                                               ",
"                                                .oXX                                             ",
"                                                .oooOOO++++++O                                   ",
"                                               .ooooooooo@@@@.                                   ",
"                                              .ooooooooo@@@@.                                    ",
"                                             .ooooooooo@@@@##                                    ",
"                                             .oooo..$O%@@@##                                     ",
"                                            .@@@@.&.$..OOOXX                                     ",
"                                           .@@@...&.*=-.@+%@.                                    ",
"                                          .@@..&&&.&&&*;..O%@.                                   ",
"                                         oO..&&&&&.&&&**&...Xo.                                  ",
"                                         oXXOO.&&&.&&&&&..  ....                                 ",
"                                        .XX%%%%OO..&&&*.                                         ",
"                                        .XX%:>%%%.*.&&&. ##                                      ",
"                                     .%%..X%#>:>%.**....#..#>::>                                 ",
"                                .o%%%o.XXX..%%#>.****.-,<,.## <##                                ",
"                               @XOOOOOOOo@XX..%%.**..--,,.>  ##>>#                               ",
"                              .ooooooOOOOOo@XX...*.*..-,,.ooo  <#:                               ",
"                             .ooooooooo%OOOO@XXX..**.*....%%%%o# <:                              ",
"                             .oooooooooo%OOOO@XXXX.*****.1..%%%# <#                              ",
"                            .oooooooooooo%OOO@XXXXX..**...12..%%##                               ",
"                            .oooooooooooooXXXX@XXXX.&..&&&.222..>.                               ",
"                            .oooooooooooooXXXX@XXX.&&&&&&&3.222.>.                               ",
"                             .ooooooooooooXXXX@XXX.44444445.122.o.                               ",
"                             .ooooooooooooXXX@XXX.6666645111.22.o.                               ",
"                              .oooooooooooXX@XXXX.6666722217.12.o.                               ",
"                             .X.ooooooooo%%.ooXX.666666777743.2.o.                               ",
"                            .%%X.oo........@.ooX.666666444443.2.:                                ",
"                             .o%XOOOOOOXo.@@@.@@.466666444443.2.#                                ",
"                             .oooooo%XO...@@oXOO..8899999333..1.>                                ",
"                             .oo@@%OO..%.o.@o%%%.366664443883.1.                                 ",
"                             .@@%OO..%%%.@o.@o%%.336644444433.1..                                ",
"                            .@%XX..%%%%.@@oo@@oo.333999994433.1..                                ",
"                            .%%.oo%%%%o.@@@oo@@@@.8933333993.11.@.                               ",
"                           .%oooo%%%%%.@@@@@o%@@@.333333338.71.@@.                               ",
"                           .oooo%%%%%o.@@@@@oo%@@.33333333.571.@@o.                              ",
"                          .oo...ooooo.@@@@@@@ooX@.33333333.571.@@o....                           ",
"                         .%%%%%%..... .@@@@@@@ooX.33333339.55.@@@oo.o.                           ",
"                        .%%XXXXXOO%.o. ..@o@@@oooX.3999933.55.@@@@o.o..                          ",
"                        .%%%%%%%%X%%..   ..oo@@ooo.34444444.5.@@@@o.o.o.                         ",
"                        .%%%%%%%%X%%%.  .oo..ooooo.334444444..@@@@.@o.oo..                       ",
"                        .%%%%%%%%X%%%%. .oooo..ooo.343444400>.@@@@.@o.oooo.                      ",
"                        .o%%%%%%%%X%%%.  .ooo%%..oo.<<>><:><<#.@@@@@o.oooo.                      ",
"                         .oo%%%%%%X%%%%. ....ooXX.oo.###><00>..@@@@@@.oooo.                      ",
"                          .ooo.%%%%X%%%%.oooo...%XXX.<>><:><.X.@@@@@@.oooo.                      ",
"                           ..oo.%%%%X%%%%...%%%%%%%%.####>::XX.@@@@@@@oooo.                      ",
"                             ..o.%%%%OO%%%%...............X.XXX.@@@@.@oooo.                      ",
"                                ..%%%%XOO%.&&&...XXOOXX%%.X.XXX..@@@.@oooo.                      ",
"                                  .%%%%%X.&&&.XXXXX%%OO%%.XX.X%. .@@.@oooo.                      ",
"                                   .%%%%%.&&&.XXXXXXXooO%%.X.X%.  .@.@oooo.                      ",
"                                    .%%%.*&&&.XXXXXXXXXoo%.XX.%.   ..@@oo.                       ",
"                                     .%%...**.XXXXXXXXXXO@@.%.%.   ..o@oo.                       ",
"                                    ..%.555...XXXXXOOOOOOO%.%.%.   ..o@@o.                       ",
"                                    .o..55..o.%%%%%%%%%%XO%%...    .oo@@@.                       ",
"                                   .oo.55.5.o.%%%%%XXXXXXXO%...    .ooo@@.                       ",
"                                  .ooo.5.55.ooo%oXXXXXXXXXO%%..    .ooooo.                       ",
"                                 .%ooo.5.555.oo@%XXXXXXXXXXO%.    .ooooooo.                      ",
"                                .%%oooo.55555.$%%%XXXXXXXXXO%%.   .o.......                      ",
"                               .%%%ooo.555.55..%%%%XXXXXXXXXO%.  ...******.                      ",
"                              .%%%%oo.555.55.$$.$%%%XXXXXXXXO%%..*&&&****.                       ",
"                             .%%%%%o.5555.5.$$$.%@@%%XXXXXXXXO%.**&&****.                        ",
"                            .%%%%%o.5555.55.$$$$.%%oo%XXXXXXXO%%.******.                         ",
"                           .%%%%%%.55555.5.$$$$$.%%%%%XXXXXXXXO%.******.                         ",
"                          .%%%%%%.55555.5.$$$$$$$.%%%%%XXXXXXXO%.**..;.                          ",
"                         .%%%%%%%.55555.5.$$$$$$$.%%%%%XXXXXXXO%%...;;.                          ",
"                         .%%%%%%.55555.5.$$$$$$$$$.%%%%%XXXXXXXO%.;;.;.                          ",
"                        .%%%%%%%.55555.5.$$$$$$$.$.%%%%%%XXXXXXO%.;;;.                           ",
"                       .%%%%%%%.55555.55.$$$$$$.$$$.%%%%%XXXXXXX%%...                            ",
"                       .%%%%%%%.55555.55.$$$$$.$$$$$.%%%%%XXXXXXX%.                              ",
"                      .%%%%%%%.55555.555.$$$$.$$$$$..%%%%%%XXXXXX%.                              ",
"                     .%%%%%%%%.55555.555.$$$.@$$$..$$.%%%%%%XXXXX%.                              ",
"                     .%%%%%%%%.55555.555.$..@$...@@$$..%%%%%XXXXXX%.                             ",
"                    .%%%%%%%%.55555.5555......@@@$$$.55.%%%%%XXXXX%.                             ",
"                    .%%%%%%%%.55555.55..@@@@@@@$$$$$.555.%%%%XXXXX%.                             ",
"                   .%%%%%%%%%.55555.55.@.....$$$$$$.5555.$X%%%XXXX%.                             ",
"                   .%X%%%%%%.5555555....$$$$$$$$$$.55555.o$OX%%XXXX.                             ",
"                   .oX%%%%%%.55555..$$$$$$$$$$$$$$.555555.o$OOXXXXX.                             ",
"                  .oo%X%%%%%.555..$@@@$$$$$$$$$$$.5555555..o$%OOXXX.                             ",
"                  .oooX%%%%%.55.$$@@@$$$$$$$$$$$.55555555.o.o$%%%%X.                             ",
"                  .ooo%X%%%%.5.$$$$$$$$$$$$$$$$.55555555.oo$%o@%%%X.                             ",
"                  .ooooX%%%%..$$$$$$$$$$$$$$$$.555555555.ooo$%%@%%%.                             ",
"                  .oooooX%%%.$$$$$$$$$$$$$$$..5555555555.oo%o@%%X%%X.                            ",
"                  .ooooooX%%.$$$$$$$$$$$$$..555555555555.oo%%%o%%X%%.                            ",
"                  .oooooooo%.$$$$$$$$$$...55555555555555.oo%%%%@%%X%.                            ",
"                  .oooooooooo.$$$$$$...@....555555555555.oo%%%%%@%%X.                            ",
"                   ..oooooooo.$$$...@@..    ...5555555555.o%%%%%X@%%X.                           ",
"                     ..oooooo....@@@..         ..55555555.oo%%%%%X$%%.                           ",
"                       ...ooo.@@@@@.             ..5555555.oo%%%%%X$%.                           ",
"                        ....oo.@@@.                ....5555.oo%%%%%X$%.                          ",
"                     ....@@@...@@.                     ......ooo%%%XX$.                          ",
"                  ...ooooo@@@@.@.                            .oooo%XXX$.                         ",
"                  .ooooooo@@@@@.                              .ooo%XXXX.                         ",
"                  .ooooooo@@@@.                                .oo%%XXXX.                        ",
"                  .ooooooo@@@.                                  .o%%XXXXX.                       ",
"                  ..oooooo@@@.                                  .o%%XXXXXX.                      ",
"                ..;.oooooo@@.                                    .%%XXXXXXX.                     ",
"               .98..oooooo@.                                     .%%XXXXXXXX.                    ",
"              .3888..oooo@@.                                     .%%XXXXXXXXX.                   ",
"             .338888.oooo@.                                       .%%XXXXXXXXX.                  ",
"             .988888..ooo@.                                       .%%XXXXXXXXXX.                 ",
"             .98888.88.oo.                                        .%%XXXXXXXXX...                ",
"              .8888.888.o.                                        .%%%XXXXX...5.                 ",
"               ....88888..                                        .%%%XX...555.                  ",
"                 .898888.                                         .%%%..*.555.                   ",
"                 .898888.                                         .%%.****.5.                    ",
"                 .898888.                                         .%......9..                    ",
"                 .898....                                         ..333833339.                   ",
"                 .8..888..                                        .33333833333..                 ",
"                 ..9888888..                                      .4333338433333..               ",
"                 .8899888888.                                     .633333834433899..             ",
"                 .88889999999.                                    .64433383338833333..           ",
"                  ............                                     .........8334443333..         ",
"                                                                            ....33466664..       ",
"                                                                                ..........       ",
"                                                                                                 ",
"                                                                                                 ",
"                                                                                                 ",
"                                                                                                 ",
"                                                                                                 ",
"                                                                                                 ",
"                                                                                                 ",
"                                                                                                 "
};
