/* XPM */
static char *_577715359682[] = {
/* columns rows colors chars-per-pixel */
"77 131 25 1 ",
"  c #8080FF",
". c black",
"X c #5858F8",
"o c #4028B0",
"O c #6870F8",
"+ c #B8C0F8",
"@ c #281078",
"# c #F8B818",
"$ c #000038",
"% c #4838E0",
"& c #E8A858",
"* c #B87838",
"= c #400808",
"- c #A0A0A0",
"; c #905010",
": c #C88808",
"> c #F8E820",
", c #C04898",
"< c #983878",
"1 c #802860",
"2 c #804000",
"3 c #688068",
"4 c #602040",
"5 c #E058B8",
"6 c white",
/* pixels */
"                                                                             ",
"                                                                             ",
"                                                                             ",
"                                                                             ",
"                                                                             ",
"                                                                             ",
"                                                                             ",
"                                                                             ",
"                                                                             ",
"                                                                             ",
"                                                                             ",
"                                  .X                                         ",
"                                  .oXX                                       ",
"                                  .oooOOOO+++++O                             ",
"                                 .oooooooooo@@@.                             ",
"                                .oooooooooo@@@.                              ",
"                               .oooooooooo@@@##                              ",
"                               .oooo..$O%@@@@#                               ",
"                              .@@@@.&.$..OOOXX                               ",
"                             .@@@...&.*=-.@+O@.                              ",
"                            .@@..&&&.&&&*;..%X@.                             ",
"                            ...&&&&&.&&&**&...%@.                            ",
"                           .XXOO.&&&.&&&&&..  ....                           ",
"                           oXX%%%XOO.&&&*.                                   ",
"                          .XXX%%%:>%XOO.&.                                   ",
"                          ...%%%%:#%:>%..                                    ",
"                         oXXX..%%%%%:#%..                                    ",
"                        oXXXXXX....%%%.-.                                    ",
"                        %XXX@oXOOOO....-.                                    ",
"                       oXX@oOOOOOOOOO.X.....                                 ",
"                      oXX@OOO%ooooo%XX.XXXX.                                 ",
"                      XX@XX%ooooooooo%X.XXX.                                 ",
"                     oXX@X%ooooooooooo%.XXX..                                ",
"                     XX@X%ooooooooooooo.XXX..                                ",
"                    .XX@X%ooooooooooooo.XXX.,.                               ",
"                    o%X@%oooooooooooooo.XXX.,.                               ",
"                   .oo%o@oooooooooooooo.XXX.,,.                              ",
"                   .oooo$ooooooooooooo.ooXX.<<.                              ",
"                   .oo....ooooooooooo.ooooX.1.                               ",
"                    .o.%%X.oooooooo.......@.,.                               ",
"                    .o..o%XXXo.....%.@@o%OO.<.                               ",
"                     ..%.oo%%XXXXX%.@@@@o%%.<.                               ",
"                     .o%%o%%%%%%%..oo@@@@o%..                                ",
"                     .%o%%o%%XX..o.@@%%@@@@..                                ",
"                    .%%o%%%XX..%o.@@@@@XX@..                                 ",
"                    .%%oo%%oo%%%o.@@@@@o%%.1                                 ",
"                   .%%%oo%@oo%%%.@@@@@o%.@.<.                                ",
"                   .%%%oooo@ooo.@@@@oo..@@.<<.                               ",
"                  .%%oo....o@o.@@@oo..@@@oo.<<.                              ",
"                 .%oo%%%%%%...@@@o.......@@.<<:.                             ",
"                .oo@.......$$$......%%%%%%%%.:##.                            ",
"               .oo@%%XXXOOO.$$.@ooo%%%%%XXXX.##:2>                           ",
"               .o%%%%%%%%%X%...@@@.........%X.2#:>.                          ",
"              .oo%%%%%%%%%%X%%...ooo%%%%%%%%%.#....                          ",
"              .ooo%%%%%%%%%%X%%%%..............XXO.                          ",
"               ..oo%%%%%%%%%%XXX%%%%%%%.&&.XXXXXXO.                          ",
"                 ..oo%%%%%%%%%%%XXXOOO.&&.XXXXXXXO.                          ",
"                   ..oo%%%%%%%%%%%%%%%.&&.X%XXXXXO.                          ",
"                     ..........%%%%%%.***.XX%%XXXO.                          ",
"                            .@@..%%%%.....XXXXoXXO...                        ",
"                            .@@.o..%.oo.o.%ooXXooO.@.                        ",
"                             .@.ooo..oo.o@@XXXXXX@.@.                        ",
"                             .@.oooo.oo.@%%%%ooXXO...                        ",
"                             .@.oooo.oo.%%@@@XXXXO.@@.                       ",
"                             .@.ooooooo.@@%XXXXXX%.@@o.                      ",
"                             .@.ooooooo.%%XXXXXXX.$@@oo.                     ",
"                             .@.%oooooo.%%XXXXXXX.$@@ooo.                    ",
"                             ...%%ooooo.%%XXXXXX%.$@@oooo.                   ",
"                             .*.%%%oooo.%XXXXXXX@.$@@@oooo.                  ",
"                             .*.%%%%oo.%%XXXXXX%.$$@@@ooooo.                 ",
"                            .;*.%%%%oo.%%XXXXXXo.$$@@@@oooo@                 ",
"                            .;.%%%%%%o.%%XXXXXX@.$$@@@@ooooo.                ",
"                            .;.%%%%%%o.%%XXXXXo.$$$@@@@@oooo@                ",
"                            .;.%%%%%%.%%%XXXXX@.$$$@@@@@ooooo.               ",
"                             .%%%%%%%.%%%XXXX@o.$$$@@@@@@oooo@               ",
"                             .%%%%%%%.%%%XXX@%......@@oooooooo.              ",
"                            .%%%%%%%.o%%%%XX@%.$$$$$.....ooooo@              ",
"                            .%%%%%%%.o%%%%%@%%....@@@@@@@@@@ooo.             ",
"                           .%%%%%%%%.o%%%%@%%.  .$...oooooooooo@             ",
"                           .%%%%%%%.oo%%%%@%%.   .$@@...oooooooo.            ",
"                          .%%%%%%%%.oo%%%@%%.     .@@@@@...ooooo.            ",
"                          .%%%%%%%%.oo%%@%%%.      .@@@@@@@...oo@            ",
"                         .%%%%%%%%.oooo@%%%..      ......@@oooooo.           ",
"                         .%%%%%%%%.ooo@%%%%..       .@@oo.......o.           ",
"                        .%%%%%%%%%.oo@%%%%%..      ......oooooooo.           ",
"                        .%%%%%%%%.oo@%%%%%%..    ..@@@@@@....oooo.           ",
"                       .%%%%%%%%%.oo%%%%%%%..  ..@@@@@@@@@@@@..@o.           ",
"                       .%%%%%%%%%.o%%%%%%%.3. .@@@@@@@@@@@@@@@@o.            ",
"                      .%%%%%%%%%.o%%%%%%%%.3..@@@@@@ooooo@@@@@@.             ",
"                      .%%%%%%%%%.o%%%%%%%.33.@@@@@@oooooo@@@@@.              ",
"                     .%%%%%%%%%%.o%%%%%%.33.@@@@@@@oooooo@@@..               ",
"                     .%%%%%%%%%%.oo%%%o.333.@@@@@@@@ooo@@@@.                 ",
"                    .%%%%%%%%%%.oooooo.333.@@@@@@@@@@@@@@..                  ",
"                    .%%%%%%%%%%.ooooo.333.@@@@@@@@@@@@@@.                    ",
"                   .%%%%%%%%%%%.oooo.333.@@@@@@@@@@@@@..                     ",
"                   .%%%%%%%%%%%.ooo.33..@@@@@@@@......                       ",
"                  .%%%%%%%%%%%.ooo..............oo..                         ",
"                  .....%%%%%%%.oo.@@@@@@oooooooo..                           ",
"                  .333...%%%%%.o@.@@@@@ooooo@@..                             ",
"                   ....oo..%%%.@.@@@@@ooo@@@..                               ",
"                      .oooo..%.o..@@@o@@@@..33.                              ",
"                      .ooooo@.o.4.@@@@@@@......                              ",
"                      .oooo@ooo.4.@@@@@..                                    ",
"                     .oooo@ooo.44.@@@@.                                      ",
"                     .ooo@oooo.44.@@@.                                       ",
"                     .oo@oooo.44..@@.                                        ",
"                    .oo$ooooo.44..@.                                         ",
"                    .o$oooooo.4.3..                                          ",
"                   .o$oooooo.44.3.                                           ",
"                   .$ooooooo.4...                                            ",
"                  .ooooooooo.4. .                                            ",
"                 .oooooooooo..                                               ",
"                .ooooooooooo..                                               ",
"                .ooooooooooo.                                                ",
"                .ooooooooooo.                                                ",
"                .ooooooooooo.                                                ",
"                .ooooooooooo.                                                ",
"                 ..ooooooooo.                                                ",
"                 .<..oooooooo.                                               ",
"                .<<<4...ooooo.                                               ",
"                .,<<<4<<......                                               ",
"                .,<<<4<<<<<<1..                                              ",
"                .5<<<4<<<<44<<<1..                                           ",
"                .5<<<4<<,4,,,,<<<<1.                                         ",
"                 .....<<4<<<<,,555551.                                       ",
"                      ................                                       ",
"                                                                             ",
"                                                                             ",
"                                                                             ",
"                                                                             ",
"                                                                             "
};
