/* XPM */
static char *_577715348228[] = {
/* columns rows colors chars-per-pixel */
"89 131 29 1 ",
"  c #8080FF",
". c black",
"X c #5858F8",
"o c #4028B0",
"O c #6870F8",
"+ c #B8C0F8",
"@ c #281078",
"# c #F8B818",
"$ c #000038",
"% c #4838E0",
"& c #E8A858",
"* c #B87838",
"= c #400808",
"- c #A0A0A0",
"; c #905010",
": c #C88808",
"> c #F8E820",
", c gray94",
"< c #90B090",
"1 c #B0E0B0",
"2 c #C04898",
"3 c #983878",
"4 c #506050",
"5 c #602040",
"6 c #802860",
"7 c #E058B8",
"8 c #804000",
"9 c #688068",
"0 c white",
/* pixels */
"                                                                                         ",
"                                                                                         ",
"                                                                                         ",
"                                                                                         ",
"                                                                                         ",
"                                                                                         ",
"                                                                                         ",
"                                                                                         ",
"                                                    .X                                   ",
"                                                    .oXX                                 ",
"                                                    .oooOOOO+++++O                       ",
"                                                   .oooooooooo@@@.                       ",
"                                                  .oooooooooo@@@.                        ",
"                                                 .oooooooooo@@@##                        ",
"                                                 .oooo..$O%@@@@#                         ",
"                                                .@@@@.&.$..OOOXX                         ",
"                                               .@@@...&.*=-.@+O@.                        ",
"                                              .@@..&&&.&&&*;..%X@.                       ",
"                                              o..&&&&&.&&&**&...%@.                      ",
"                                             .XXO.&&&&.&&&&&..  ....                     ",
"                                             .XXX%XO.&.&&&*.                             ",
"                                             oXX%%%#:XXOO.&...                           ",
"                                            o.XX%%%>:%#:%..,,.                           ",
"                                           o%o...%%%%%>:%.-,,.                           ",
"                                          o%.OOOO%..%%%%.--,,.#                          ",
"                                         o%.XoooXOOO@..%......:#                         ",
"                                        o%.oooooooXOO@X...*..<..                         ",
"                                        %.oooooooooXOO@XXX..&.<1...                      ",
"                                       o.oooooooooooXOO@XXXX.&.<111...                   ",
"                                       %.ooooooooooooXO@XXXX.23.11111.                   ",
"                                      .%.oooooooooooooXX@XXX.24<.1111.                   ",
"                                      o%.oooooooooooooXX@XXX.24<<.111.                   ",
"                                     .o%.oooooooooooooXX@XX.22222.<11.                   ",
"                                     .ooo.ooooooooooooX@XXX.222223.11.:                  ",
"                                     .oo.X.oooooooooooX@XXX.222223.<1.:                  ",
"                                     .o.%%X.ooooooooo@@ooXX.222233.<1.:                  ",
"                                      .%%%%X.o.........oooX.35666..<1.#                  ",
"                                      ..o%%%XOOOOOXo.@o..@@.572222.<1.8#                 ",
"                                      .ooooooo%%%X..@@oXOO.3772222.<<. # #>              ",
"                                      .o%%%%%%%OO.o.@@o%%%.3322223.<<.::# 8#             ",
"                                     .ooooo%%OO..oo.@@@o%%.336666.4<<<. :##:             ",
"                                     .oo%%%XX..ooo.o@@@@@@.56333.94<<<.                  ",
"                                    .o%%%%oo%%ooo.@@oo@@@.333333.94<<<.                  ",
"                                    .oo...%%oooo.@@@@o%%@.333363.94<<.                   ",
"                                   .o%%XXX..oo..@@@oooooXX.33326.99<<.                   ",
"                                   .%%%%%%OO.. .@@@@@@@oo%.33322.99<<..                  ",
"                                  .%%%%%%%%O%.  ...ooooooo@.33322.99.@@.                 ",
"                                 .%%%%%%%%%X%%. .oo....o@@oo.3328.>9.@@o.                ",
"                                 .%%%%%%%%%%X%%....oooo....oo.8:#:>..@@o.                ",
"                                 .o%%%%%%%%%X%%%.oo....%%%XXXX.#:8:>.@@o.                ",
"                                 .ooo%%%%o%%%X%%%..oooo.....o%X.8#:>.@@.                 ",
"                                  ..ooooo%o%%%X%%%%....%%%%%%%%.#....@@.                 ",
"                                    ...oooo@%%%OO%%%%.&..........XO%.@@.                 ",
"                                       ....o.%%%XOO%.&&&&&&..XXXXXO%.@.                  ",
"                                           ...%%%%X.*&&&&&.XXXX%XXO%.@.                  ",
"                                              .%%%%.*&&&&.XXOOXXoXO%.@.                  ",
"                                               .%%....***.XX%%OOXoO%.@.                  ",
"                                               .o%.ooo....XXXXooOO@%.@.                  ",
"                                                ..ooooo.oo.XXXXX@@%...                   ",
"                                                ..oooo.ooo.XXXXXXX@.@.                   ",
"                                                ..oooo.ooo.XXXXOOO%...                   ",
"                                                .%ooo.oooo%%%%%%%O%...                   ",
"                                                .%%oo.oooo%%%%%XXO.**.                   ",
"                                               .%%%o.$$$@@%%%XXXXO.**.                   ",
"                                               .%%%o.oo%%%XXXXXXXO.**.                   ",
"                                              .%%%%..oo$$@@@oXXX%O.**.                   ",
"                                             .%%%%%.$..o%%XXXXXX%O.**.                   ",
"                                             .%%o%.$.oo%%%XXXXXoXO.*.                    ",
"                                            .%%o%%.$.o%%%%XXXXXoXO..                     ",
"                                           .%%@%%.$$.o%%%%XXXXo%XX.                      ",
"                                           .o@%%%.$.oo%%%%XXX%oXXX.                      ",
"                                          .o@%%%.$$.o%%%%%XX%@%XXX.                      ",
"                                         .o@%%%..$$.o%%%%%X%%@XXXX.                      ",
"                                        .o@%%%%..$$.o%%%%%%%@XXXXX.                      ",
"                                        .@%%%%.9.$$.o%%%%%%@%XXXXX.                      ",
"                                       .o%%%%.9.$$.oo%%%o%%@XXXXXX.                      ",
"                                     ..%%%%%%.9.$$.oo%%o%%@XXXXXX.                       ",
"                                    .%%%%%%%.99.$$.oo%o%%@XXXXXXX.                       ",
"                                  ..%%%%%%%.999.$$.oooo%o@XXXXXXX.                       ",
"                                 .%%%%%%%%.99999.$$.o$%o@XXXXXXX.                        ",
"                               ..%%%%%%%%.999999.$$..oo$XXXXXXXX.                        ",
"                              .%%%%%%%%o.9999999.$$.oo$%XXXXXXX.                         ",
"                            ..%%%%%%%%@.99999.....$.o.%%XXXXXXX.                         ",
"                          ..%%%%%%%%%.9999999.$$$$$..%%%XXXXXX@.                         ",
"                        ..%%%%%%%%%%.999999.......$.%%%%XXXXX@%.                         ",
"                      ..%%%%%%%%%%o.999....$$$$$$$.%%%%%%%%%o%%.                         ",
"                     .%%%%%%%%%%%@.999.$@@@$$$$$$.%%%%%%%%%o%%%.                         ",
"                    .%%%%%%%%%%%.9999.$$@@$$$$$$.%%%%%%%%%%%%%.                          ",
"                    .%%%%%%%%%%.99999.$$$$$$$$$.%%%%%%%%%%%%%.                           ",
"                    .%%%%%%%%o.99999.$$$$$$$$$.%%%%%%%%%%%%o.                            ",
"                     @%%%%%%@....999.$$$$$$$$.o%%%%%%%%%%%@.                             ",
"                     .%%%%%.     ...$$$$$$$$$.o%%%%%%%%%%$.                              ",
"                     .%%%o.        .$$$$$$$$$.oo%%%%%%%%@.                               ",
"                     o%%@.        .$$$$$$$$$$.oo%%%%%%%@.                                ",
"                    .%%.         .$$$$$$$$$$$.oo%%%%%%@o.                                ",
"                    o@.         .$$$$$$$$$$$..ooo%%%%@o.                                 ",
"                   o.          .$$$$$$$$$... .ooo%%%ooo.                                 ",
"                  ..          .$$$$$$.....   .oooooooo.                                  ",
"                        .............$$.     .oooo@ooo.                                  ",
"                       .99.@@@@@@@@@@$.      .oooo@ooo.                                  ",
"                    ........@@@@@@@@$.       .ooo$ooo.                                   ",
"                   .5.33655..@@@@@@@.       .oooo$ooo.                                   ",
"                   .5.35555.;.@@@@@.        .ooo$oooo.                                   ",
"                  .5.655555.;.@@@@.         .ooo$oooo.                                   ",
"                  .5.65555..;..@@@.         .oo$ooooo.                                   ",
"                  .5......5..9.@@.          .o$@ooooo.                                   ",
"                  ..6555555.99.@.           .o$oooo@o.                                   ",
"                  .6555555.999..            .$ooooo@o.                                   ",
"                 .5555555.999..             .@ooooo@o.                                   ",
"                ..6.5555..999.              .ooooooo$.                                   ",
"               .5.65.55. .99.              .oooooooo$.                                   ",
"              .55.655..  .9.              .oooooooooo.                                   ",
"              .55.655.   ..               .ooooooooo%$.                                  ",
"              .55.65.    .                .oooooooooXX.                                  ",
"              .55.6.                      .oooooooo%XXX.                                 ",
"               .5.5.                      .ooooooooXXXXX.                                ",
"               .5..                       .ooooooo%XXXXXX.                               ",
"               .5..                        .ooooooXX.......                              ",
"                ..                         .........3336..                               ",
"                                           .333335332233666..                            ",
"                                           .2333353333562233366.                         ",
"                                           .7333353335333322777766.                      ",
"                                            .......................                      ",
"                                                                                         ",
"                                                                                         ",
"                                                                                         ",
"                                                                                         ",
"                                                                                         ",
"                                                                                         ",
"                                                                                         ",
"                                                                                         "
};
