/* XPM */
static char *_577715374730[] = {
/* columns rows colors chars-per-pixel */
"86 131 23 1 ",
"  c #8080FF",
". c black",
"X c #5858F8",
"o c #4028B0",
"O c #6870F8",
"+ c #B8C0F8",
"@ c #281078",
"# c #F8B818",
"$ c #000038",
"% c #4838E0",
"& c #E8A858",
"* c #B87838",
"= c #400808",
"- c #A0A0A0",
"; c #905010",
": c #C88808",
"> c #F8E820",
", c #802860",
"< c #C04898",
"1 c #E058B8",
"2 c #983878",
"3 c #602040",
"4 c white",
/* pixels */
"                                                                                      ",
"                                                                                      ",
"                                                                                      ",
"                                                                                      ",
"                                                                                      ",
"                                                                                      ",
"                                                                                      ",
"                                                                                      ",
"                                                                                      ",
"                                                                                      ",
"                                            .X                                        ",
"                                            .oXX                                      ",
"                                            .oooOOOOOO+++O                            ",
"                                           .oooooooooooo@.                            ",
"                                          .oooooooooooo@.                             ",
"                                         .oooooooooooo@@#                             ",
"                                         .oooo..$O%oo@@.                              ",
"                                        .@@@@.&.$..OOOOX                              ",
"                                       .@@@...&.*=-.@o%+.                             ",
"                                      .@@..&&&.&&&*;..@@O.                            ",
"                                      ...&&&&&.&&&**&...@%.                           ",
"                                     .XO.&&&&&.&&&&&..  ....                          ",
"                                    .XX%%XO.&&.&&&*.                                  ",
"                                   .XXX%%%%%XO.&&&&.                                  ",
"                                 ..XXX%%%%%%%%%XO..                                   ",
"                            oXXX.%o....%%%%%%:>%%XO                                   ",
"                          oXX%%.%oOOOOO....%%:#%:>%.                                  ",
"                         .%%%%.%oOOOOOOOOOO...%%:#.                                   ",
"                         .%%%.%%oXOOOOOO@oXOOO..%.                                    ",
"                         .o%%.%@XXXXXOO@OOOOOOOO...                                   ",
"                         .oo.%%@XXXXXX@OOOXoooo%X.O..                                 ",
"                         .oo.%%oXXXXX@XXXoooooooo%.X%...                              ",
"                         .o.%%@XXXXX@XXX%ooooooooo%.X%%%%%                            ",
"                         .o.%%@XXXXX@XX%ooooooooooo.XX%%%.                            ",
"                          .%%%@XXXXX@XXoooooooooooo.XXX%.                             ",
"                         ..o%%@%XXXX..Xoooooooooooo.XXXX.                             ",
"                         ..ooo@o%%%.XO.oooooooooooo.oXXX.                             ",
"                        .@.@oo@ooo.XXXO.oooooooooo.oooX.                              ",
"                        .@@.@o.ooo.%%XXO..oooooooo.@@@@.                              ",
"                        .@@.@@.@@@.%.%%O.%..oooo..%@@@.                               ",
"                         .@@.@.@@@@.%.%XX.%%%...@@@%X@.                               ",
"                         .@@@..@@@@.%%@%X.%%%o.@@@@@%X.                               ",
"                          .@@@..@@@.%%%@%X.%oo.ooo%%%%%.                              ",
"                          .@.@@.@@.%%%%%@X.ooo.@@@@@@@@.                              ",
"                          ..@@@@.@.%%%%%o%oooo.@@@@@.o.                               ",
"                          .o@@@@@..%%@@%%o%oo.@@@@..oo.                               ",
"                         .%o@@@@@.%%%%%......@@@..ooo..                               ",
"                         .%@@@@@@.%%%%%%%..@@@..ooooo.o.                              ",
"                        .%@@@@@@.%%%%XXXXOO...@@@@oooooo.                             ",
"                        .o@@@@@@.%%%%%%%%%X.@@@...@ooXXXo.                            ",
"                        .o@@@@@.%%%X%%%%%%%X.@@@@@....%XXX.                           ",
"                        .@o@@@@.%%X%%%%%%%%%o.oo%%%%%%..%XX.                          ",
"                        .@@o@@.%OO%%%%%%%%%%%o..ooooo%%%%%..                          ",
"                         .@@o@.o%%%%%%%%%%%%%o%%.......%%.#.                          ",
"                         .@@o@@.ooo%%%%%%%%%%Xo%%%%.&&......                          ",
"                         .@@o@@@..oooo%%%%%%%%X%%%%%.&.XXXO.                          ",
"                          .@o@@@@@...ooooooo%%%XXXOOO..XXXO.                          ",
"                          .@o@@@@.   ......oooooooooo..XXXO.                          ",
"                          .@@@@@@.     .ooo.......ooo.XXXXO.                          ",
"                           .@@@@@@.    .oooo@@@..oooo.XXXXO.                          ",
"                           .@@@@@@.    .oooo@@@.o.oo..XXXXO.                          ",
"                           .@@@@....   .oooo@@@.o...%.XXXO.                           ",
"                           .@@..;;;.  .ooooo@@.%o..%%.XXXO.                           ",
"                           ...;;.***. .ooooo@@.%o.%%%XXXXO.                           ",
"                           .**;.****...ooooo@.%%o.%%XXXXXO..                          ",
"                           .**;.*****..ooooo@.%%.%%%XXXXX.@.                          ",
"                           .**;.;***.o.ooooo.%%%.%%%XXXXX.@@.                         ",
"                           .*;;..;..oo.ooooo.%%.%%%%XXXXX.@@.                         ",
"                            .;.**.%oo$%oooo.%%%.%%%%XXXXX.@@o.                        ",
"                             .*..%%%o$%ooo.%%%.%%%%%XXXX.@@@o.                        ",
"                             ..%%%%%o$%ooo.%%%.%%%%%%%%X.@@@o.                        ",
"                            ..%%%%%%@%%oo.X%%.o%%%%%%%X.$@@@oo.                       ",
"                           .%%%%%%%%@%%o.XX%%.o%%%%%%%X.$@@@oo.                       ",
"                          .%%%%%%%%o%%oo.X%%.o%%%%%%%%.$$@@@oo.                       ",
"                         .%%%%%%%%%o%%o.XX%%.o%%%%%%o%.$$@@@ooo.                      ",
"                        .%%%%%%%%%%%%o.XXX%.oo%%%%%o%.$$$@@@ooo.                      ",
"                       .%%%%%%%%%%%%%.XXX%%.oo%%%%o%%.$$$@@@ooo.                      ",
"                      .%%%%%%%%%%%%%.XXXX%.ooo%%@o%%.$$$$@@@ooo.                      ",
"                      .%%%%%%%%%%%%.XXXXX.ooooo$o%%%.$$$$@@@ooo.                      ",
"                     .%%%%%%%%%%%%@XXXXXX.oooo$%%%%.$$$$$@@@oooo.                     ",
"                    .%%%%%%%%%%%%@XXXXXX.ooo$@%%%%%.$$$$$@@@oooo.                     ",
"                    .%%%%%%%%%%%@XXXXXX.ooo.o%%%%%. .$$$$$@@ooooo.                    ",
"                   .%%%%%%%%%%%oXXXXXXX.o@.%%%%%%%. .@@$$$@@ooooo.                    ",
"                  .%%%%%%%%%%%oXXXXXXX.@..%%%%%%%.   ..@@$$@ooooo.                    ",
"                  .%%%%%%%%%%%XXXXXXX...%%%%%%%%.   .$$.oo@@ooooo.                    ",
"                 .%%%%%%%%%%%XXXXXXXX.%%%%%%%%%%.   .$$$..oo@oooo.                    ",
"                 .%%%%%%%%%%XXXXXXXX.o%%%%%%%%%.     ..@@@.oooooo.                    ",
"                .%%%%%%%%%%XXXXXXXX.oo%%%%%%%%.      .@..@@..@ooo.                    ",
"                .%%%%%%%%oXXXXXXXXX.oo%%%%%%%%.      ..@o..@oooo.                     ",
"                .%%%%%%%oXXXXXXXXX.ooo%%%%%%%.      .@@.@oo..@@@.                     ",
"                .%%%%%%oXXXXXXXXX.ooooo%%%%%.       .@@o.@@ooo@.                      ",
"                 .%%%%@XXXXXXXXXX.ooooooooo.        .@@oo.@@@@@.                      ",
"                  .%%@XXXXXXXXXX.ooooooooo.        .@@@ooo@@@@@.                      ",
"                   ..@XXXXXXXXX.oooooooo..         .@@@oooo@@@@.                      ",
"                     .XXXXXXXXX.ooooooo.           .@@@@oooo@@@.                      ",
"                     .XXXXXXXX.ooooooo.            .@@@@@ooo@@@.                      ",
"                      .XXXXXX.ooooooo.             .@@@@@@ooo@@.                      ",
"                       .XXXXX.oooooo.               .@@@@@@@o@..                      ",
"                       ..XXX.oo..oo.                .@@@@@@@@@..                      ",
"                      .oo..X...oo..                  .@@@@@@@@$.                      ",
"                     .ooo....ooo.                     .@@@@@@@@.                      ",
"                   ......%%oooo.                       .@@@@@.o@.                     ",
"                ...XXX%%%ooooo.                         .@@@@.oo.                     ",
"               .XXXXX%oooooo..                          .@@@@$oo%.                    ",
"               .XXXXXoooooo.                             .@@.@ooo.                    ",
"              .XXXXXoooooo.                              .@@$ooooo.                   ",
"             ..XXXXoooooo.                                .@@ooooo%.                  ",
"           ..*.XXXoooooo.                                 .$ooooooo%.                 ",
"         .,<.*.XX%ooooo.                                   .oooooooo%.                ",
"        .1<22..XXoooooo.                                   .ooooooooo%.               ",
"       .21222,.X%ooooo.                                    .oooooooooo%.              ",
"       .2<222,.X%oooo.                                     .ooooooooooo%.             ",
"       .2<222,2.%oooo.                                     .oooooooooooo%..           ",
"        .222,22.%ooo.                                      .ooooooooooooo%%.          ",
"        .22,222,.ooo.                                      .ooooooooooo......         ",
"         .,2<22,.oo.                                       .ooooooo....               ",
"          .2<22,,.o.                                      .........333...             ",
"          .2<22,. .                                       .,33333.333333....          ",
"          .2<22,. .                                       .233333.33,,,.,,,,3.        ",
"          .2,,,,,.                                        .333333.3333.33,222,3.      ",
"          .2111222.                                        .........3.333333,222,.    ",
"          .2211<<22..                                               ...............   ",
"          ..22222<<<2.                                                                ",
"            ..........                                                                ",
"                                                                                      ",
"                                                                                      ",
"                                                                                      ",
"                                                                                      ",
"                                                                                      ",
"                                                                                      ",
"                                                                                      "
};
