/* XPM */
static char *_577715317334[] = {
/* columns rows colors chars-per-pixel */
"79 131 30 1 ",
"  c #8080FF",
". c black",
"X c #5858F8",
"o c #4028B0",
"O c #6870F8",
"+ c #B8C0F8",
"@ c #281078",
"# c #F8B818",
"$ c #000038",
"% c #4838E0",
"& c #E8A858",
"* c #B87838",
"= c #400808",
"- c #A0A0A0",
"; c #905010",
": c #C88808",
"> c #F8E820",
", c gray94",
"< c #90B090",
"1 c #B0E0B0",
"2 c #C04898",
"3 c #983878",
"4 c #802860",
"5 c #688068",
"6 c #F8F8A0",
"7 c #804000",
"8 c #602000",
"9 c #E058B8",
"0 c #602040",
"q c white",
/* pixels */
"                                                                               ",
"                                                                               ",
"                                                                               ",
"                                                                               ",
"                                                                               ",
"                                                                               ",
"                                                                               ",
"                                                                               ",
"                                                                               ",
"                                                                               ",
"                                                                               ",
"                                                                               ",
"                                          .X                                   ",
"                                          .oXX                                 ",
"                                          .oooOOOOO++++O                       ",
"                                         .ooooooooooo@@.                       ",
"                                        .ooooooooooo@@.                        ",
"                                       .ooooooooooo@@@#                        ",
"                                       .oooo..$O%o@@@#                         ",
"                                      .@@@@.&.$..OOOXX                         ",
"                                     .@@@...&.*=-.@%+@.                        ",
"                                    .@@..&&&.&&&*;..@O@.                       ",
"                                    O..&&&&&.&&&**&...%@.                      ",
"                                   oXOO.&&&&.&&&&&..  ....                     ",
"                                   XXXXOOO.&.&&&*.                             ",
"                                  ..XXX:>%OOO.&&&.                             ",
"                                  oX..X:#%:>%....                              ",
"                                 oOOO%..%%:#%.-,.                              ",
"                                oOO@@OOOX..%%.--.                              ",
"                                XX@XOOOOOOX...--....                           ",
"                               oX@XXooooooOO.X...<<<...                        ",
"                              oXX@Xoooooooo%X.X%%%...1.                        ",
"                              XX@Xooooooooooo%.X%%%%%1.                        ",
"                             oXX@ooooooooooooo.XX%%%.11.                       ",
"                             %XX@oooooooooooooo.XX%%..1.                       ",
"                            @XXX@oooooooooooooo.XX%%..<1.                      ",
"                            ooXX..ooooooooooooo.XXX.23.1.                      ",
"                           .oooo.X..oooooooooo.XXXX.22.<.                      ",
"                           .ooo.X.OO..ooooooo.oXXXX.223.<.                     ",
"                           .oo.XXO.%OOO......ooooXX.323.<.                     ",
"                            ..%%%XO$%%%XXX%.@@@@@@@..44<.                      ",
"                            .ooo%%X$ooo....@@@@%%XO.22.<.                      ",
"                             .ooo%%X@oooo.@@@@@@%%%.22..                       ",
"                             .o%%o%X@oooo.oo@@@@@@%.22..                       ",
"                            .o%%%%%%%ooo.@@@%%@@@@@.4.5.                       ",
"                            .o%%%%o%%ooo.@@@@@XXX%@.3.5.                       ",
"                           .oo%%%%.o%oo.@@@@@@@@XXX.3.5.                       ",
"                           .o%%%%%%.%oo.@oooo%%%%..322..                       ",
"                          .o%%%%..%%...@@@@@@@@@..33222.                       ",
"                         .o%%%%%%%....@@@@@@@@@.oo.32222.                      ",
"                         .%%%XXXXXOO.@..@@@@@@ooooo.22222.                     ",
"                        .%%%%%%%%%%X.@@......ooooooo.22.6:.                    ",
"                       .%%%%%%%%%%%%X.@..oooo...ooooo.:7>:8.                   ",
"                       .%%%%%%%%%%%%%X.oo....%%XXXXX%.#:76#.                   ",
"                        .o%%%%%%%%%%%%%..oooo.....@XX.:#:>>.                   ",
"                         ..oo%%%%%%%%X%%%..@@ooo%%%%.##...%.                   ",
"                           ..oooo%%%%%X%%%%............%.X..                   ",
"                             ...oooooooXX%%%.&&&..XXXXO%.X..                   ",
"                                ....oooooOOO.&&.XXOXXXO%.X..                   ",
"                                    .....oo.*&&.XX%OXXO%.X..                   ",
"                                      ..ooo.***.XXXoOXO%.X..                   ",
"                                       ..o......XXXXoOO%.X..                   ",
"                                       .o..oo.o.XXXXXoO%.%..                   ",
"                                       .oo.oo.o.XXXXXXo%.%..                   ",
"                                       .oo.oo.o.XXXXXXOo..o.                   ",
"                                       .ooooo.o.XXXXX%%%.@o.                   ",
"                                       .ooo%.oooXXXX%XO%.@o.                   ",
"                                      ..ooo%.oooXXXXXXXO.@o.                   ",
"                                      ..ooo%.oooXXXXXXXO%.@.                   ",
"                                     .%.oo%.o$$$$o%XXXXO%.@.                   ",
"                                    .%%.oo%.oo$%%%%%XXXXO.@.                   ",
"                                    .%%.o%%.ooo@%%%%XXXXO.@.                   ",
"                                   .%%%.o%..oooo@%%%XXXXO%.                    ",
"                                  .%%%%oo%..oooo%o%%%XXXXO.                    ",
"                                  .%%%%o%%..oooo%%%%%XXXXO.                    ",
"                                 .%%%%%o%.5.oooo%%%%%%XXXO.                    ",
"                                .%%%%%%%%.5.oooo%%%%%%XXXX.                    ",
"                                .%%%%%%%%.55.ooo%%%%%%XXXX.                    ",
"                               .%%%%%%%%.555.ooo%%%%%%%X%X.                    ",
"                              .%%%%%%%%%.555.ooo%%%%%%%X%X.                    ",
"                              .%%%%%%%%.5555.ooo%%%%%%%%XX.                    ",
"                             .%%%%%%%%%.5555..oo%%%%%%%oXX.                    ",
"                            .%%%%%%%%%%.5555..oo%%%%%%o%%%.                    ",
"                            .%%%%%%%%%.55555..oo%%%%%@%%%%.                    ",
"                           .%%%%%%%%%%.55555.$.o%%%@@%%%%%.                    ",
"                           .%%%%%%%%%%.5555.$....$@%%%%%%%.                    ",
"                          .oX%%%%%%%%.55555.$.ooo%$$%%%%%%.                    ",
"                          .oX%%%%%%%%.5555.....$$$%%@@oo%%.                    ",
"                         .ooX%%%%%%%%.55...ooo%%%%@%%%%%%.                     ",
"                         .ooX%%%%%%%.55.ooooo%%%%%%@%%%%%.                     ",
"                        .ooooX%%%%%%.5.oooooo%%%%%%o@%%%.                      ",
"                        .ooooX%%%%%%.5.oooooo%%%%%%o%%%.                       ",
"                        .ooooX%%%%%.5.ooooooo%%%%%%o%%.                        ",
"                       .ooooooX%%%%..ooooooooo%%%%%o...                        ",
"                       .ooooooX%%%%.ooooooooooooooo.55.                        ",
"                       .oooooooX%%..ooooooooooooo..555.                        ",
"                        .ooooooX%%.oooooooooooo..55555.                        ",
"                         ..ooooo%%.oooooooooo..$.55555.                        ",
"                           ..ooo%.oooooo@$$$.$$.5555555.                       ",
"                          ....ooo.o@@@@@%%..$$. ..55555.                       ",
"                        ..%%%o.oo.oo%%%%..$$$..   ...555.                      ",
"                       .%%%%ooo.o.oooo..$$$$..       ....                      ",
"                    ....%%%%oooo..ooo.$$$$$.@.                                 ",
"                   .993.%%%oooooo.o..$$$$$.@.                                  ",
"                  .3233.%%oooooooo.$$$$$$.@@.                                  ",
"                  .3233.%oooooooo..$$$$..@@.                                   ",
"                  .3233.oooooooo. .$$$.@@@@.                                   ",
"                  .33304.oooooo.  .$..@@@@.                                    ",
"                  .00034.ooooo.  .$.@@@@@@.                                    ",
"                ..3233344.ooo.   ..@@@@@@@.                                    ",
"               .33233334..oo.   .@@@@@@@@@.                                    ",
"              .39033334.  ..    .@@@@@@@@@.                                    ",
"              .9930334.   .    .@@@@@@@@o@.                                    ",
"             .393303..        .@@@@@@@@oo@.                                    ",
"             .32330.          .@@@@@@@oo.@.                                    ",
"             .3233.            .@@@@@@o.@@.                                    ",
"             .233.             ..@@@@@@o.@.                                    ",
"             .233.            ....@@@@@@o..                                    ",
"             .23.             .00...@@@@@o.                                    ",
"             .2.             .0000.0..@@@@o.                                   ",
"              .              .00000.00.......                                  ",
"                             .40000.000..0000..                                ",
"                             .30000.44.044333340.                              ",
"                             .00000.0.000000043333.                            ",
"                              .....................                            ",
"                                                                               ",
"                                                                               ",
"                                                                               ",
"                                                                               ",
"                                                                               ",
"                                                                               "
};
