/* XPM */
static char *_577715354132[] = {
/* columns rows colors chars-per-pixel */
"77 131 28 1 ",
"  c #8080FF",
". c black",
"X c #5858F8",
"o c #4028B0",
"O c #007800",
"+ c #6870F8",
"@ c #B8C0F8",
"# c #281078",
"$ c #F8B818",
"% c #000038",
"& c #4838E0",
"* c #E8A858",
"= c #B87838",
"- c #400808",
"; c #A0A0A0",
": c #905010",
"> c #C88808",
", c #F8E820",
"< c #90B090",
"1 c #B0E0B0",
"2 c #983878",
"3 c #C04898",
"4 c #802860",
"5 c #688068",
"6 c #804000",
"7 c #602040",
"8 c #E058B8",
"9 c white",
/* pixels */
"                                                                             ",
"                                                                             ",
"                                                                             ",
"                                                                             ",
"                                                                             ",
"                                                                             ",
"                                                                             ",
"                                                                             ",
"                                        .X                                   ",
"                                        .oXX          O                      ",
"                                        .ooo++++@@@@@+                       ",
"                                       .oooooooooo###.                       ",
"                                      .oooooooooo###.                        ",
"                                     .oooooooooo###$$                        ",
"                                     .oooo..%+&####$                         ",
"                                    .####.*.%..+++XX                         ",
"                                   .###...*.=-;.#@+#.                        ",
"                                  .##..***.***=:..&X#.                       ",
"                                  ...*****.***==*...&#.                      ",
"                                 .++.*****.*****..  ....                     ",
"                                 oXXXX++.*.***=.                             ",
"                                .XXX&&>$&X++.**.                             ",
"                                .XX&&&>,&>$&...                              ",
"                               #&..&&&&&&>,&..                               ",
"                               o&&&...&&&&&.;.                               ",
"                              o&&&.......&&.;.                               ",
"                             o&&.+++++++#...<<..                             ",
"                            o&.XXXX&&&&+++#X...<...                          ",
"                            &.XX&ooooooooX+#XXX...1...                       ",
"                           o.&&&ooooooooooX+#XXXX.1111.                      ",
"                          .&.&&ooooooooooooX#XXXX..111.                      ",
"                          .o.&oooooooooooooX#XXXX.2.11.                      ",
"                          .o.&oooooooooooooX#XXXX.32.<1.                     ",
"                          .o.ooooooooooooooX#XXXX.332.1.                     ",
"                          .o.oooooooooooooo#oXXXX.333.1.                     ",
"                          ..&.oooooooooooo#oooXXX.333.<.$                    ",
"                          .&&X.ooooooooo....oooXX.332.<.$                    ",
"                           .&&X&........&.##...##.44..<.>$                   ",
"                           ..&&X+++++++X.#####oX+.233.<. $                   ",
"                           .ooooo&&&XX..######o&&&.33.<. $>                  ",
"                          .o&&&&&&XX..o.oo#####o&&.2.5<.>6,                  ",
"                          .oooo&++..&o.###&&######.4.5<.> $                  ",
"                          .oo&XX..&&&o.####oXX####.2.5<.>$>                  ",
"                         .o&&ooo&&&&&.#######oXX#.24.5<. >                   ",
"                         ..oo...oooo.#########o&X.22455.                     ",
"                        ..&&XXX&....#########&&&&.223.5.                     ",
"                       .o&&&&&&X++. .#####o&&...#.2233..                     ",
"                      .o#&&&&&&&&X&. ..ooo...###oo.226$.                     ",
"                      .o&&&&&&&&&X&&. .........XXXX..$6,.                    ",
"                      .#&&&&&&&&&&X&&..oooo&&&&...oXX.>,.                    ",
"                      .#o&&&&&&&&&X&&&&...ooo&&&&&&&&.$..                    ",
"                       .oooo&&&&&&&XX&&&&&.....&&&&&&..X+.                   ",
"                        ..oooo&&&&&&&XXX&&&&.**......XXX+.                   ",
"                          ..ooo##&&&&&&&X+++.****.XXXXXX+.                   ",
"                            ..ooo%%&&&&&&&&X.=**.XXX&+XX+.                   ",
"                              .......&&&&&&&.==.XXXXX&+X+.                   ",
"                                     ..&&&&&....XXXXXXo++.                   ",
"                                      o..&&&.oo.XXXXXXX#+.                   ",
"                                      .oo.&&.oo.XXXXXX++#.                   ",
"                                      .ooo.&.oo.&#o&&&&&X.                   ",
"                                      .oooo..oo.#&&&ooXX&.                   ",
"                                     .&ooooo.o.&&###XXXX#.                   ",
"                                     .&ooooo..%%%XXXXXXX#.                   ",
"                                     .&&oooo.&&&&XXXXXX&..                   ",
"                                    .&&&oooo.&&&&XXXXXX#..                   ",
"                                    .&&&&oo.o&&&&XXXXXX#..                   ",
"                                   .&&&&&oo.o&&&&XXXXX#&..                   ",
"                                   .&&&&&&o.o&&&oXXXXX#&o.                   ",
"                                  .&&&&&&&.oo&&&oXXXX#X.o.                   ",
"                                 .&&&&&&&&.oo&&#XXXXX#X.o.                   ",
"                                 .&&&&&&&.ooo&&#XXXXoX&.o.                   ",
"                                .&&&&&&&&.ooo&#XXXXXoX##o.                   ",
"                               .&&&&&&&&.ooooo#XXXXoXX.#o.                   ",
"                               .&&&&&&&&.oooo%XXX&XoX&.#o.                   ",
"                              .&&&&&&&&..ooo#%XX&XoXX###o.                   ",
"                             .&&&&&&&&&..ooo%XX&oXoX&.##o.                   ",
"                            .&&&&&&&&&&..oo%X&&#XoXX&.##o.                   ",
"                            .&&&&&&&&&.5.o#%&&#Xo&X&#%###.                   ",
"                           .&&&&&&&&&&.5.#.&&%XXoX&&.%##.                    ",
"                          .&&&&&&&&&&&.5..&o%XXo&X&&.%##.                    ",
"                          .&&&&&&&&&&.55.oo%XXo&X&&&.%##.                    ",
"                         .&&&&&&&&&&&.5.oo%XX&&&&&&&.%##.                    ",
"                         .&&&&&&&&&&&..o.%XX&&&&&&&&.%##.                    ",
"                        .o&&&&&&&&&&.5..oX&&&&&&&&&&.%##.                    ",
"                        .oX&&&&&&&&&.5.&&&&&&&&&&&&&.%#.                     ",
"                       .ooX&&&&&&&&&..&&&&&&&&&&&&&.%%#.                     ",
"                       .ooX&&&&&&&&&.o&&&&&&&&&&&o.%%%.                      ",
"                       .ooX&&&&&&&&.oo&&&&&&&&&&o.%%%.                       ",
"                      .oooX&&&&&&&&.oo&&&&&&&&oo.%%%.                        ",
"                      .oooX&&&&&&&&.oo&&&&&&&oo.%%%.                         ",
"                      .oooX&&&&&&&&.oo&&&&&&oo.%%..                          ",
"                      .ooo&X&&&&&&&.oo&&&&&oo.%%.                            ",
"                      .ooooX&&&&&&&.ooo&&&oo.%..                             ",
"                       .ooo&X&&&&&&.ooooooo#..                               ",
"                        ..ooX&&&&&.ooooooo#.                                 ",
"                          ..&&&&&&.oooooo#o.                                 ",
"                        ..%%.X&&&&.oooooo#.                                  ",
"                    .......%%.&&&&.ooooo#o.                                  ",
"                   .7.2247..%%.&&&.oooo#o.                                   ",
"                  .77.47777..%%.&&.ooo#oo.                                   ",
"                  .77.47777.:.%..&.ooo%o.                                    ",
"                  .77.4777..:.%.o..oo%oo.                                    ",
"                  .77.....7..5.ooooo%oo.                                     ",
"                  .7.477777.55.oooo%ooo.                                     ",
"                  ..477777.55..ooo%oooo.                                     ",
"                ...4.777..555..oo%ooooo.                                     ",
"              ..7.47.77. .55. .o%oooooo.                                     ",
"             .77.477... .5..  .%ooooo#o.                                     ",
"            .777.477.   ..    .oooooo#o.                                     ",
"            .77.477.    .    .ooooooo#o.                                     ",
"            .77.47.         .ooooooooo%.                                     ",
"            .77.7.         .oooooooooo%.                                     ",
"            .77..          .oooooooooo&.                                     ",
"            .77.           .oooooooooo&.                                     ",
"             ..            .oooooooooo&&.                                    ",
"                           .oooooooooo&&.                                    ",
"                            .ooooooooo&&&.                                   ",
"                            ...............                                  ",
"                            .222242222247..                                  ",
"                            .322272222722224..                               ",
"                            .822272227333332224.                             ",
"                            .82227227222223888884.                           ",
"                             .....................                           ",
"                                                                             ",
"                                                                             ",
"                                                                             ",
"                                                                             ",
"                                                                             ",
"                                                                             ",
"                                                                             ",
"                                                                             "
};
