/* XPM */
static char *_577715364873[] = {
/* columns rows colors chars-per-pixel */
"77 131 27 1 ",
"  c #8080FF",
". c black",
"X c #5858F8",
"o c #4028B0",
"O c #6870F8",
"+ c #B8C0F8",
"@ c #281078",
"# c #F8B818",
"$ c #000038",
"% c #4838E0",
"& c #E8A858",
"* c #B87838",
"= c #400808",
"- c #A0A0A0",
"; c #905010",
": c #C88808",
"> c #F8E820",
", c #90B090",
"< c #B0E0B0",
"1 c #983878",
"2 c #804000",
"3 c #688068",
"4 c #602040",
"5 c #802860",
"6 c #C04898",
"7 c #E058B8",
"8 c white",
/* pixels */
"                                                                             ",
"                                                                             ",
"                                                                             ",
"                                                                             ",
"                                                                             ",
"                                                                             ",
"                                                                             ",
"                                                                             ",
"                                                                             ",
"                                    .X                                       ",
"                                    .oXX                                     ",
"                                    .oooOOOOO++++O                           ",
"                                   .ooooooooooo@@.                           ",
"                                  .ooooooooooo@@.                            ",
"                                 .ooooooooooo@@@#                            ",
"                                 .oooo..$O%o@@@#                             ",
"                                .@@@@.&.$..OOOXX                             ",
"                               .@@@...&.*=-.@%+@.                            ",
"                              .@@..&&&.&&&*;..@O@.                           ",
"                              ...&&&&&.&&&**&...%@.                          ",
"                             .XO.&&&&&.&&&&&..  ....                         ",
"                             oXXXOO.&&.&&&*.                                 ",
"                            .XXX%%%XOO.&&&&.                                 ",
"                           o%..%%%%%:>%XOO.                                  ",
"                          oXOO%..%%%:#%:>%.                                  ",
"                         ooXOOO%%..%%%%:#%.                                  ",
"                        ooXXX@@OOOOX..%%%%....                               ",
"                       oXoXX@OOOOOOOOOO....,<.                               ",
"                       %@XX@OOOXooooo%OO.XX...                               ",
"                      o%@X@XXXooooooooo%O.XXX...                             ",
"                      o%@X@XXooooooooooo%.XXXXX.                             ",
"                     .o@%X@X%oooooooooooo%.XXXX.                             ",
"                     .o@%X@Xoooooooooooooo.XXXX.                             ",
"                     .o.o%@Xoooooooooooooo.XXXX..                            ",
"                     .o.oo@%oooooooooooooo.XXXX.1                            ",
"                     .o.oo..oooooooooooooo.oXXX.1                            ",
"                     .@.o.XO..ooooooooooo.ooooX.1                            ",
"                      .@.XX%OO..oooooo........@.1                            ",
"                      .@.%O.%%OOX.....%.@@@@oXX..                            ",
"                       ...O.%%%%%%%%%%..o@@@@o%.                             ",
"                        .o%O.%%%%%%%..@@@o%@@@@.                             ",
"                        .o%O.%%%%%...@@@@@oXX@@.                             ",
"                        .%%%O.oo%%oo.@@@@@@o%XX.                             ",
"                       .%%%%O.o%ooo.@@@@@@@ooo.                              ",
"                       .%%%%%X.oooo.@@@@@ooo@@.                              ",
"                      .%%o%%%X.ooo.@@@ooo..@.@..                             ",
"                      .%%%...%.oo.@@oo...@@oo...                             ",
"                     .%%%%%%%....@@...@@@ooooo.1.                            ",
"                     .%%%.......@..@@@@oooooooo.#.                           ",
"                    .%%%XXXXXOO%..o......%%%%XXo.:2                          ",
"                   .XX%%%%%%%%%X%..ooo%%%......X.##.                         ",
"                   .X%%%%%%%%%%%X%%..oooo%%%%%%%....                         ",
"                   .%%%%%%%%%%%%%X%%%...........XXO.                         ",
"                   .o%%%%%%%%%%%%%XX%%%%%%.&&.XXXXO.                         ",
"                    .ooo%%%%%%%%%%%%XXX%%%.&&.XXXXO.                         ",
"                     ..ooooooooooooo@@@OOO.&&.X%XXO.                         ",
"                       ....oooooo...oooooo.**.XXoXO.                         ",
"                           ..........oooo.....XXX@O..                        ",
"                            .@@@@.ooo.ooo.o.o.XXXX$..                        ",
"                            .@@@@.oooo.o.oo.o.XXXXO..                        ",
"                             .@@@.oooo.o.oo.o.XXXXO.o.                       ",
"                             .@@@.ooooo.ooo.ooXXXXO.oo.                      ",
"                             .....ooooo.oo.oooXXXX%$ooo.                     ",
"                            ..***.oooooooo....XXXX.$@ooo.                    ",
"                           ..****.%ooooooo.%%XXXXX.$@oooo.                   ",
"                           ;.***..%ooooooo.%%XXXXX.$@ooooo.                  ",
"                           ;.***.%%%ooooo.o%%XXXXo.$@oooooo.                 ",
"                           .;.**.%%%ooooo.o%%XXXXo.$@@oooooo.                ",
"                            ...*.%%%%oooo.%%%XXXX.$$@@oooooo@                ",
"                            .;;.%%%%%ooo.o%%%XXXX.$$@@ooooooo.               ",
"                           .**..%%%%%%oo.o%%XXXXo.$$@@oooooooo.              ",
"                           .*.%.%%%%%%%.o%%%X%XXo.$$@@@ooooooo@              ",
"                            .%.%%%%%%%%.o%%%X%Xo.$$$@@@oooooooo.             ",
"                           .o%.%%%%%%%.oo%%%X%Xo.$$$@@@ooooooooo.            ",
"                           .%%.%%%%%%%.o%%%%%X@%....@@oooooooooo@            ",
"                          .%%%%%%%%%%.oo%%%o%X@%..$@...@ooooooooo.           ",
"                         .o%%%%%%%%%%.oo%%o%%@%.  .$$@@...@oooooo.           ",
"                         @%%%%%%%%%%.ooooo%%X@%.   .$$$@oo....oooo.          ",
"                        .%%%%%%%%%%.ooooo@%%@%%.    ....$@oooooooo.          ",
"                       .o%%%%%%%%%%.oooo@%%@%%.      .@@...@ooooooo.         ",
"                       @%%%%%%%%%%.oooo@%%@%%%.      .@@@@@...@oooo.         ",
"                      .%%%%%%%%%%%.oo$@%%@%%%%.      .....@@@@...oo.         ",
"                     .o%%%%%%%%%%.oo$%%$@%%%%.        ..@@....ooooo.         ",
"                     @%%%%%%%%%%%..$oo$%%%%%%.       .@@@@o.@@...oo.         ",
"                    .%%%%%%%%%%%.ooo$$%%%%%%.       .@@@@@@o.@@@@oo.         ",
"                    @%%%%%%%%%%%.o$$%%%%%%%%.      .@@@@@@@@o.@@@o.          ",
"                   .%%%%%%%%%%%.$$o%%%%%%%%%.     .@@@ooooo@@@@@@o.          ",
"                   @%%%%%%%%%%%.ooo%%%%%%%%.      .@@ooooooo@@@@@.           ",
"                  .%%%%%%%%%%%%.ooo%%%%%%%%.     .@@@ooooooo@@@@.            ",
"                  @%%%%%%%%%%%.oooo%%%%%%%%.     .@@@@@ooooo@@@@.            ",
"                 .%%%%%%%%%%%%.ooooo%%%%%%..     .@@@@@@@@@@@@@.             ",
"                 .%%%%%%%%%%%%.oooooooooo.33.   .@@@@@@@@@@@@@.              ",
"                  .%%%%%%%%%%.oooooooooo.333.   .@@@@@@@@@@@@.               ",
"                  .%%%%%%%%%%.ooooooooo......   .@@@@@@@@@@..                ",
"                   .%%%%%%%%%.oooooooo.        .@@@@@@..oo.                  ",
"                    .%%%%%%%.oooooooo.         .@@@@..oo@.                   ",
"                     .%%%%%%.ooooooo.         .@@...oo@@.                    ",
"                      .%%%%%.oooooo.         ....ooo@@@.                     ",
"                      ..%%%.ooooo@.       ...oooooo@@@.                      ",
"                      .o..%.oooo@.      ..oooooooo@@@.                       ",
"                      .ooo..oo@@.     ..oooooooooo@@@.                       ",
"                     .oooooo$$o.   ....ooooooooooo@@.                        ",
"                     .oooo$$oo.     .33..oooooooo@@.                         ",
"                    .ooo$$ooo.       .333.ooooooo@@.                         ",
"                   .o$$$%ooo.         ...4..ooooo@.                          ",
"                  ..$%%ooooo.         .4544..oooo@.                          ",
"                ..%%%oooooo.         .45144.4..oo.                           ",
"               .XX%oooooooo.        .441444.444.o.                           ",
"              .XX%oooooooo.         ...5444.4454..                           ",
"             .XXXooooooooo.          .4..4.444454.                           ",
"             .XXoooooooooo.           ..4.444...4.                           ",
"             .X%ooooooooo.              ...44444...                          ",
"             .%oooooooooo.                 ...44454.                         ",
"              ..ooooooooo.                  .4..4454.                        ",
"             ..*.oooooooo.                   .44..454.                       ",
"            .11.*..oooooo.                    ..44..55.                      ",
"           .16114...ooooo.                      ...4..5.                     ",
"          .161114111..ooo.                         .....                     ",
"          .17111411111....                                                   ",
"          .17611461111144..                                                  ",
"          .11111416614411115..                                               ",
"           ......11446666111115.                                             ",
"                 ..1111116677777.                                            ",
"                   .............                                             ",
"                                                                             ",
"                                                                             ",
"                                                                             ",
"                                                                             ",
"                                                                             ",
"                                                                             ",
"                                                                             "
};
