/* XPM */
static char *_577715370274[] = {
/* columns rows colors chars-per-pixel */
"91 131 25 1 ",
"  c #8080FF",
". c black",
"X c #5858F8",
"o c #4028B0",
"O c #6870F8",
"+ c #B8C0F8",
"@ c #281078",
"# c #F8B818",
"$ c #000038",
"% c #4838E0",
"& c #E8A858",
"* c #B87838",
"= c #400808",
"- c #A0A0A0",
"; c #905010",
": c #C88808",
"> c #F8E820",
", c #90B090",
"< c #B0E0B0",
"1 c #602040",
"2 c #983878",
"3 c #C04898",
"4 c #802860",
"5 c #E058B8",
"6 c white",
/* pixels */
"                                                                                           ",
"                                                                                           ",
"                                                                                           ",
"                                                                                           ",
"                                                                                           ",
"                                                                                           ",
"                                                                                           ",
"                                                                                           ",
"                                                                                           ",
"                                             .X                                            ",
"                                             .oXX                                          ",
"                                             .oooOOOOO++++O                                ",
"                                            .ooooooooooo@@.                                ",
"                                           .ooooooooooo@@.                                 ",
"                                          .ooooooooooo@@@#                                 ",
"                                          .oooo..$O%o@@@#                                  ",
"                                         .@@@@.&.$..OOOXX                                  ",
"                                        .@@@...&.*=-.@%+@.                                 ",
"                                       .@@..&&&.&&&*;..@O@.                                ",
"                                       ...&&&&&.&&&**&...%@.                               ",
"                                      .O.&&&&&&.&&&&&..  ....                              ",
"                                     .XXXXOO.&&.&&&*.                                      ",
"                                    .XXX%%%%%XOO.&&&.                                      ",
"                                  oo..X%%%%%%%:>%XOO                                       ",
"                                oXX.o%...%%%%%:#%:>%.                                      ",
"                               oXX.oOOOO%.....%%%:#.                                       ",
"                              @XX.oXOOOOOO@%OO%@.%%..                                      ",
"                              o%.%oXXXOO@%OOOOOOO%.,<.                                     ",
"                             .oo.@XXXXX@OOO%%ooo%OO...                                     ",
"                             .o.%@XXXX@XX%oooooooo%O%..                                    ",
"                             .o.%@XXX@XX%oooooooooo%.XX..                                  ",
"                             ..%@XXXX@X%oooooooooooo.XXXX.                                 ",
"                             ..%@XXXX@Xooooooooooooo.XXXX.                                 ",
"                             ..%@%XXX@Xooooooooooooo.XXXX.                                 ",
"                             .oo@o%%%o.ooooooooooooo.XXXX.                                 ",
"                             .oo@ooooo..oooooooooooo.oXXX.                                 ",
"                             .oo.oooo.XO.oooooooooo.oooXX.                                 ",
"                             ..o.oooo.%OX.oooooo...@@@@@o.                                 ",
"                             ..@.ooo.%.O.XX%....%.@X@@@@.                                  ",
"                             .@.@.o.%%@X.%%XXXX%o.@@X@@@.                                  ",
"                             .@@.@..%%@%O.%%%%%..@@@@X%@.                                  ",
"                             ..@@...%%%oO.%%%..o.@@@@@XX.                                  ",
"                             ..@@@@.%%%oX.%%ooo.@@@@@ooX.                                  ",
"                             .@@@@@.%%%%%%.oooo.@@@@oo%@.                                  ",
"                             .o@@@..%o%%%%.oooo.@@@oo..@.                                  ",
"                             .o@@@..%%o%%%.ooo.@@oo..ooo.                                  ",
"                            .%@@@.%.%%o..%.o..@@@..ooooo.                                  ",
"                            .o@@@.%.%%%%%...@@@..ooooooo.                                  ",
"                            .o@@.%%@%%XXXOO....@@@oooooo..                                 ",
"                            .@@@.%%o%%%%%%X.ooo....@%%XX.#.                                ",
"                             .@.%%%o%%%%%%%%.ooo%%%....XX.#.                               ",
"                             ..%%%%%%%%%%%%%%.ooooo%%%%%%...                               ",
"                              .%%%%%%%%%%%%%%X...........XO.                               ",
"                              .o%%%%%%%%%%%%%%X.%%%%.&.XXXO.                               ",
"                               .ooo%%%%%%%%%%%%Xo%%%.&.X%XO.                               ",
"                               ...ooooooooo%%%%%XOOO.&.OoXO.                               ",
"                               .@@....oooooooooooooo.;.XOoO.                               ",
"                                .@@@@@............oo...XXOo.                               ",
"                                .@@@@@@. .ooo@.oooo.oo.XXX$.                               ",
"                                .@@@@@....ooo@@.ooo.oo.XXXO.                               ",
"                                .@@@..***.ooo@@o.o.ooo.XXO.@.                              ",
"                                .@..;****.ooo@@oo..ooo.XXO.@o.                             ",
"                                ..**.***.%ooo@ooo.ooooXXXO.@oo.                            ",
"                                .;*;.***.%ooo@ooo.ooooXXO.$@oo@                            ",
"                                 .*;.***.%ooo@ooo.....XXO.$@ooo.                           ",
"                                 .;;;.*..%ooooooo.%%%XXXO.$@oooo.                          ",
"                                 .;...*.%%ooo%oo.%%%%XXXO.$@@ooo@                          ",
"                                 ..***..%%oo%%%o.%%%%XXX.$$@@oooo.                         ",
"                                 .***.%.%%oo%%%o.%%%%XXX.$$@@ooooo.                        ",
"                                  ...%.%%%o%%%%.o%%%%XXX.$$@@ooooo@                        ",
"                                   .%%.%%%o%%%%.%%%%XXX.$$$@@oooooo.                       ",
"                                  .%%%.%%o%%%%%.%%%%XXX.$$$@@@ooooo@                       ",
"                                 .%%%.%%%o%%%%.o%%%%XX.$$$$@@@oooooo.                      ",
"                                .%%%%.%%o%%%%%.%%%%%XX.$$$$@@@oooooo@                      ",
"                               .%%%%%.%%%%%%%%.%%%%%Xo.$$$$@@@ooooooo.                     ",
"                              .%%%%%%%%%%%%%%.o%%%%%X...$$$@@@@oooooo@                     ",
"                             .%%%%%%%%%%%%%%%.o%%%%Xo.  .$@@@@@ooooooo.                    ",
"                             .%%%%%%%%X%%%%%.oo%%%%o%.   ...oo@@oooooo.                    ",
"                            .%%%%%%%%XX%%%%%.oo%%%%@.     .@..oooooooo@                    ",
"                           .%%%%%%%%XX%%%%%.ooo%%o@%.      .@@..ooooooo.                   ",
"                          .%%%%%%%%XXX%%%%%.ooooo@%%.      ..o@@..ooooo.                   ",
"                         .%%%%%%%%XXX%%%%%.ooooo@%%.       .@..o@@..ooo.                   ",
"                         .%%%%%%%XXXX%%%%%.ooo$@%%%.        .@@.oo@@@oo.                   ",
"                        .%%%%%%%XXXX%%%%%.oo@$o%%%.         ..@@..oo@@o.                   ",
"                       .%%%%%%.XXXXX%%%%%.@.$%%%%%.        .@@.@@@.oooo.                   ",
"                      .%%%%%%.XXXXX%%%%%...%%%%%%.         .@@@.@@@..oo.                   ",
"                      .%%%%%.XXXXX%%%%%%.o%%%%%%%.         .@@@o.@@@@oo.                   ",
"                     .%%%%%.XXXXXX%%%%%.oo%%%%%%.          .@@@oo.@@@@o.                   ",
"                     .%%%%.XXXXXX%%%%%%.oo%%%%%..          .@@@ooo.@@@o.                   ",
"                     .%%%.XXXXXX%%%%%%%.oo%%%%%..          .@@@oooo@@@o.                   ",
"                      .%%.XXXXXX%%%%%%.ooo%%%%...          .@@@@oooo@@o.                   ",
"                       ..XXXXXX%%%%%%%.oooooo.              .@@@@ooo@@o@.                  ",
"                        .XXXXXX%%%%%%.oooooo.               .@@@@@ooo@o@.                  ",
"                        .XXXXX%%%%%%%.oooooo.                .@@@@@@o@@@.                  ",
"                         .XXXX%%%%%%%.ooooo.                 .@@@@@@@@@@.                  ",
"                         .XXX%%%%%%%.ooooo.                   .@@@@@@@@@.                  ",
"                          .XX%%%%%%%.oooo.                     .@@@@@@@@.                  ",
"                           .%%%%%%%%.ooo.                      .@@@@@@@@.                  ",
"                           ..%%%%%%.ooo.                        .@@@@@@@.                  ",
"                           .o.%%%%%.@o.                         ..@@@@@@.                  ",
"                          .ooo..%%%.o.                          ..@@@@@@.                  ",
"                          .ooooo..%..                          .oo.@@@@@.                  ",
"                         .ooo$$$oo..                           .ooo.@@@@.                  ",
"                        .o$$$%oooo.                           .ooooo.@@@.                  ",
"                     ..$$$%%%oooo.                           .ooooooo.@@.                  ",
"                   ..XXXX%ooooooo.                          .ooooooooo.@@.                 ",
"                  .XXXXXoooooooo.                          .ooooooooooo.@.                 ",
"                 .XXXXXoooooooo.                         ..ooooooooooooo@.                 ",
"                .XXXXXoooooooo.                            ...ooooooooooo.                 ",
"                 .XXXoooooooo.                                ...ooooooooo.                ",
"                 .XX%oooooooo.                                   ...oooooo.                ",
"               ..*.Xoooooooo.                                   .111....ooo.               ",
"              .22.*.oooooooo.                                  .11111.11....               ",
"             .23221.ooooooo.                                   .411111.11111.              ",
"            .2522214.oooooo.                                   .211111.111111.             ",
"           .253222122.ooooo.                                   .411111.44411...            ",
"           .2522221222..oo.                                     .......111..1111..         ",
"            .23221222222...                                            ...114441111.       ",
"             ..2212332222..                                               ..111442221.     ",
"               ....22321144.                                                ..........     ",
"                   .211522224.                                                             ",
"                    .2255222224.                                                           ",
"                    .222233333334.                                                         ",
"                     .............                                                         ",
"                                                                                           ",
"                                                                                           ",
"                                                                                           ",
"                                                                                           ",
"                                                                                           ",
"                                                                                           ",
"                                                                                           "
};
