/* XPM */
static char *_577715343516[] = {
/* columns rows colors chars-per-pixel */
"90 131 30 1 ",
"  c #8080FF",
". c black",
"X c #5858F8",
"o c #4028B0",
"O c #6870F8",
"+ c #B8C0F8",
"@ c #281078",
"# c #F8B818",
"$ c #000038",
"% c #4838E0",
"& c #E8A858",
"* c #B87838",
"= c #400808",
"- c #A0A0A0",
"; c #905010",
": c #F8E820",
"> c #C88808",
", c #804000",
"< c gray94",
"1 c #90B090",
"2 c #B0E0B0",
"3 c #983878",
"4 c #C04898",
"5 c #688068",
"6 c #E058B8",
"7 c #506050",
"8 c #602040",
"9 c #802860",
"0 c #F8F8A0",
"q c white",
/* pixels */
"                                                                                          ",
"                                                                                          ",
"                                                                                          ",
"                                                                                          ",
"                                                                                          ",
"                                                                                          ",
"                                                                                          ",
"                                                                                          ",
"                                                    .X                                    ",
"                                                    .oXX                                  ",
"                                                    .oooOOOO+++++O                        ",
"                                                   .oooooooooo@@@.                        ",
"                                                  .oooooooooo@@@.                         ",
"                                                 .oooooooooo@@@##                         ",
"                                                 .oooo..$O%@@@@#                          ",
"                                                .@@@@.&.$..OOOXX                          ",
"                                               .@@@...&.*=-.@+O@.                         ",
"                                              .@@..&&&.&&&*;..%X@.                        ",
"                                              ...&&&&&.&&&**&...%@.                       ",
"                                              oXOO.&&&.&&&&&..  ....                      ",
"                                             .XXX%XOO..&&&*. #                            ",
"                                             .XX%%:>%XOO.&&.#..                           ",
"                                           @@@..%%#>%:>%...-,<.                           ",
"                                         .OOOOOOo@@%%#>.*.--<<.                           ",
"                                        .oooooXOOOo@..%..---<<.#                          ",
"                                       .oooooooo%OOO@X..*..-<<.,#                         ",
"                                      .oooooooooo%OOO@XX..*..-.%>o                        ",
"                                      .ooooooooooo%OOO@XXX..*.1......                     ",
"                                     .oooooooooooooOOO@XXXX..&.12222.                     ",
"                                     .oooooooooooooXXX@XXXX.&&&.1222.o                    ",
"                                    ..oooooooooooooXXX@XXX.34445.222.#                    ",
"                                    .%.ooooooooooooXXX@XXX.667221.22.,:                   ",
"                                   .oo%.oooooooooooXXX@XXX.664777.12.o#                   ",
"                                   .oo.X.oooooooooo%%@oXX.46644443.2.>#                   ",
"                                   .o.%%X.o..........oooX.46644443.2.,>#                  ",
"                                   .o.o%%XOOOOOOX%.@@.ooo.34644443.1. #,:                 ",
"                                    .%ooooooo%%Xo.@@@@.@@.8999998..1. # ## ::             ",
"                                    .o%%%%%%%%XX..@@@oXOO.36644443.1.  #>># ,:            ",
"                                    .ooooo%%%O...@@@@o%%%.36444443.1.     # ,#            ",
"                                   .oooo%%%OO.%o.@o@@@o%%.3344443.11.      ##             ",
"                                   .o%%%%XX..oo.@@@o@@@@@@.999993.11.                     ",
"                                  .oo...oo.ooo.@@@@@o%@@@@.33333.711.                     ",
"                                 .o%XXX%.oo...@@@@@@@o%X@.333333.71...                    ",
"                                .%%%%%%OO...@@@@@@@@@@o%X.33333.571.o.                    ",
"                               .%%%%%%%%XOoo..@ooooooooo.333393.571.o.                    ",
"                              .%%%%%%%%%%X%o. ..@@@@ooo@.393339.551.o.                    ",
"                              .%%%%%%%%%%X%o.  ..@ooo..o.339344.551.@..                   ",
"                              .%%%%%%%%%%X%%.  .o.....ooo..39444.51.@.o.                  ",
"                              .o%%%%%%%%%%X%%...oooooo...oo.,>>,0.1.@.oo.                 ",
"                               .oo%%%%%%%%X%%%%.......%%XXXX.##>:>..@.oo.                 ",
"                                ..ooo%%%%%%X%%%%%..ooo....%%.>>,,0.@@@o.                  ",
"                                  ...o.%%%%%OO%%.&&..%%%%%%.####>:.@@@o.                  ",
"                                     ...%%%%%XO.&&&&&..............@@@o.                  ",
"                                        .%%%%%X.&&&..XXXXXXX%XO%.X.@@@o.                  ",
"                                         .%%%%.*&&&.XXXXXOOXX%O%.X.@@@.                   ",
"                                          .%%%..*&&.XXXXX%oOXX@%.X.@@@.                   ",
"                                           .%.55..**.XXXXXXoOOO@.%.@@@.                   ",
"                                           .%.5.oo...XXXXXXXo@O%.%.@@@.                   ",
"                                            .5.oo.o%.XXXXXXXX%@%..@@@@.                   ",
"                                           ...ooo.o%%.XXXXXXXXX@..@@@.                    ",
"                                           ..ooo.oo%%.XXXXXOOOO%..@@@.                    ",
"                                          .ooooo.oo%%.%%%%XXXXO@.@@@@.                    ",
"                                         .ooooo.ooo%%%%%XXXXXXO%.@@@@.                    ",
"                                         @%oooo..oo%%%%XXXXXXXO%.@@...                    ",
"                                        .%%ooo.5...%%%%XXXXXXXO%...**.                    ",
"                                       .o%%ooo.5.o%$$%%XXXXXXXXO.***;                     ",
"                                       @%%%oo.55...%%@@XXXXXXXXO.***.                     ",
"                                      .%%%%oo.5.$.o$@%%ooXXXXXXO%.**.                     ",
"                                     .%%%%%o.55.$.ooo@%XXXXXXXXO%.*.                      ",
"                                    .%%%%%%.55.$$.oooo@o%XXXXXXO%.*.                      ",
"                                   .%%%%%%%.5.$$$$.o%%%oo%XXXXXO%..                       ",
"                                  .%%%%%%%.55.$$$$.o%%%%%%XXXXXX%..                       ",
"                                 .%%%%%%%.55.$$$$$.o%%%%%%XXXXXXX.                        ",
"                                .%%%%%%%%.5.$$$$$$.o%%%%%%%XXXXXX.                        ",
"                               .%%%%%%%%.55.$$$$$$.o%%%%%%%XXXXXX.                        ",
"                              .%%%%%%%%.555.$$$$$$.o%%%%%%%XXXXXX.                        ",
"                             .%%%%%%%%.555.$$$$$$$$.%%%%%%%XXXXXX.                        ",
"                            .%%%%%%%%%.555.$$$$$$$$.%%%%%%%X%XXXX.                        ",
"                           .%%%%%%%%%.5555.$$$.$$@.$.%%%%%%%XXXXX.                        ",
"                         .@%%%%%%%%%.5555.$$..@@..$$.%%%%%@XXXXXX.                        ",
"                        .o%%%%%%%%%.55555...@@..$$$$$.%%%@X%%XXXX.                        ",
"                       .%%%%%%%%%%%.5555..@@..$$$$$$$..@@%%%%XXXX.                        ",
"                     .@%%%%%%%%%%%.5555.@@..$$$$$$$$$.o$$XX%%%XX%.                        ",
"                   .@o%%%%%%%%%%%.5555....$$$$$$$$$$..oo%$@XX%%%%.                        ",
"                  .o%%%%%%%%%%%%.55...$$$$$$$$$$$$$.5.$$o%%@oXX%%.                        ",
"                 .%%%%%%%%%%%%%.5..$$$$$$$$$$$$$$$.55.%%@%%%%%%%%.                        ",
"                 .%%%%%%%%%%%%.5.$$@@@@$$$$$$$$$$.555.%%%%%%%%%%.                         ",
"                .%%%%%%%%%%%%...$$@@@$$$$$$$$$$$.555.%%%%%%%%%%$                          ",
"                .%%%%%%%%%%%. .$$@$$$$$$$$$$$$$.5555.%%%%%%%%%@.                          ",
"               .%%%%%%%%%%%. .$$$$$$$$$$$$$$$..5555.%%%%%%%%%o%.                          ",
"               .%%%%%%%%%..  .$$$$$$$$$$$$$..555555.%%%%%%%%%%%.                          ",
"               .%%%%%%%%.   .$$$$$$$$$$$$.. ..5555.o%%%%%%%%%%o.                          ",
"               .%%%%%%%.    .$$$$$$$$$$...    ..55.%%%%%%%%%%%o.                          ",
"               .%%%%%..    .$$$$$$$$....        ..o%%%%%%%%%%%o.                          ",
"               .%%%%.     .$$$$$$...@.           .o%%%%%%%%%%o.                           ",
"              .%%%..     .$$$$...@@@.            .o%%%%%%%%%%o.                           ",
"              .%%.      .$....@@@@..              .o%%%%%%%%oo.                           ",
"              ...     ....@@@@@@@.                .o%%%%%%%oo.                            ",
"             .........@@@@@@@@@@.                 .oo%%%%%ooo.                            ",
"            .. .55.@@@@@@@@@@@@.                  .ooo%%%oooo.                            ",
"               .555.@@@@@@@@@@.                    .oooooooo.                             ",
"             ......;.@@@@@@@@.                     .oooooooo.                             ",
"           ..3398.;;;.@@@@@@.                      .oooooo@o.                             ",
"          .8.98888.;;.@@@@@.                       .oooooo@o.                             ",
"          .8.98888.;;.@@@@.                        .oooooo@o.                             ",
"          .8.88888....@@@.                         .oooooo@o.                             ",
"          .8.8888.8.5.@@.                          .oooooo@o.                             ",
"          .8.....88.5.@.                           .oooooo%@.                             ",
"          .8.98888.55.@.                           .oooooo%@.                             ",
"           .898888.55..                            .oooooo%%$.                            ",
"           .89888. .5..                           .ooooooo%X$.                            ",
"           ....88.  ..                            .oooooooXXX.                            ",
"          .8898.8.   .                            .oooooo%XXX.                            ",
"          .88988.                                .oooooooXXXXX.                           ",
"         ..88988.                                .oooooo%XXXXX.                           ",
"         .8.8988.                                .ooooooXXXXXXX.                          ",
"          .8.988.                                .ooooo%XXXXXXXX.                         ",
"           ..888.                                ..ooo%XXXXX......                        ",
"            ..88.                                .3.........33388.                        ",
"             ..88.                               .43333833443893339..                     ",
"               ...                               .63333833338444333339.                   ",
"                                                 .4333383338333344446669.                 ",
"                                                  .......................                 ",
"                                                                                          ",
"                                                                                          ",
"                                                                                          ",
"                                                                                          ",
"                                                                                          ",
"                                                                                          ",
"                                                                                          ",
"                                                                                          "
};
