/* XPM */
static char *_577715322910[] = {
/* columns rows colors chars-per-pixel */
"84 126 30 1 ",
"  c #8080FF",
". c black",
"X c #5858F8",
"o c #4028B0",
"O c #6870F8",
"+ c #B8C0F8",
"@ c #281078",
"# c #F8B818",
"$ c #000038",
"% c #4838E0",
"& c #E8A858",
"* c #B87838",
"= c #400808",
"- c #A0A0A0",
"; c #905010",
": c #F8E820",
"> c #C88808",
", c gray94",
"< c #90B090",
"1 c #B0E0B0",
"2 c #983878",
"3 c #C04898",
"4 c #506050",
"5 c #802860",
"6 c #602040",
"7 c #688068",
"8 c #F8F8A0",
"9 c #804000",
"0 c #E058B8",
"q c white",
/* pixels */
"                                                                                    ",
"                                                                                    ",
"                                                                                    ",
"                                                                                    ",
"                                                                                    ",
"                                                                                    ",
"                                                                                    ",
"                                                                                    ",
"                                                                                    ",
"                                         .X                                         ",
"                                         .oXX                                       ",
"                                         .oooOOOO+++++O                             ",
"                                        .oooooooooo@@@.                             ",
"                                       .oooooooooo@@@.                              ",
"                                      .oooooooooo@@@##                              ",
"                                      .oooo..$O%@@@@#                               ",
"                                     .@@@@.&.$..OOOXX                               ",
"                                    .@@@...&.*=-.@+O@.                              ",
"                                   .@@..&&&.&&&*;..%X@.                             ",
"                                   O..&&&&&.&&&**&...%@.                            ",
"                                  .XOO.&&&&.&&&&&..  ....                           ",
"                                  oX%%XOO.&.&&&*.                                   ",
"                                 .XX%%:>%XOO.&&&..                                  ",
"                                ....%%#>%:>%....,,.                                 ",
"                              .OOOOX...%%#>%..--,.#                                 ",
"                             .ooooOOOOX..%%%.*.--.>#                                ",
"                            .oooooooOOOOX....**.....                                ",
"                            .oooooooooOOOO@XX..&&.<1..                              ",
"                           .oooooooooooXXXX@XXX....<11..                            ",
"                           .ooooooooooooXXX@XXXXX.&.<111..                          ",
"                           .ooooooooooooXXX@XXXXX.22.1111.                          ",
"                          .o.oooooooooooXXX@XXXX.3331.111.                          ",
"                          .o..ooooooooooXXX@XXXX.331<4.11.                          ",
"                          ..%O.oooooooooXX@oXXXX.33443.<1.                          ",
"                           .%%OOooo......@ooXXX.3333332.1.                          ",
"                           .%%%XOOOOXX%%..oooXX.3333332.<1.                         ",
"                          .o.%%%%%%%%%%.@@..ooX.2333335.<<.                         ",
"                          .oo%%%%%%OO..@@@@@..@.665556..<<.                         ",
"                          .ooo%%%XO...@@@@@%XOO.3333332.<.                          ",
"                         .ooo%%%Xo.oo.o@@@@o%%%.3333332.<.                          ",
"                         .oo%%%oooooo.@o@@@oo%%.265552.4<.                          ",
"                         .@%%%%%%oooo.@@o@@@@@@.62222.74<.                          ",
"                        .@%%%XXXo%oo.@@@@oX@@@@.22222.74<.                          ",
"                        .%%%...%Xoo.@@@@@@oXX@@.22222.74<..                         ",
"                       .%XXXXX%.o%.@@@@@@@@o%XX.22556.77<..                         ",
"                      .%%%%%...... .@@@@@@@@@o%%.23333.7<..                         ",
"                     .%%%XXXXXOO%.  ..@@@oooooo%.233333.<.@.                        ",
"                     .%%%%%%%%%X%%.   ...@@@@@ooo.333333..@...                      ",
"                     .o%%%%%%%%%X%%.  .@@......oo.333>88>.@.o.                      ",
"                      .o%%%%%%%%%X%%..@..o%%oooooo.9>>:99>.oo.                      ",
"                       .oo%%%%%o%X%%%..@@...%XXXXX.##998:..o.o.                     ",
"                        .ooo%%%%o%X%%%%..ooo....XX.9>>:99%.o.oo.                    ",
"                         ..oooooo%%OO%%%...@o%%%%@.##..::%.@@oo.                    ",
"                           ....oo.%%XOO.&&&..........%.X.%.@@oo.                    ",
"                               ....%%%.*&&&.XXOOXXXO%%.X.%.@@oo.                    ",
"                                  .%%%.*&&&.XX%%OOXO%%.X.%.@@o.                     ",
"                                   .%.7.***.XXXXooOO%%.X.%.@@o.                     ",
"                                   .%.77....XXXXXX@@%%.X.%.@@o.                     ",
"                                    .77.o.o.XXXOOOOO$$.%.%.@@.                      ",
"                                    .7.oo.o.XX%o@@@@Xo.%.%.@@.                      ",
"                                    ..ooo.o.%XXXXXX%@@..o.@@@.                      ",
"                                    .%ooo.oo%%XXXXXXXOXo..@@.                       ",
"                                    .%oo.ooo%%%XXXXXXXOO%.@@.                       ",
"                                    .%oo..oo%%%%XXXXXXXXO%.@.                       ",
"                                   .%%oo.7..%%%%%XXXXXXXXO%..                       ",
"                                  .@%%o.77.o$$%%%%XXXXXXXXO%.                       ",
"                                 .%@%oo.77.$$o@@%%%XXXXXXXXO%.                      ",
"                                .%@%%o.77.$.o$$%oo%%XXXXXXXXO%.                     ",
"                               .%%@%%o.77.$$.oo$$%%%%XXXXXXXXO%.                    ",
"                               .%o%%%.77.$$$$.ooo@@%%%XXXXXXXXO%.                   ",
"                              .%%o%%%.7.$$$$$$.ooo%@@%%%XXXXXXXO%.                  ",
"                             .%%%%%%.77.$$$$$$$.ooo%%oo%%%XXXXXXOo                  ",
"                            .%%%%%%%.7.$$$$$$$$$.oo%%%%%%%%XXXXXXO.                 ",
"                           .%%%%%%%.77.$$$$$$$$$$.oo%%%%%%%%XXXXXXO.                ",
"                          .%%%%%%%%.77.$$$$$$$$$$$.o%%%%%%%%%XXXXXXo                ",
"                         .%%%%%%%%.7777.$$$$$$$$$$@.o%%%%%%%%%XXXXXO.               ",
"                         .%%%%%%%%.7777.$$$$$$$$$@.$..%%%%%%%%%XXXXXo               ",
"                        .%%%%%%%%.77777.$$$$$$$$@.$.77..%%%%%%%%XXXXX.              ",
"                       .o%%%%%%%%.77777.$$$$$$@@.$$.777..%%%%%%%%XXXX.              ",
"                       .%%%%%%%%.777777.$$..@@@.$$.7777. ..XXXXXOOOXX.              ",
"                      .oX%%%%%%%.777777...@@@..$$$.7777..%%..$@@ooXXX.              ",
"                     .ooX%%%%%%.77777...@@@@.$$$$.77777...$%%$%%%%%%%.              ",
"                     .ooX%%%%%%.7777.@@@@@..$$$$$.77777..%%$%%@%%%%%%.              ",
"                    .oooX%%%%%%.7777.@@...$$$$$$.77777..%%%%$%%@%%%%%.              ",
"                   .ooooX%%%%%.77777...$$$$$$$$$.777..%%%%%%%@%oo%%%.               ",
"                   .oooo%X%%%%.777..@@@$$$$$$$$.777.%%%%%%%%%@%%o%o.                ",
"                  .ooooooX%%%%.77.@@@@$$$$$$$$$.77.%%%%%%%%%%@o%oo.                 ",
"                  .ooooooX%%%.77.@@@@$$$$$$$$$.77.%%%%%%%%%%%oooo.                  ",
"                  .ooooooX%%%.7.$@@@$$$$$$$$$.777.%%%%%%%%%%%ooo.                   ",
"                   .ooooo%X%%..$$$$$$$$$$$$$.7777.%%%%%%%%%%ooo.                    ",
"                   .ooooooX%..$$$$$$$$$$$$$.7777.o%%%%%%%%%ooo.                     ",
"                    .oooooX%.$$$$$$$$$$$$$.77777.o%%%%%%%ooo..                      ",
"                     .oooo%%.$$$$$$$$$$$$.....77.oo%%%ooooo.                        ",
"                      .oooo%.$$$$$$$$$$$.     ...ooooooooo.                         ",
"                       ..ooo.$$$$$$$$$@.       ..ooooooo$.                          ",
"                         ..o.$$$$$$$@@.        ..ooooo@$.                           ",
"                           .$$$$$$@@..        .o.oooo@%.                            ",
"                           .$$$$@@@..        .ooooo$@X.                             ",
"                           .$$@@@...        .oooo$@XX.                              ",
"                          .@@@@@.@@.       .oo$$@XXX%.                              ",
"                          .@@@..@@.      .$$$@XXXXX%.                               ",
"                         .@@..@@@@.    ..XXXXXXXX%%%.                               ",
"                         ...@@@@@.    .XXXXXXXXX%%%.                                ",
"                        ..@@@@@@@.   .XXXXXXXX%%%%%.                                ",
"                      ..@@@@@@@@@.    .XXXXXX%%%%%%.                                ",
"                    ..@@@@@@@@@@.      .XXXX%%%%%%.                                 ",
"                   .@@@@@@@@@@@@.      ...%%%%%%%%.                                 ",
"                    .@@@@@@@@@@@.     .202.........                                 ",
"                    .@@@@@@@@@@@.     .202222622225                                 ",
"                     .@@@@@@@@@.       .23322622222.                                ",
"                     ..@@@@@@@@.        ..2362222225                                ",
"                    ..;.@@@@@@@.          ..23222225.                               ",
"                   .66.;.@@@@@@.            .2326666.                               ",
"                  .6666...@@@@@.             .2602222.                              ",
"                 .56666.66.@@@@.             .22003222.                             ",
"                 .26666.666..@@.              .22233322.                            ",
"                 .25566.66666...               ..5222332.                           ",
"                 .66666.6666....                  ...5233.                          ",
"                  .....665..6666...                   ....                          ",
"                       .6.655566666..                                               ",
"                        .666665522222..                                             ",
"                        ...............                                             ",
"                                                                                    ",
"                                                                                    ",
"                                                                                    ",
"                                                                                    "
};
